<?xml version="1.0" encoding="UTF-8"?>
<svg id="Layer_2" data-name="Layer 2" xmlns="http://www.w3.org/2000/svg" viewBox="0 0 163.91 42.1">
  <defs>
    <style>
      .cls-1 {
        fill: #000;
        stroke-width: 0px;
      }
    </style>
  </defs>
  <g id="Layer_1-2" data-name="Layer 1">
    <g>
      <path class="cls-1" d="M7.86,37.41v3.53h.65v-1.08h.24c.84,0,1.25-.34,1.25-1.07v-.33c0-.75-.4-1.05-1.25-1.05h-.89ZM8.51,39.25v-1.26h.26c.49,0,.6.17.6.51v.26c0,.33-.15.49-.61.49h-.25Z"/>
      <path class="cls-1" d="M12.59,37.42h-.63l-.98,3.53h.65l.18-.62h.9l.18.62h.65l-.96-3.53ZM11.97,39.7l.29-1.31.29,1.31h-.59Z"/>
      <path class="cls-1" d="M17.18,40.94l-.77-1.34c.43-.14.61-.42.61-.95v-.18c0-.75-.4-1.06-1.25-1.06h-.89v3.53h.63v-1.24h.23l.7,1.24h.74ZM15.5,39.12v-1.12h.27c.49,0,.58.17.58.51v.12c0,.34-.13.5-.59.5h-.26Z"/>
      <path class="cls-1" d="M20.3,37.42h-2.09v.57h.73v2.95h.63v-2.95h.73v-.57Z"/>
      <path class="cls-1" d="M21.61,37.41v3.54h2.1v-.58h-1.46v-.93h1.19v-.57h-1.19v-.91h1.4v-.55h-2.03Z"/>
      <path class="cls-1" d="M27.37,37.42h-.63v.83l.07,1.49-1.04-2.32h-.63v3.53h.63v-.9l-.05-1.34,1.04,2.24h.61v-3.53Z"/>
      <path class="cls-1" d="M28.97,37.41v3.54h2.1v-.58h-1.46v-.93h1.19v-.57h-1.19v-.91h1.4v-.55h-2.03Z"/>
      <path class="cls-1" d="M34.82,40.94l-.78-1.34c.43-.14.61-.42.61-.95v-.18c0-.75-.4-1.06-1.25-1.06h-.89v3.53h.63v-1.24h.23l.7,1.24h.74ZM33.14,39.12v-1.12h.27c.49,0,.58.17.58.51v.12c0,.34-.13.5-.59.5h-.26Z"/>
      <rect class="cls-1" x="36.19" y="37.42" width=".64" height="3.53"/>
      <path class="cls-1" d="M39.75,37.42h-.63l-.98,3.53h.65l.18-.62h.9l.18.62h.65l-.96-3.53ZM39.14,39.7l.29-1.31.29,1.31h-.59Z"/>
      <path class="cls-1" d="M43.84,37.42h-2.09v.57h.73v2.95h.63v-2.95h.73v-.57Z"/>
      <path class="cls-1" d="M47.26,37.41v3.54h2.1v-.58h-1.46v-.93h1.19v-.57h-1.19v-.91h1.4v-.55h-2.03Z"/>
      <path class="cls-1" d="M52.46,39.86c0,.34-.18.55-.55.55s-.52-.22-.52-.55v-2.45h-.63v2.48c0,.73.41,1.08,1.16,1.08s1.19-.35,1.19-1.08v-2.48h-.63v2.45Z"/>
      <path class="cls-1" d="M56.98,40.94l-.78-1.34c.43-.14.61-.42.61-.95v-.18c0-.75-.4-1.06-1.25-1.06h-.89v3.53h.63v-1.24h.23l.7,1.24h.74ZM55.3,39.12v-1.12h.27c.49,0,.58.17.58.51v.12c0,.34-.13.5-.59.5h-.26Z"/>
      <path class="cls-1" d="M59.48,40.97c.84,0,1.21-.33,1.21-1.05v-1.49c0-.75-.35-1.06-1.21-1.06s-1.18.31-1.18,1.06v1.49c0,.73.34,1.05,1.18,1.05h0ZM59.48,40.41c-.46,0-.54-.19-.54-.53v-1.43c0-.32.09-.53.54-.53.49,0,.57.21.57.53v1.43c0,.33-.11.53-.57.53h0Z"/>
      <path class="cls-1" d="M62.25,37.41v3.53h.65v-1.08h.24c.84,0,1.25-.34,1.25-1.07v-.33c0-.75-.4-1.05-1.25-1.05h-.89ZM62.89,39.25v-1.26h.26c.49,0,.6.17.6.51v.26c0,.33-.15.49-.61.49h-.25Z"/>
      <path class="cls-1" d="M65.86,37.41v3.54h2.1v-.58h-1.46v-.93h1.19v-.57h-1.19v-.91h1.4v-.55h-2.03Z"/>
      <path class="cls-1" d="M70.73,37.42h-.63l-.98,3.53h.65l.18-.62h.9l.18.62h.65l-.96-3.53ZM70.11,39.7l.29-1.31.29,1.31h-.59Z"/>
      <path class="cls-1" d="M75.23,37.42h-.63v.83l.07,1.49-1.04-2.32h-.63v3.53h.63v-.9l-.06-1.34,1.04,2.24h.62v-3.53Z"/>
      <path class="cls-1" d="M78.93,37.41v3.53h.65v-1.08h.24c.84,0,1.25-.34,1.25-1.07v-.33c0-.75-.4-1.05-1.25-1.05h-.89ZM79.57,39.25v-1.26h.26c.49,0,.6.17.6.51v.26c0,.33-.15.49-.61.49h-.25Z"/>
      <path class="cls-1" d="M82.54,37.41v3.54h2.1v-.58h-1.46v-.93h1.19v-.57h-1.19v-.91h1.4v-.55h-2.03Z"/>
      <path class="cls-1" d="M88.3,37.42h-.63v.83l.07,1.49-1.03-2.32h-.63v3.53h.63v-.9l-.06-1.34,1.04,2.24h.62v-3.53Z"/>
      <path class="cls-1" d="M91.7,37.42h-2.09v.57h.73v2.95h.63v-2.95h.73v-.57Z"/>
      <path class="cls-1" d="M95.32,40.94l-.77-1.34c.43-.14.61-.42.61-.95v-.18c0-.75-.4-1.06-1.25-1.06h-.89v3.53h.63v-1.24h.23l.7,1.24h.74ZM93.64,39.12v-1.12h.27c.49,0,.58.17.58.51v.12c0,.34-.13.5-.59.5h-.26Z"/>
      <path class="cls-1" d="M98.36,39.86c0,.34-.18.55-.55.55s-.52-.22-.52-.55v-2.45h-.63v2.48c0,.73.41,1.08,1.16,1.08s1.19-.35,1.19-1.08v-2.48h-.63v2.45Z"/>
      <path class="cls-1" d="M103.8,40.97c.84,0,1.21-.33,1.21-1.05v-1.49c0-.75-.35-1.06-1.21-1.06s-1.18.31-1.18,1.06v1.49c0,.73.34,1.05,1.18,1.05h0ZM103.8,40.41c-.46,0-.54-.19-.54-.53v-1.43c0-.32.09-.53.54-.53.49,0,.57.21.57.53v1.43c0,.33-.11.53-.57.53h0Z"/>
      <path class="cls-1" d="M108.27,39.85c0,.35-.12.54-.57.54s-.55-.19-.55-.53v-1.37c0-.34.09-.53.55-.53.49,0,.57.19.57.54h.63c0-.78-.35-1.1-1.21-1.1s-1.18.31-1.18,1.05v1.44c0,.73.34,1.05,1.18,1.05s1.21-.33,1.21-1.1h-.63Z"/>
      <path class="cls-1" d="M112.05,39.86c0,.34-.18.55-.55.55s-.52-.22-.52-.55v-2.45h-.63v2.48c0,.73.41,1.08,1.15,1.08s1.19-.35,1.19-1.08v-2.48h-.63v2.45Z"/>
      <path class="cls-1" d="M114.26,37.41v3.53h.65v-1.08h.24c.84,0,1.25-.34,1.25-1.07v-.33c0-.75-.4-1.05-1.25-1.05h-.89ZM114.9,39.25v-1.26h.26c.49,0,.6.17.6.51v.26c0,.33-.15.49-.61.49h-.25Z"/>
      <path class="cls-1" d="M118.98,37.42h-.63l-.98,3.53h.65l.18-.62h.9l.18.62h.65l-.96-3.53ZM118.37,39.7l.29-1.31.29,1.31h-.59Z"/>
      <path class="cls-1" d="M123.57,40.94l-.77-1.34c.43-.14.61-.42.61-.95v-.18c0-.75-.4-1.06-1.25-1.06h-.89v3.53h.63v-1.24h.23l.7,1.24h.74ZM121.9,39.12v-1.12h.27c.49,0,.58.17.58.51v.12c0,.34-.13.5-.59.5h-.26Z"/>
      <path class="cls-1" d="M124.95,37.41v3.54h2.1v-.58h-1.46v-.93h1.19v-.57h-1.19v-.91h1.4v-.55h-2.03Z"/>
      <path class="cls-1" d="M132.12,38.33h.64c-.06-.71-.48-.94-1.12-.94-.72,0-1.13.34-1.13,1,0,.73.42.93.82.98.38.05.87.05.87.47s-.17.56-.55.56c-.4,0-.52-.15-.54-.42h-.64c0,.57.28,1,1.16,1s1.2-.35,1.2-1.16c0-.71-.39-.87-.8-.93-.54-.08-.89-.05-.89-.49,0-.34.14-.44.49-.44.31,0,.46.09.48.39h0ZM131.37,42.1c.47-.15.66-.43.62-.92h-.6c0,.3.07.45-.23.63l.21.29Z"/>
      <rect class="cls-1" x="134.32" y="37.42" width=".64" height="3.53"/>
      <path class="cls-1" d="M140.73,37.41h-2.07v3.54h.63v-1.5h1.22v-.57h-1.22v-.88h1.44v-.58Z"/>
      <path class="cls-1" d="M143.28,40.97c.84,0,1.21-.33,1.21-1.05v-1.49c0-.75-.35-1.06-1.21-1.06s-1.18.31-1.18,1.06v1.49c0,.73.34,1.05,1.18,1.05h0ZM143.28,40.41c-.46,0-.55-.19-.55-.53v-1.43c0-.32.09-.53.55-.53.49,0,.57.21.57.53v1.43c0,.33-.11.53-.57.53h0Z"/>
      <path class="cls-1" d="M148.35,40.94l-.77-1.34c.43-.14.61-.42.61-.95v-.18c0-.75-.4-1.06-1.25-1.06h-.89v3.53h.63v-1.24h.23l.7,1.24h.74ZM146.67,39.12v-1.12h.27c.49,0,.58.17.58.51v.12c0,.34-.13.5-.59.5h-.26Z"/>
      <path class="cls-1" d="M151.13,40.11l.7-1.42-.07,1.01v1.25h.63v-3.53h-.61l-.72,1.56-.72-1.56h-.61v3.53h.63v-1.25l-.07-1.01.7,1.42h.14Z"/>
      <path class="cls-1" d="M155.31,37.42h-.63l-.98,3.53h.65l.18-.62h.9l.18.62h.65l-.96-3.53ZM154.69,39.7l.29-1.31.29,1.31h-.59Z"/>
      <path class="cls-1" d="M159.89,40.94l-.77-1.34c.43-.14.61-.42.61-.95v-.18c0-.75-.4-1.06-1.25-1.06h-.89v3.53h.63v-1.24h.23l.7,1.24h.74ZM158.21,39.12v-1.12h.27c.49,0,.58.17.58.51v.12c0,.34-.13.5-.59.5h-.26Z"/>
      <path class="cls-1" d="M161.27,37.41v3.54h2.1v-.58h-1.46v-.93h1.19v-.57h-1.19v-.91h1.4v-.55h-2.03Z"/>
      <path class="cls-1" d="M0,16.21c0,10.12,8.15,16.12,16.34,16.12h10.71V15.52h-6v1.37h4.62v14.05h-9.34c-7.51,0-14.97-5.63-14.97-14.74S8.52,1.42,16.21,1.42c3.11,0,6.18,1.01,8.97,3.21l.82-1.14C22.89,1.1,19.55.05,16.21.05,7.87.05,0,6.69,0,16.21h0Z"/>
      <path class="cls-1" d="M28.71,32.32h1.42c.73-2.79,1.92-7.83,3.11-12.91h7.33l3.11,12.91h1.37L37.31.27h-.87c-.55,2.75-4.76,19.41-6.78,28.02l-.96,4.03ZM33.6,18.04c.87-3.53,1.7-6.87,2.29-9.43l1.01-4.21,1.01,4.12c.6,2.56,1.47,5.86,2.34,9.52h-6.64Z"/>
      <path class="cls-1" d="M48.07,30.95V.27h-1.37v32.05h12.77v-1.37h-11.4Z"/>
      <path class="cls-1" d="M86.07,26.05c1.6,3.62,5.54,6.27,9.52,6.27h.23c1.74,0,3.39-.46,4.95-1.33,1.65-.78,2.93-2.38,3.71-3.94.73-1.55,1.01-2.79,1.01-3.48,0-.09-.05-.23-.05-.32,0-.5-.04-1.01-.14-1.51-.73-3.71-4.3-6.41-7.83-7.37-1.97-.55-4.17-.64-5.95-1.7-1.83-1.1-2.84-3.02-2.98-4.16-.05-.6-.09-.96-.09-1.14,0-1.51.59-3.39,2.38-4.85,1.05-.87,2.38-1.28,4.08-1.28,2.93,0,6.09,1.6,6.23,4.9l1.37.14c0-3.62-3.16-5.82-6.46-6.18-.5-.04-.92-.09-1.42-.09-2.38,0-4.81,1.01-6.27,3.02-1.47,2.01-1.37,3.71-1.37,4.26,0,2.79,1.74,6.73,7.42,7.83,4.35.73,8.56,2.43,9.43,6.82.09.5.14,1.01.14,1.46,0,1.47-.5,3.34-2.15,4.99-1.6,1.65-3.94,2.65-6.32,2.65-1.24,0-2.42-.27-3.57-.82-3.48-1.51-5.17-5.54-5.17-7.46v-.82c0-.14,0-.28.05-.41l-1.37-.09c-.05.14-.05.32-.05.5v1.01c0,1.05.23,2.11.69,3.11h0Z"/>
      <path class="cls-1" d="M107.96,32.32h1.33V14.56h7.69v-1.37h-7.69V1.51h10.99V.14h-12.36l.04,32.19Z"/>
      <path class="cls-1" d="M132.54,29.03h1.37v-12.04h2.65l8.93,15.34h1.6l-8.97-15.48c3.62-.6,7.33-2.79,7.33-8.15,0-6.73-4.39-8.43-9.38-8.43h-3.53v28.75ZM136.07,1.65c3.52,0,8.01,1.33,8.01,7.05,0,4.81-3.25,6.91-8.01,6.91h-2.15V1.65h2.15ZM121.97,32.32h12.73v-1.37h-11.4v-13.74h6.69v-1.37h-6.69V1.51h6.69l-.05-1.37h-8.01l.05,32.19Z"/>
      <path class="cls-1" d="M147.56,32.32h1.42c.73-2.79,1.92-7.83,3.11-12.91h7.33l3.11,12.91h1.37L156.17.27h-.87c-.55,2.75-4.76,19.41-6.77,28.02l-.96,4.03ZM152.46,18.04c.87-3.53,1.69-6.87,2.29-9.43l1.01-4.21,1.01,4.12c.6,2.56,1.47,5.86,2.34,9.52h-6.64Z"/>
      <path class="cls-1" d="M52.38,9.94C54.85,4.17,60.48.05,67.21.05c8.97,0,16.16,7.19,16.16,16.16s-7.19,16.12-16.16,16.12-16.12-7.14-16.12-16.12c0-2.24.41-4.35,1.28-6.27h0ZM67.21,9.55l-2.22-2.16c-2.77-2.26-6.91-2.1-9.48.47-2.56,2.56-2.73,6.7-.48,9.47l2.3,2.38c-.1.25-.15.52-.15.79,0,.59.23,1.15.65,1.56.05.06.11.11.17.15,0,0,.02.01.02.02.05.04.11.08.16.12,0,0,0,0,.01,0,.06.04.12.07.18.11,0,0,0,0,0,0,.07.03.13.06.2.09,0,0,.01,0,.02,0,.06.02.13.05.2.07.01,0,.02,0,.03,0,.06.02.12.03.18.04.02,0,.04,0,.06.01.05,0,.1.01.15.02.03,0,.06,0,.09,0,.03,0,.05,0,.08,0,.01,0,.03,0,.04,0h.04s0,.06,0,.09c0,.59.23,1.14.65,1.56.06.05.11.1.17.15,0,0,.01,0,.02.01.05.04.11.09.17.12.19.12.4.22.61.28,0,0,.01,0,.01,0,.07.02.13.03.2.04.02,0,.03,0,.05,0,.06.01.11.02.16.02.03,0,.05,0,.08,0,.03,0,.06,0,.09,0,.02,0,.03,0,.05,0h.04s0,.06,0,.09c0,.14.01.28.04.42,0,.03.01.06.02.1.04.18.11.36.2.53.1.19.23.37.39.52,0,0,.01.01.02.02.05.05.1.09.15.13,0,0,.02.01.03.02.05.04.1.08.16.12,0,0,0,0,.01,0,.12.08.26.15.39.2h0c.07.03.14.05.21.07,0,0,.01,0,.02,0,.07.02.13.03.2.04.02,0,.03,0,.05,0,.05,0,.11.01.16.02.03,0,.05,0,.08,0,.03,0,.06,0,.09,0,.02,0,.03,0,.05,0,0,0,.01,0,.02,0h.02v.04s0,.08,0,.12c0,.03,0,.07,0,.1,0,.04,0,.08.01.12,0,.03,0,.07.01.1,0,.04.02.08.02.12,0,.03.01.06.02.1.01.04.03.08.04.12.01.03.02.06.03.09.01.04.03.08.05.12.01.03.03.06.04.09.02.04.04.08.07.12.01.03.03.05.04.08.03.04.06.08.09.12.02.02.03.04.05.06.05.06.1.12.15.17.43.43,1,.65,1.56.65.32,0,.63-.07.92-.2.29.14.61.21.94.21.59,0,1.15-.23,1.56-.65s.65-.97.65-1.56c0-.03,0-.06,0-.09.6.02,1.2-.19,1.65-.64.33-.33.53-.74.61-1.17.03-.16.04-.32.03-.48.16,0,.33,0,.49-.03.43-.08.84-.28,1.17-.61.33-.33.53-.74.61-1.17.03-.16.04-.32.03-.48.16,0,.32,0,.48-.04.44-.08.85-.29,1.17-.61.42-.42.65-.97.65-1.56,0-.28-.05-.55-.15-.8l2.33-2.39c2.25-2.77,2.07-6.89-.49-9.46-2.57-2.57-6.7-2.73-9.47-.48l-2.26,2.16ZM75.31,21.5c-.35.09-.73,0-.99-.26l-4.61-4.61c-.23-.23-.6-.23-.83,0-.23.23-.23.6,0,.83l4.61,4.61c.26.27.35.64.27.98-.04.18-.13.35-.27.49-.14.14-.31.23-.49.27-.33.08-.68,0-.94-.24l-4.65-4.65c-.23-.23-.6-.23-.83,0-.23.23-.23.6,0,.83l4.61,4.62c.27.26.35.64.27.98h0c-.04.18-.13.35-.27.49-.14.14-.31.23-.49.27-.29.07-.6.02-.85-.16,0-.19-.04-.38-.09-.56,0,0,0-.02-.01-.03-.02-.07-.05-.13-.07-.2-.01-.02-.02-.05-.04-.08-.02-.05-.05-.1-.08-.15-.02-.03-.03-.05-.05-.08-.03-.05-.06-.1-.1-.14-.02-.02-.03-.04-.05-.07-.05-.06-.11-.13-.16-.19-.42-.42-.97-.65-1.56-.65-.03,0-.06,0-.09,0,0,0,0-.02,0-.02v-.02s0-.08,0-.12c0-.03,0-.07,0-.1,0-.04,0-.08-.01-.12,0-.03,0-.07-.01-.1,0-.04-.02-.07-.02-.11,0-.03-.02-.07-.02-.1,0-.04-.02-.08-.04-.11,0-.03-.02-.07-.03-.1-.02-.04-.03-.08-.05-.11-.01-.03-.03-.06-.04-.09-.02-.04-.04-.07-.06-.11-.02-.03-.03-.06-.05-.08-.02-.04-.05-.08-.08-.11-.02-.02-.03-.05-.05-.07-.04-.05-.08-.1-.13-.14,0,0-.02-.02-.03-.03-.05-.06-.11-.11-.17-.15-.03-.02-.06-.04-.09-.07-.03-.02-.06-.05-.09-.07-.04-.03-.08-.05-.12-.07-.02-.01-.04-.03-.07-.04-.05-.02-.1-.05-.15-.07-.02,0-.03-.01-.05-.02-.05-.02-.11-.04-.16-.06-.01,0-.03,0-.04-.01-.06-.02-.11-.03-.16-.04-.02,0-.03,0-.05-.01-.05,0-.1-.02-.16-.02-.02,0-.04,0-.07,0-.04,0-.09,0-.13,0-.03,0-.07,0-.1,0h-.02s-.02,0-.02,0v-.04s0-.08,0-.12c0-.03,0-.07,0-.1,0-.04,0-.08-.01-.12,0-.03,0-.07-.01-.1,0-.04-.02-.08-.03-.12,0-.03-.01-.06-.02-.09-.01-.04-.02-.08-.04-.12,0-.03-.02-.06-.03-.09-.02-.04-.03-.08-.05-.12-.01-.03-.02-.05-.04-.08-.02-.04-.05-.08-.07-.12-.02-.02-.03-.05-.04-.07-.03-.04-.06-.09-.09-.13-.01-.02-.03-.04-.04-.06-.05-.06-.1-.12-.16-.17-.05-.05-.11-.11-.17-.15-.02-.02-.04-.03-.05-.04-.04-.03-.09-.07-.13-.09-.02-.01-.04-.03-.07-.04-.04-.02-.08-.05-.13-.07-.02-.01-.05-.02-.07-.03-.04-.02-.09-.04-.13-.06-.02,0-.05-.02-.07-.02-.05-.02-.09-.03-.14-.04-.02,0-.05-.01-.08-.02-.04-.01-.09-.02-.14-.03-.02,0-.05,0-.08-.01-.04,0-.09,0-.14-.01-.03,0-.06,0-.09,0-.04,0-.09,0-.13,0h-.04s0-.06,0-.09c0-.59-.23-1.14-.65-1.56-.06-.06-.12-.11-.19-.16-.02-.02-.04-.03-.06-.05-.05-.03-.09-.07-.14-.1-.02-.02-.05-.03-.07-.04-.05-.03-.1-.06-.15-.08-.02-.01-.05-.02-.07-.03-.07-.03-.14-.06-.22-.08,0,0,0,0-.01,0-.21-.06-.42-.1-.65-.1-.59,0-1.15.23-1.56.65l-1.16,1.17-1.77-1.8c-2.21-2.3-2.17-6,.08-8.26,2.25-2.25,5.96-2.29,8.26-.08l1.78,1.77-2.17,2.17c-.06.06-.11.12-.16.19-.47.59-.59,1.35-.38,2.04.1.33.28.64.54.9.42.42.97.65,1.56.65s1.15-.23,1.56-.65l2.17-2.17,6.27,6.27c.2.2.3.46.3.73,0,.09-.01.17-.03.25-.04.18-.13.35-.27.49-.13.13-.3.22-.48.26h0ZM69.51,11.84l-3,3c-.4.4-1.06.4-1.47,0-.37-.37-.4-.94-.1-1.35l.41-.41,4.5-4.47c2.3-2.21,6-2.17,8.26.08,2.25,2.25,2.29,5.96.08,8.26l-1.79,1.79-6.9-6.89ZM58.41,20.78c-.02-.09-.04-.18-.04-.27,0-.28.11-.54.3-.73l1.36-1.36c.39-.39,1.08-.39,1.47,0,.19.2.3.46.3.73s-.11.54-.3.73l-1.36,1.36c-.27.27-.66.35-1.02.25-.16-.04-.32-.13-.45-.25-.13-.13-.22-.29-.26-.46h0ZM60.71,23.07c-.02-.09-.04-.18-.04-.27,0-.28.11-.54.3-.73l1.36-1.36c.05-.05.11-.1.17-.13.05-.03.1-.05.15-.08.02,0,.03-.01.05-.02.04-.01.07-.03.11-.04.02,0,.04,0,.05-.01.04,0,.07-.01.11-.02.02,0,.04,0,.05,0,.03,0,.06,0,.09,0,.04,0,.07,0,.11,0,.03,0,.05,0,.08.01.04,0,.07.02.11.03.02,0,.05.02.07.03.04.02.07.04.11.06.02.01.04.02.06.03.05.03.1.07.15.12,0,0,0,0,0,0,.23.23.33.54.3.83-.01.1-.03.2-.07.29-.05.13-.13.24-.23.34l-1.36,1.36c-.27.27-.67.35-1.02.25-.17-.05-.32-.13-.45-.25-.13-.13-.22-.29-.26-.46h0ZM63.27,25.83c-.13-.13-.22-.29-.26-.46-.02-.09-.04-.18-.04-.27,0-.28.11-.54.3-.73l1.36-1.36s.09-.08.14-.12c.02-.01.03-.02.05-.03.04-.02.08-.04.11-.06.02-.01.04-.02.06-.03.05-.02.1-.03.15-.04.03,0,.06,0,.08-.01.03,0,.06,0,.09,0,.03,0,.07,0,.1,0,.02,0,.04,0,.06,0,.03,0,.06,0,.09.01.05,0,.1.02.15.04.14.05.26.13.37.24.2.2.3.47.3.73s-.1.53-.3.73l-1.36,1.36s-.1.09-.16.13c-.17.11-.37.16-.58.16-.1,0-.19-.02-.28-.04-.04,0-.07-.02-.11-.03-.13-.05-.24-.12-.34-.22h0ZM65.43,27.96c-.06-.09-.1-.19-.13-.29-.1-.35-.01-.74.26-1.01l1.36-1.36c.39-.39,1.07-.39,1.47,0,.2.2.3.46.3.73s-.11.54-.3.73l-1.36,1.36c-.27.27-.66.36-1.01.26-.17-.05-.33-.13-.46-.26-.05-.05-.09-.11-.13-.16h0Z"/>
    </g>
  </g>
</svg>