<?xml version="1.0" encoding="UTF-8"?>
<svg id="Layer_2" xmlns="http://www.w3.org/2000/svg" viewBox="0 0 23.34 23.34">
  <defs>
    <style>
      .cls-1 {
        fill: none;
        stroke: #fff;
        stroke-linecap: round;
        stroke-linejoin: round;
        stroke-width: 2.12px;
      }
    </style>
  </defs>
  <g id="Layer_1-2" data-name="Layer_1">
    <path class="cls-1" d="M15.91,4.24l2.12,2.12,4.24-4.24M22.28,11.67v5.52c0,1.78,0,2.67-.35,3.35-.31.6-.79,1.09-1.39,1.39-.68.35-1.57.35-3.35.35H6.15c-1.78,0-2.67,0-3.35-.35-.6-.31-1.09-.79-1.39-1.39-.35-.68-.35-1.57-.35-3.35V6.15c0-1.78,0-2.67.35-3.35.31-.6.79-1.09,1.39-1.39.68-.35,1.57-.35,3.35-.35h5.52M1.22,20.08c.5-1.79,2.14-3.1,4.09-3.1h7.43c.99,0,1.48,0,1.89.08,1.68.33,3,1.65,3.33,3.33.08.41.08.9.08,1.89M13.79,9.02c0,2.34-1.9,4.24-4.24,4.24s-4.24-1.9-4.24-4.24,1.9-4.24,4.24-4.24,4.24,1.9,4.24,4.24Z"/>
  </g>
</svg>