<?xml version="1.0" encoding="UTF-8"?>
<svg xmlns="http://www.w3.org/2000/svg" xmlns:xlink="http://www.w3.org/1999/xlink" viewBox="0 0 208 207">
  <defs>
    <style>
      .cls-1 {
        fill: url(#_Áåçûìÿííûé_ãðàäèåíò_49);
      }

      .cls-2 {
        fill: url(#_Áåçûìÿííûé_ãðàäèåíò_12-3);
      }

      .cls-3, .cls-4 {
        fill: #fff;
      }

      .cls-5 {
        fill: url(#_Áåçûìÿííûé_ãðàäèåíò_18);
      }

      .cls-5, .cls-6 {
        mix-blend-mode: screen;
      }

      .cls-7 {
        fill: url(#_Áåçûìÿííûé_ãðàäèåíò_6-3);
      }

      .cls-8 {
        fill: url(#_Áåçûìÿííûé_ãðàäèåíò_37);
      }

      .cls-9 {
        fill: #eefdff;
      }

      .cls-10 {
        fill: url(#_Áåçûìÿííûé_ãðàäèåíò_38);
      }

      .cls-11 {
        fill: url(#_Áåçûìÿííûé_ãðàäèåíò_12);
      }

      .cls-12 {
        isolation: isolate;
      }

      .cls-13 {
        fill: url(#_Áåçûìÿííûé_ãðàäèåíò_12-2);
      }

      .cls-6 {
        fill: url(#_Áåçûìÿííûé_ãðàäèåíò_18-2);
      }

      .cls-14 {
        fill: url(#_Áåçûìÿííûé_ãðàäèåíò_6-2);
      }

      .cls-15 {
        fill: url(#_Áåçûìÿííûé_ãðàäèåíò_37-2);
      }

      .cls-16 {
        fill: url(#_Áåçûìÿííûé_ãðàäèåíò_6);
      }

      .cls-17 {
        fill: url(#_Áåçûìÿííûé_ãðàäèåíò_6-4);
      }

      .cls-18 {
        fill: url(#linear-gradient);
      }

      .cls-4 {
        filter: url(#outer-glow-1);
      }
    </style>
    <filter id="outer-glow-1" x="0" y="0" width="208" height="207" filterUnits="userSpaceOnUse">
      <feOffset dx="0" dy="0"/>
      <feGaussianBlur result="blur" stdDeviation="20.45"/>
      <feFlood flood-color="#6ceaff" flood-opacity=".75"/>
      <feComposite in2="blur" operator="in"/>
      <feComposite in="SourceGraphic"/>
    </filter>
    <linearGradient id="_Áåçûìÿííûé_ãðàäèåíò_37" data-name="Áåçûìÿííûé ãðàäèåíò 37" x1="-4193.35" y1="-5353.43" x2="-4171.59" y2="-5375.76" gradientTransform="translate(-4762.82 4880.31) rotate(83.59)" gradientUnits="userSpaceOnUse">
      <stop offset=".04" stop-color="#06bed8"/>
      <stop offset="1" stop-color="#defa8e"/>
    </linearGradient>
    <linearGradient id="_Áåçûìÿííûé_ãðàäèåíò_6" data-name="Áåçûìÿííûé ãðàäèåíò 6" x1="101.05" y1="73.55" x2="105.1" y2="72.96" gradientUnits="userSpaceOnUse">
      <stop offset=".04" stop-color="#06cff1"/>
      <stop offset="1" stop-color="#defa8e"/>
    </linearGradient>
    <linearGradient id="_Áåçûìÿííûé_ãðàäèåíò_6-2" data-name="Áåçûìÿííûé ãðàäèåíò 6" x1="100.01" y1="83.84" x2="107.21" y2="75.72" xlink:href="#_Áåçûìÿííûé_ãðàäèåíò_6"/>
    <linearGradient id="linear-gradient" x1="89.59" y1="111.98" x2="118.1" y2="83.47" gradientUnits="userSpaceOnUse">
      <stop offset=".04" stop-color="#2ae4ff"/>
      <stop offset="1" stop-color="#defa8e"/>
    </linearGradient>
    <linearGradient id="_Áåçûìÿííûé_ãðàäèåíò_12" data-name="Áåçûìÿííûé ãðàäèåíò 12" x1="103.73" y1="101.32" x2="103.98" y2="89.91" gradientUnits="userSpaceOnUse">
      <stop offset="0" stop-color="#030d14"/>
      <stop offset="1" stop-color="#0b2f45"/>
    </linearGradient>
    <radialGradient id="_Áåçûìÿííûé_ãðàäèåíò_18" data-name="Áåçûìÿííûé ãðàäèåíò 18" cx="97.11" cy="95.53" fx="97.11" fy="95.53" r="4.74" gradientUnits="userSpaceOnUse">
      <stop offset=".13" stop-color="#3280fc"/>
      <stop offset="1" stop-color="#000"/>
    </radialGradient>
    <linearGradient id="_Áåçûìÿííûé_ãðàäèåíò_12-2" data-name="Áåçûìÿííûé ãðàäèåíò 12" x1="94.22" y1="95.53" x2="100" y2="95.53" xlink:href="#_Áåçûìÿííûé_ãðàäèåíò_12"/>
    <radialGradient id="_Áåçûìÿííûé_ãðàäèåíò_18-2" data-name="Áåçûìÿííûé ãðàäèåíò 18" cx="110.05" fx="110.05" r="4.74" xlink:href="#_Áåçûìÿííûé_ãðàäèåíò_18"/>
    <linearGradient id="_Áåçûìÿííûé_ãðàäèåíò_12-3" data-name="Áåçûìÿííûé ãðàäèåíò 12" x1="107.16" y1="95.53" x2="112.93" y2="95.53" xlink:href="#_Áåçûìÿííûé_ãðàäèåíò_12"/>
    <linearGradient id="_Áåçûìÿííûé_ãðàäèåíò_6-3" data-name="Áåçûìÿííûé ãðàäèåíò 6" x1="100.16" y1="68.65" x2="105.52" y2="67.87" xlink:href="#_Áåçûìÿííûé_ãðàäèåíò_6"/>
    <linearGradient id="_Áåçûìÿííûé_ãðàäèåíò_49" data-name="Áåçûìÿííûé ãðàäèåíò 49" x1="95.83" y1="130.8" x2="117.7" y2="105.26" gradientUnits="userSpaceOnUse">
      <stop offset=".04" stop-color="#06cff1"/>
      <stop offset=".04" stop-color="#06cff0"/>
      <stop offset=".16" stop-color="#36d8da"/>
      <stop offset=".27" stop-color="#5ce0c9"/>
      <stop offset=".38" stop-color="#77e5bd"/>
      <stop offset=".47" stop-color="#88e8b5"/>
      <stop offset=".54" stop-color="#8eeab3"/>
      <stop offset=".8" stop-color="#b9f29e"/>
      <stop offset="1" stop-color="#defa8e"/>
    </linearGradient>
    <linearGradient id="_Áåçûìÿííûé_ãðàäèåíò_6-4" data-name="Áåçûìÿííûé ãðàäèåíò 6" x1="94.67" y1="118.06" x2="107.83" y2="102.7" xlink:href="#_Áåçûìÿííûé_ãðàäèåíò_6"/>
    <linearGradient id="_Áåçûìÿííûé_ãðàäèåíò_38" data-name="Áåçûìÿííûé ãðàäèåíò 38" x1="-9997.53" y1="-626.28" x2="-9979.54" y2="-635.66" gradientTransform="translate(-9854.88 -758.5) rotate(-171.34) scale(1 -1)" gradientUnits="userSpaceOnUse">
      <stop offset=".04" stop-color="#06cff1"/>
      <stop offset=".07" stop-color="#0fd0ec"/>
      <stop offset=".42" stop-color="#66e2c4"/>
      <stop offset=".69" stop-color="#a7efa7"/>
      <stop offset=".9" stop-color="#cef694"/>
      <stop offset="1" stop-color="#defa8e"/>
    </linearGradient>
    <linearGradient id="_Áåçûìÿííûé_ãðàäèåíò_37-2" data-name="Áåçûìÿííûé ãðàäèåíò 37" x1="108.5" y1="125.82" x2="120.11" y2="119.77" gradientTransform="matrix(1,0,0,1,0,0)" xlink:href="#_Áåçûìÿííûé_ãðàäèåíò_37"/>
  </defs>
  <g class="cls-12">
    <g id="Layer_2" data-name="Layer 2">
      <g id="Layer_1-2" data-name="Layer 1">
        <g>
          <circle class="cls-4" cx="103.91" cy="103.23" r="41.88"/>
          <g>
            <path class="cls-8" d="M84.87,111.39c6.35,1.74,7.85,1.25,8.98,2.95.13.2.79,1.19.66,2.48-.11,1.02-.67,1.81-1.03,2.16-2.18,2.11-8.16-.47-11.59-3.29-.75-.61-2.75-2.26-2.35-3.43.17-.48.68-.72,1.05-.88,1.63-.73,3.32-.25,4.28.02Z"/>
            <rect class="cls-16" x="103.13" y="68.71" width="1.35" height="8.87"/>
            <rect class="cls-14" x="97.89" y="76.65" width="11.83" height="5.83" rx="1.25" ry="1.25"/>
            <path class="cls-18" d="M100,79.44h7.6c9.58,0,17.36,7.78,17.36,17.36v5.07c0,5.38-4.37,9.76-9.76,9.76h-22.81c-5.38,0-9.76-4.37-9.76-9.76v-5.07c0-9.58,7.78-17.36,17.36-17.36Z"/>
            <path class="cls-11" d="M118.31,100.94h0c-.55.27-1.17.42-1.81.42h-25.39c-.63,0-1.25-.14-1.81-.42h0c-1.36-.67-2.13-2.03-1.94-3.42v-.1c.66-4.72,4.94-8.34,10.17-8.62,2.22-.12,4.54-.17,6.97-.16,1.9.01,3.74.07,5.51.16,5.26.27,9.56,3.88,10.21,8.62,0,.03,0,.07.01.1.19,1.39-.58,2.75-1.94,3.42Z"/>
            <g>
              <circle class="cls-5" cx="97.11" cy="95.53" r="4.79"/>
              <circle class="cls-9" cx="97.11" cy="95.53" r="3.44"/>
              <circle class="cls-13" cx="97.11" cy="95.53" r="2.89"/>
              <path class="cls-9" d="M98.96,94.78c0,.59-.48,1.07-1.07,1.07s-1.07-.48-1.07-1.07.48-1.07,1.07-1.07,1.07.48,1.07,1.07Z"/>
              <circle class="cls-9" cx="96.68" cy="97.74" r=".43"/>
              <path class="cls-9" d="M95.62,97.1c0,.12-.1.21-.21.21s-.21-.1-.21-.21.1-.21.21-.21.21.1.21.21Z"/>
            </g>
            <g>
              <circle class="cls-6" cx="110.05" cy="95.53" r="4.79"/>
              <circle class="cls-9" cx="110.05" cy="95.53" r="3.44"/>
              <circle class="cls-2" cx="110.05" cy="95.53" r="2.89"/>
              <path class="cls-9" d="M111.9,94.78c0,.59-.48,1.07-1.07,1.07s-1.07-.48-1.07-1.07.48-1.07,1.07-1.07,1.07.48,1.07,1.07Z"/>
              <circle class="cls-9" cx="109.62" cy="97.74" r=".43"/>
              <path class="cls-9" d="M108.56,97.1c0,.12-.1.21-.21.21s-.21-.1-.21-.21.1-.21.21-.21.21.1.21.21Z"/>
            </g>
            <path class="cls-7" d="M105.53,68.12c0,.96-.78,1.73-1.73,1.73s-1.73-.78-1.73-1.73.78-1.73,1.73-1.73,1.73.78,1.73,1.73Z"/>
            <path class="cls-3" d="M105.01,67.44c0,.29-.24.53-.53.53s-.53-.24-.53-.53.24-.53.53-.53.53.24.53.53Z"/>
            <path class="cls-3" d="M118.71,84.99c.02.81-.64,1.78-1.39,1.86-.71.08-1.27-.65-1.86-1.39-.58-.74-1.83-2.63-1.33-3.16.66-.71,4.53.79,4.58,2.7Z"/>
            <circle class="cls-3" cx="112.24" cy="81.31" r=".6"/>
            <path class="cls-3" d="M118.63,96.2c-.19.14-1.54-2.61-5.15-4.98-1.27-.84-2.52-1.43-2.45-1.6.08-.18,1.49.15,2.62.68,3.6,1.67,5.21,5.75,4.98,5.91Z"/>
            <path class="cls-3" d="M109.37,78.38s-.07-.25-.28-.64c0,0-.1-.18-.21-.34-.36-.5-1.59-.49-1.69-.49-1.92.02-3.15-.1-3.15-.09,0,0,.9,0,1.56-.02,1.86-.04,2.96-.14,3.44.36.2.21.3.48.3.48.13.36.09.74.04.74Z"/>
            <path class="cls-9" d="M108.98,103.41c-.05.46-.43.81-.89.86l-6.34.61c-.46.04-.9-.23-1.03-.67-.06-.2-.11-.4-.14-.61,0-.06,0-.12.04-.16.04-.05.09-.07.15-.08l8-.77c.06,0,.11.01.16.05.04.04.07.09.07.15,0,.21,0,.42-.02.62Z"/>
            <path class="cls-9" d="M108.98,103.41c-.2,1.97-1.77,3.58-3.81,3.78-2.01.2-3.83-1.05-4.43-2.9.16.4.58.64,1.01.59l6.35-.61c.46-.05.84-.4.89-.86Z"/>
            <path class="cls-1" d="M118.97,117.66c0,.06,0,.11,0,.17-.02.53-.14.93-.21,1.11-1.75,5.33-2.79,8.15-4.26,10.42-.25.39-.52.77-.81,1.14-.38.49-.79.98-1.24,1.47-1.01,1.1-2.55,1.6-3.04,1.77-1.81.64-3.4.52-4.46.53h-.18c-1.06-.01-2.66.11-4.46-.53-.49-.17-2.03-.67-3.04-1.77-2.79-3.03-3.86-5.55-6.31-13.03-.06-.17-.17-.54-.2-1.04,0-.14-.01-.29,0-.43.05-.89.42-1.77,1.06-2.57,1.1-1.37,2.81-2.13,4.57-2.13l8.49-.04,8.33-.03c1.8,0,3.54.75,4.69,2.14.55.67.9,1.4,1.03,2.15.02.11.03.22.04.32.01.12.02.24.02.36Z"/>
            <path class="cls-17" d="M104.86,112.72l-8.49.04c-1.76,0-3.46.76-4.57,2.13-.64.8-1.01,1.68-1.06,2.57.04-.92.42-1.82,1.09-2.64,1.14-1.39,2.89-2.15,4.69-2.14l8.33.03Z"/>
            <path class="cls-10" d="M113.29,125.22c-.12-6.58-1.01-7.88.3-9.45.15-.18.92-1.1,2.19-1.33,1.01-.19,1.93.14,2.36.38,2.63,1.49,1.85,7.96.12,12.05-.38.89-1.39,3.28-2.63,3.22-.51-.02-.88-.45-1.14-.76-1.16-1.36-1.17-3.12-1.19-4.11Z"/>
            <path class="cls-15" d="M114.5,129.36c-.25.39-.52.77-.81,1.14-.09-.09-.17-.19-.25-.27-1.16-1.36-1.17-3.12-1.19-4.11-.12-6.58-1.02-7.88.3-9.45.1-.12.45-.53,1.02-.88-1.3,1.56-.41,2.87-.29,9.44.02.99.03,2.75,1.19,4.11,0,0,.02.02.02.03Z"/>
          </g>
        </g>
      </g>
    </g>
  </g>
</svg>