<?xml version="1.0" encoding="UTF-8"?>
<svg id="Layer_2" data-name="Layer 2" xmlns="http://www.w3.org/2000/svg" xmlns:xlink="http://www.w3.org/1999/xlink" viewBox="0 0 728.41 68.13">
  <defs>
    <style>
      .cls-1 {
        fill: #fff;
      }

      .cls-1, .cls-2 {
        fill-rule: evenodd;
      }

      .cls-3 {
        fill: none;
      }

      .cls-2 {
        fill: #004b8b;
      }
    </style>
  </defs>
  <g id="Layer_1-2" data-name="Layer 1">
    <g>
      <image width="491" height="103" transform="translate(0 8.95) scale(.46)" xlink:href="../../images.png"/>
      <g id="g3067">
        <g id="g4">
          <g id="g6">
            <path id="path8" class="cls-3" d="M691.1,31.13h5.87v5.87h-5.87v-5.87Z"/>
            <g id="g10">
              <path id="path12" class="cls-1" d="M722.63,15.11c10.53,15.6,6.28,36.84-9.47,47.28-15.75,10.44-37.19,6.23-47.72-9.38-10.54-15.61-6.28-36.85,9.47-47.28,15.75-10.44,37.19-6.22,47.72,9.38Z"/>
              <path id="path14" class="cls-2" d="M722.03,15.69c10.29,15.24,6.13,35.98-9.24,46.17-15.38,10.19-36.31,6.08-46.6-9.16-10.29-15.24-6.13-35.98,9.24-46.17,15.38-10.19,36.31-6.08,46.6,9.16Z"/>
              <path id="path16" class="cls-1" d="M711.72,60.26c-14.6,9.68-34.36,5.79-44.12-8.67-9.76-14.47-5.84-34.04,8.75-43.72,14.6-9.67,34.36-5.79,44.12,8.67,9.76,14.46,5.85,34.04-8.75,43.72ZM721.21,16.06c-10.01-14.83-30.38-18.83-45.35-8.91-14.97,9.92-19.01,30.1-9,44.93,10.01,14.83,30.38,18.83,45.35,8.91,14.97-9.92,19.01-30.1,9-44.93Z"/>
              <path id="path18" class="cls-1" d="M705,50.31c-9.05,6-21.31,3.59-27.36-5.38-6.05-8.97-3.62-21.11,5.43-27.11,9.05-6,21.31-3.59,27.36,5.38,6.06,8.97,3.62,21.11-5.43,27.11ZM711.19,22.7c-6.34-9.38-19.15-11.9-28.62-5.63-9.47,6.28-12.01,18.98-5.68,28.36,6.34,9.38,19.15,11.9,28.62,5.63,9.47-6.28,12.01-18.98,5.68-28.36h0Z"/>
              <path id="path20" class="cls-1" d="M668.28,32.31c.7,0,1.26.56,1.26,1.25s-.56,1.25-1.26,1.25-1.26-.56-1.26-1.25.56-1.25,1.26-1.25Z"/>
              <path id="path22" class="cls-1" d="M719.65,32.31c.69,0,1.26.56,1.26,1.25s-.56,1.25-1.26,1.25-1.26-.56-1.26-1.25.56-1.25,1.26-1.25Z"/>
              <path id="path24" class="cls-1" d="M696.62,33.19l-.06.03.02.07h-.08s-.02.08-.02.08l-.09-.04-.08.06-.06-.05-.08.04-.02-.08h-.09s0-.07,0-.07l-.08-.02.02-.08-.08-.05.07-.05-.03-.07.07-.04v-.07h.08s.02-.08.02-.08l.09.03.06-.06.06.06.08-.03.02.07h.08s0,.08,0,.08l.09.02-.02.08.07.05-.07.05.02.06h0ZM698.74,33.23c.02.24-.57.26-.6-.14.01-.41.59-.41.59-.18-.18-.03-.27.05-.27.18,0,.1.1.18.28.14ZM687.85,32.55h6.14l.02-.02-.02-5.68h6.27v5.69s-6.05,0-6.05,0h0c.33,1.17.65,2.14.96,2.97h1.98s0-.31,0-.31c-.1.14-.24.11-.32-.04-.12.12-.25.09-.3-.06-.11.12-.27.1-.32-.08-.06.2-.16.32-.41.31-.23.07-.3.06-.36,0-.19.07-.24.07-.31.03l.44-1.46c.08-.27.26-.4.62-.34.32.06.31.37.23.58.24.04.4.05.66.06.01,0,.02,0,.03,0-.01,0-.03,0-.04,0,.11-.09.13-.14.18-.24h-.11c.12-.1.14-.13.19-.23-.09.06-.38.23-.48.06,0-.03.31-.05.33-.12-.01-.01,0-.02-.01-.04-.14-.05-.24-.02-.35.02-.04-.17.06-.24.38-.23h0c.68-.2.52.03.74.37-.05,0-.09-.01-.13-.01.06.1.07.14.15.22-.06-.02-.1-.03-.14-.03.04.1.06.13.12.21-.01,0-.03,0-.04.01,0,0,.02,0,.03,0,.19-.04.3-.06.42-.11-.09-.21-.11-.46.24-.55.25-.06.44.06.53.22l.8,1.57c-.03.06-.1.06-.35,0-.08.05-.13.05-.33-.03-.18.03-.28,0-.43-.31-.03.16-.13.19-.28.07-.04.17-.17.2-.28.05-.03.16-.15.19-.28.08l.03.32h2.26v.46h0v1.12c-.02,1.3-1.99,1.86-3.03,2.26-1.13-1.14-2.11-2.89-3.23-6.77-.37,1.29-.72,2.34-1.06,3.21l-.28.03v-.28h-.18c.11-.24.08-.34.12-.53.03-.13.15-.11.16-.03.09-.11-.05-.26-.19-.13-.05-.1-.06-.12-.02-.21.06-.05.18-.05.18.06.13-.08-.05-.41-.29-.14-.04-.06-.06-.11-.06-.16.08-.09.15-.08.16.01.13-.1-.08-.31-.24-.14-.14-.25-.25-.86.11-.95.21-.05.33.04.43.18.02.06.07.16-.04.2.02.04.05.06.1.08-.16.11.08.36.08.49.05-.07.07-.12.05-.19.03.03.03.05.04.09.07-.09,0-.16-.02-.22.04.03.05.05.07.09.04-.18.02-.21-.04-.27.06,0,.06-.05.09-.09-.17-.02-.26-.38-.49-.47-.64-.19-.81.4-.63.93.07.22.24.57.3.79.04.14.04.33-.09.62h-.2v.28h-.28c-.43-.38-.57-.75-.84-1.04.09.06.21.14.37.15-.06-.1-.13-.14-.13-.25.14.15.34.14.45.11-.15-.12-.24-.19-.25-.46.13.1.17.16.25.24.13-.24.06-.36-.06-.53.11.08.09.03.2.06-.04-.11-.02-.12-.12-.21.1.04.06,0,.15,0-.04-.08-.01-.12-.14-.2.09,0,.09-.04.13-.09-.3-.09-.12-.2-.45-.31.1-.15-.13-.25-.2-.1-.06-.03-.06-.04-.11-.06.03-.21-.26-.19-.22,0-.16.05-.21.06-.32.12-.01.03-.02.07-.01.12-.14.07-.19.1-.35.15-.07,0-.08.06,0,.06,0,.04.02.17.04.23,0,.05.03.04.04,0,0-.01.12-.1.16-.11,0-.05.03-.05.03,0,.04.01.07.05.06.18-.49-.05-.55-.05-.59-.13-.02-.11-.1-.09-.04.03.02.06.04.11.61.15-.05.05-.1.06-.22.07,0-.05-.03-.05-.03,0,0,0-.02.02-.02.06-.03.03-.04.06-.04.06-.11-.02-.19-.08-.38-.06-.21-.27-.49-.12-.77-.59h0s0,0,0,0l.08-.04.1.18.1-.05-.1-.18c.38-.16.62-.23,1.07-.25.14-.14.22-.2.35-.35-.62-.04-.98.16-1.48.48h0s-.11-.19-.11-.19l-.1.05.06.11c-.05-.06-.15-.11-.24-.06-.12,0-.18.02-.22.11-.15.02-.15.28-.04.32h0s0,0,0,0l-.06.03.06.1.14-.07c0,.06.02.09.07.13.03-.03.06-.05.09-.08.01.1.02.16.07.26.03-.03.06-.05.08-.08,0,.12.01.16.04.26.04-.04.08-.07.11-.1-.02.13-.02.21.05.27.03-.05.03-.08.04-.13.06.06.12.13.22.17.01.02.04.06.06.08-.06.06-.11.08-.19.09.09.07.15.07.27.04-.05.06-.08.11-.15.14.09.02.14.02.22.02-.21,0-.33.04-.55.21.02-.09.07-.2-.02-.18-.05.02-.08.01-.13-.03-.05,0-.05.06-.05.14,0-.11-.03-.2-.11-.17-.02.05-.05.08-.15.07-.02.02,0,.05.02.08.02.01.03.03.05.04,0,0-.02-.02-.05-.04-.04-.03-.08-.05-.11,0,.01.07,0,.09-.04.13.02.06.03.05.15.05-.1,0-.13.01-.16.07.05.05.07.1.06.16.08.05.27-.05.34-.12.02.04.02.08,0,.12.15-.04.27-.11.3-.16.02.05-.02.08,0,.15.08-.02.14-.04.19-.11-.02.05-.02.07-.04.13.11-.03.15-.04.21-.13-.01.07,0,.07,0,.12.13-.06.15-.06.23-.16-.02.09-.02.09-.01.15.12-.06.16-.09.2-.19.02.04,0,.07.03.13.07-.04.11-.08.16-.16.02.04-.03.08-.03.13.09-.02.14-.05.19-.11.1.36.58.36.66.57v.2h-.59v-.27h-.61v.28h-.59v-.28h-.63v.28h-.67v-3.27s0,0,0,0ZM688.26,31.52v-2.83c0-.44.35-.85.84-.75.4.09.59.28.4.66.25.15.43.22.79.28.05-.1.14-.22.21-.32-.05.01-.07.01-.12.02.12-.11.25-.14.28-.25.02-.06-.06-.19-.12-.23-.05,0-.1,0-.15,0v.25h-.16v-.24h0v-.07s-.07.06-.09.11c-.12-.19-.03-.29.1-.35,0-.12,0-.21,0-.33-.06,0-.14.01-.22.03,0-.06,0-.12,0-.18.1.02.13.02.23.02,0-.07-.03-.17-.04-.24.08,0,.15,0,.23,0-.01.08-.04.15-.04.24.1,0,.14,0,.23-.02,0,.07,0,.12,0,.17-.06-.01-.17-.01-.23-.02,0,.08,0,.23,0,.29.03,0,.06,0,.09,0h0s0,0,0,0h0c.08-.18.41-.23.61-.19.28.06.25.38.5.52-.08.02-.09.04-.14,0,.03.14.09.17.13.28-.06-.02-.07-.02-.12-.02.06.09.12.19.14.27-.07,0-.08-.01-.13-.01.05.08.1.21.11.28.35-.02.53-.06.74-.18-.14-.37-.16-.59.33-.75.37-.07.88.02.88.81v2.67c0,.22.03.32.15.44-.18-.04-.32-.11-.51-.44-.11-.01-.22-.08-.38-.37-.33-.1-.36-.11-.36-1.15-.03.09-.07.09-.17.13-.12-.02-.16-.08-.2-.15-.03.08-.06.11-.15.12-.05-.02-.07-.04-.13-.1.1.16.33.52.49.76-.11-.03-.14-.04-.24-.06.18.33.22.39.45.77.02.04.03.03.07.03.14.01.17-.07.26,0,0,0,0,0,0,0,0,0,0,0,0,0,.08-.03.18.01.15.15-.03-.04-.06-.07-.13-.06,0,0,0,0,0,.02-.11.04-.1-.04-.24,0,.09.12.2.09.22.21,0,.01,0,.02-.02.03v.02c.06.06.04.14,0,.21-.03-.15-.08-.12-.09-.16h0s-.03,0-.05,0c-.17-.13-.05-.16-.13-.26-.03-.01-.03-.02-.05,0-.05.17.08.19-.06.31-.02,0-.03,0-.04,0h0c.02.06-.09,0-.09.15-.13-.09-.09-.16-.04-.18h0s-.03,0-.03-.02c.01-.08.13-.14.18-.26t-.03-.03c-.16.05-.07.11-.25.13-.01,0-.02-.01-.02-.02-.02.05-.09,0-.1.11-.08-.07-.04-.21.05-.2.01,0-.02-.02,0-.04.04-.06.12,0,.25-.08.03-.01.02-.03.02-.03-.14-.2-.38-.47-.49-.67-.01.11-.04.22-.09.26-.12-.22-.16-.3-.32-.54-.03.04-.02.03-.06.06-.03,0-.06-.04-.09-.05.13.6.18.73.49,1.23-.07.06-.3.13-.4.18.04.08.08.12.12.19-.18.11-.28.15-.55.25-.26-.08-.34-.13-.61-.25.05-.08.09-.15.12-.22-.18-.09-.28-.13-.48-.22.46-.6.51-.67.68-1.15-.03.01-.05.02-.09.04-.01-.02-.05-.08-.06-.1-.14.24-.17.25-.34.44-.04-.06-.06-.08-.06-.14-.04.04-.25.24-.64.62,0,0-.01.02.02.03.12.07.21.02.25.07,0,.02,0,.03,0,.03,0,0-.01,0-.02,0,.08.04.13.15.07.2,0-.12-.08-.07-.1-.11h0s0,0-.02.02c-.06,0-.29-.17-.29-.09.06.12.17.18.18.25,0,.01-.07,0-.04.02.04.02.09.1-.04.18,0-.13-.09-.1-.1-.13,0,0,0,0-.01,0-.1-.02-.03-.15-.08-.32-.02-.02-.02-.02-.05,0-.08.1.04.13-.14.25-.03,0-.04,0-.05,0,0,.05-.06,0-.09.16-.06-.07-.08-.15,0-.21.02-.02-.01,0-.02-.04.02-.12.13-.09.22-.2-.14-.03-.12.03-.23,0h0c-.08-.01-.1,0-.14.05-.03-.13.07-.17.15-.15h0s0,0,0,0c.08-.08.11,0,.26,0,.04,0,.05,0,.07-.03.1-.11.53-.61.64-.73-.08.03-.13.02-.23,0,.1-.14.25-.45.38-.69,0,0-.05.09-.12.12-.08-.02-.11-.05-.15-.13-.06.09-.09.09-.18.15-.09-.03-.14-.06-.19-.14-.05.41-.09.79-.36.95-.06.23-.15.35-.42.47-.05.21-.21.41-.47.51.05-.11.08-.18.11-.3h0ZM688.87,27.22l.08-.05v-.09h.09s.03-.1.03-.1l.1.04.06-.07.06.07.09-.04.03.09h.08s0,.09,0,.09l.1.03-.02.09.07.06-.07.06.03.07-.07.04.03.08h-.09s-.03.09-.03.09l-.09-.05-.09.07-.07-.07-.09.05-.03-.09h-.09s.01-.08.01-.08l-.09-.02.02-.09-.08-.06.07-.05-.04-.09h0ZM691.8,27.14c0-.19.75-.27.77.22-.04.48-.78.41-.78.18.24.13.4-.05.4-.18,0-.14-.19-.3-.4-.22ZM696.38,39.38c-.19.02-.54.05-.74-.15-.26.23-.58.31-.84.23h-.01c-.18.15-.4.08-.17-.06-.19-.04-.44-.11-.44-.31.03-.07.11-.08.18,0h.01c.1-.07.07-.03.13-.13-.35-.36.55-.69.33-.85-.1-.08-.19.03-.25.11-.1-.17.04-.33.31-.33-.09-.2-.26-.55-.43-.75-.15-.18-.28-.53-.2-.98.17-.75.02-.62-.03-.84-.06-.26.02-.37.25-.49-.15.25.43.41.2.8.68.11.23.67.42.96-.5-.18-.2-.55-.5-.56-.17,0,.51.93.51,1,.03-.04.05-.05.12-.06.04-.04.08-.06.14-.06-.02.22-.02.25,0,.45.19.24.36.47.43.63.12.25.13.67-.05,1.05.19-.11.3-.12.44-.22.03.06.04.13.02.18.08,0,.13,0,.25.1-.1.02-.21.06-.26.13.07,0,.16.07.18.15h0ZM693.52,39.4c.19.13,0,.21-.17.07h0s-.02,0-.02,0c-.28.07-.61,0-.88-.23-.25.24-.57.21-.81.22.02-.1.1-.16.22-.18-.06-.11-.14-.13-.24-.15.09-.07.16-.07.28-.11-.02-.05-.03-.13,0-.19.15.1.26.1.46.22-.18-.37-.17-.8-.05-1.05.09-.18.3-.44.53-.72l-.08.1c.02-.2.02-.23,0-.45.07,0,.1.02.15.06.07,0,.1.02.13.06.43-.52.82-1.01.53-1-.31,0,0,.38-.52.56.2-.29-.27-.84.44-.96-.24-.39.37-.54.21-.8.24.11.32.22.26.49-.05.22-.21.09-.03.84.08.45-.05.8-.21.98-.18.2-.35.55-.45.75.29,0,.43.16.33.33-.07-.08-.15-.19-.26-.11-.22.16.7.48.34.85.06.1.03.06.14.13h.01c.07-.07.15-.06.19,0,0,.2-.28.28-.47.31ZM690.93,38.11h0v-.95s.21-.27.21-.27l.37-.16.37.15.21.28.08.32c-.15.28-.3.53-.45.76-.09-.03-.18-.08-.23-.13-.13.19-.4.15-.56,0h0ZM689.74,38.13h0c-.22.11-.47.1-.61-.11-.19.21-.41.21-.6.09h0v-.97l.26-.32.37-.1.39.13.2.3v.97h0ZM688.92,38.98c1.7.54,3.39,1.12,5.08,1.69,1.9-.57,6.29-1.68,6.56-3.22h0c.02-.1.03-.3.02-.39v-10.6s-13.08,0-13.08,0v11.03s0,.05,0,.07c.07.73.75,1.13,1.41,1.42h0Z"/>
              <path id="path26" class="cls-1" d="M696.43,36.8h.14v.2h.27v-.35h-.13v-.18h.13v-.28h-.13v.15h-.14v-.15h-.14v.15h-.15v-.15h-.15v.28h.15v.18h-.15v.35h.29v-.2Z"/>
              <path id="path28" class="cls-1" d="M700.92,37.44c.06,1.63-2.47,2.05-6.92,3.69-4.24-1.43-6.75-1.78-6.83-3.35v-11.62h13.75s0,11.28,0,11.28h0ZM690.88,19.44v-.29c.55,0,1.16.2,1.49.26l.18.42c-.45-.17-1.16-.4-1.67-.39h0ZM693.37,18.14s0,.01,0,.02c.06.24-.09.48-.34.54-.25.06-.5-.09-.56-.33,0,0,0-.01,0-.02l.9-.21h0ZM699.25,41.35s0,.03,0,.04v-.04s0,0,0,0ZM699.28,41.36s.02.05.02.07c-.01-.02-.02-.05-.04-.07,0,0,0,0,.01,0h0ZM706.66,31.32c.06,0,.4.21.46.21-.41-1.23-.31-2.95-.28-4.87.13.05.38.26.51.31-.1-1.09-.07-1.34-.07-1.95,0-3.81-2.01-4.84-3.58-5.26-2.8-.63-4.75,1.56-4.08,3.89-.16.73-.57,1.28-1.26,1.59-.56.19-1.36.24-1.69-.39.15.09.25.14.44.15-.17-.18-.26-.43-.34-.73h0c-.13-.5-.22-1.1-.53-1.64.31.27.42.54.53.79.16-.72-.07-1.59-.4-1.99.28.14.28.1.48.31.05-.4-.02-.57-.14-.82-.01-.57-.07-.75-.34-1.09.28.12.48.1.73-.04-.37-.13-.63-.35-.89-.74-.34-.51-.88-1.12-1.56-1.33-.54-.17-1.01-.15-1.96.02-.26.03-.9.25-1.49.22l.05.31-.31.08s-.05.01-.08.02v-.3h0s0-.05,0-.05v-.11s0-.51,0-.51c.41,0,.77.04,1.18.09l-.02-.79c-.41.06-.8.09-1.22.12.04-.38.08-.74.15-1.11-.27.02-.54.02-.81,0,.07.37.11.72.14,1.1-.39-.02-.76-.05-1.15-.1l.02.76c.17-.02.89-.04,1.13-.05v1.07c-.41.14-.77.43-.43,1.21.11-.27.2-.44.44-.52,0,1.24.1,2.6-.22,3.79.44-.15.59-.16,1.04-.01-.3-1.04-.28-2.17-.25-3.24.04,0,.09,0,.13.02.64.08,1.31.33,1.49,1.05.17.67-.36,1.03-.65,1.56-.55,1.1-.35,2-.86,2.54.17.02.36-.01.36-.01-.41.55-1.19.55-1.77.38-.48-.17-.96-.74-1.17-1.4.88-2.82-2.07-4.6-4.18-3.99-1.13.33-3.33,1.04-3.42,5.32-.06.63.04,1-.13,1.64.2-.06.28-.09.45-.18,0,1.77,0,4.14-.37,4.93.2-.05.35-.15.46-.24.15,7.33.24,12.7-.29,13.98.81-.26,1.16-.37,1.62-.93.22-.03.43-.06.63-.11v-9c-.35-1.33-.69-2.65-1.01-3.99-.12-.52-.14-.86,0-1.38l.15-.53.43.36c.17.14.31.28.42.43v-5.58c0-.11.09-.2.2-.2s.2.09.2.2v6.37c.92,2.61,1.61,5.29,2.31,7.97v-15.49c0-.11.09-.2.2-.2s.2.09.2.2v17c.04.17.09.34.14.51.39-.52.63-1.08.77-1.91.25.35.69.63,1.3.9-.5.85-.57,1.11-1.38,1.52.58.25,1.17.29,1.69-.03,0,.03-.02.06-.03.09-.16.29-.27.55-.42.79-.18.31-.32.42-.54.68-.44.14-.64-.08-1.13.03,0,0-.02,0-.03.01-.03-.09-.06-.16-.04-.17.06-.02.11-.05.13-.11.06,0,.16-.06.19-.1.09.01.15-.03.18-.1l.68-.2c.08.04.18.07.21,0,.23-.09.28-.22.3-.31-.07-.06-.23-.17-.46-.09-.07-.04-.13.07-.14.12l-.69.2c-.07-.04-.16-.05-.22,0-.07-.03-.17-.02-.22.04-.02-.01-.11-.05-.17-.04-1.03-3.63-1.95-7.7-3.21-11.28-.16-.45-.34-.72-.7-1.03-.13.46-.11.74,0,1.2.86,3.61,2.04,7.74,2.98,11.36,0,0-.14.05-.17.11-.05-.02-.17.03-.2.09-.07,0-.15.04-.17.1l-.66.2c-.09-.03-.15-.05-.2.01-.18.02-.31.21-.34.3.07.06.26.16.45.08.08.02.15-.04.2-.12l.65-.19c.05.06.15.03.22,0,.06.04.18.02.22-.03.06.05.13.05.2.03.02,0,.03-.01.05-.01.01.03.04.15.07.25-.44.19-.48.38-.39.59,0,.03.01.07.03.11-.24.06-.42.35-.29.58,0,.09.05.19.15.26h0s.01,0,.01,0c-.16.19-.27.53.22.6-.07.4.18.39.36.45.11.09.18.12.35.17.25.02.39.07.62.19.19.05.35.04.55-.05.11-.06.14-.12.18-.21.28-.13.34-.18.39-.49.27-.35.48-1.25.54-1.42.26-.79.69-1.46,1.21-2.13-.09.56.02,1.22.47,1.56.07-1.22.57-1.83,1.12-2.66.16.05.32.1.48.15-.4,1.38-.74,2.45-1.34,3.47h.03c-.49.82-1.16,1.6-2.16,2.49.38.34.86.65,1.27,1.03-.12.19-.23.28-.38.46.28.17,1.45.89,1.78,1.1-.12.23-.26.38-.42.64,1.3.83,1.96,1.15,3.28,1.91.02,0,2.16-1.02,3.52-1.81-.12-.17-.25-.37-.39-.58.74-.44,1.35-.84,1.92-1.21-.15-.17-.24-.27-.4-.46.72-.51.77-.55,1.32-.97-2.25-2.09-3.03-3.78-3.89-6.17.25-.08.49-.17.72-.25.68.95,1.02,1.33,1.31,2.63.46-.45.35-.9.39-1.53.02.02.04.04.05.05,0,0,0,0-.01,0,0,0-.01-.01-.02-.02,0,0,0,0,0,0,0,0-.02-.01-.03-.02.51.85.82,1.32,1.23,2,.05.38.05.58.14.79,0,0,0,0,.01,0,.06.15.16.3.36.52,0,.27.23.52.43.62.02.08.03.11.07.17.16.16.57.17.8.12.17-.14.28-.13.45-.17.17-.03.17-.04.37-.08.15-.08.28-.12.37-.16.13-.11.11-.32,0-.4.24-.16.58-.35.25-.58-.02-.01-.03-.03-.05-.04.15-.25.12-.52-.07-.73,0-.39-.19-.59-.49-.85,0,0,0,0-.01,0,.55-1.85,1.13-4.25,1.7-6.39.24.02.28-.11.32-.25.18-.05.22-.18.09-.33.23-.1.25-.24.18-.42.71-.81,1.21-1.34,1.3-1.61.07-.29-.16-.87-.39-1.7.02-.09.08-.3-.16-.36-.02-.02-.03-.04-.05-.06.07-.04.12-.12.12-.2,0-.13-.11-.23-.24-.23s-.24.1-.24.23c0,.04,0,.07.02.1-.05.01-.1.04-.15.07-.22-.05-.34.13-.39.26-.55.59-1.11,1.01-1.22,1.29-.03.25-.02.88.16,1.88-.23.1-.25.29-.12.47-.2.06-.22.2-.1.34-.04.17,0,.27.12.35-.52,2.06-1.06,3.9-1.85,6.32-.15-.04-.81.08-1.24-.09-.39-.55-.61-.91-.85-1.38.58.16.82.12,1.53,0-.79-.44-1.05-.64-1.58-1.44.67-.31,1.1-.57,1.41-.95.17.92.43,1.42,1.01,1.84.05-.16.1-.32.15-.48v-16.72c0-.11.09-.2.2-.2s.2.09.2.2v15.37c.23-.78.44-1.57.64-2.36-.07-.11-.1-.23-.09-.37-.09-.19-.08-.39.04-.54-.03-.18.03-.36.16-.5-.06-.35-.1-.69-.13-1.04-.02-.23-.03-.5,0-.73v-.04s.02-.04.02-.04c.09-.23.34-.47.53-.65.24-.23.49-.46.72-.7.09-.19.24-.33.43-.4v-6.86c0-.11.09-.2.2-.2s.2.09.2.2v6.48c.07-.03.15-.04.23-.04.33,0,.6.26.6.58,0,.04,0,.08-.01.12.05.07.09.15.11.24.02.08.01.16,0,.24.09.33.19.65.28.98.07.25.14.56.09.81h0s0,.02,0,.02c-.07.24-.32.53-.48.72-.25.3-.51.59-.77.88.01.09,0,.18-.03.27v7.84c.28.17.57.27.81.27.49.42.78.53,1.45.68-.8-.94-.48-7.79-.51-13.53h0Z"/>
              <path id="path30" class="cls-1" d="M684.3,42.74l.44-.13c.06-.06.14-.11.23-.13.04-.02.08-.05.12-.06-.49-1.87-1-3.73-1.5-5.59v6.2c.1-.11.22-.19.35-.23.11-.07.23-.08.36-.05h0Z"/>
              <path id="path32" class="cls-1" d="M704.25,37c-.16.61-.32,1.21-.47,1.82-.28,1.09-.55,2.18-.86,3.26.37.38.75.73,1.04.8.14.27.34.51.55.71v-6.8c-.07.1-.15.17-.26.21h0Z"/>
              <path id="path34" class="cls-1" d="M698.52,36.8h.14v.2h.27v-.35h-.13v-.18h.13v-.28h-.13v.15h-.14v-.15h-.14v.15h-.15v-.15h-.15v.28h.15v.18h-.15v.35h.29v-.2Z"/>
              <path id="path36" class="cls-1" d="M697.85,37.21h-.15v.28h.15v.18h-.15v.35h.29v-.2h.14v.2h.27v-.35h-.13v-.18h.13v-.28h-.13v.15h-.14v-.15h-.14v.15h-.15v-.15Z"/>
              <path id="path38" class="cls-1" d="M696.81,37.21h-.15v.28h.15v.18h-.15v.35h.29v-.2h.14v.2h.27v-.35h-.13v-.18h.13v-.28h-.13v.15h-.14v-.15h-.14v.15h-.15v-.15Z"/>
              <path id="path40" class="cls-1" d="M697.47,36.8h.14v.2h.27v-.35h-.13v-.18h.13v-.28h-.13v.15h-.14v-.15h-.14v.15h-.15v-.15h-.15v.28h.15v.18h-.15v.35h.29v-.2h0Z"/>
              <path id="path42" class="cls-1" d="M698.89,37.21h-.15v.28h.15v.18h-.15v.35h.29v-.2h.14v.2h.27v-.35h-.13v-.18h.13v-.28h-.13v.15h-.14v-.15h-.14v.15h-.15v-.15Z"/>
              <path id="path44" class="cls-1" d="M699.56,36.8h.14v.2h.27v-.35h-.13v-.18h.13v-.28h-.13v.15h-.14v-.15h-.14v.15h-.15v-.15h-.15v.28h.15v.18h-.15v.35h.29v-.2Z"/>
              <path id="path46" class="cls-1" d="M695.5,29.8c.18,0,.26-.03.54-.12-.06.09-.03.2.02.27,0,.11.03.18.1.27,0,.09,0,.14.06.19.04.3.12.45.32.82-.15.06-.28.16-.28.35,0,.27.29.37.5.37.1.16.2.21.34.21s.24-.05.35-.21c.21,0,.5-.11.5-.37,0-.19-.14-.29-.28-.35.2-.37.28-.52.32-.82.06-.05.07-.1.07-.19.07-.09.09-.16.09-.27.05-.07.08-.18.02-.27.29.09.37.12.55.12.57,0,.69-.24.87-.51-.51.11-.63-.32-1.07-.32.18,0,.35-.33.35-.79,0-.54-.49-1.2-1.06-1.2.42.19.56.6.55.96-.02.47-.21.56-.39.68-.26-.14-.39-.1-.6.14-.04-.15-.15-.18-.27-.18s-.21.03-.26.18c-.21-.24-.34-.28-.6-.14-.17-.12-.37-.21-.39-.68-.01-.36.14-.77.55-.96-.56,0-1.05.66-1.05,1.2,0,.46.17.78.35.79-.44,0-.56.43-1.07.32.17.26.31.5.87.51h0Z"/>
              <path id="path48" class="cls-1" d="M696.73,28.3l.37-.19.4.2-.05-.41.3-.3-.41-.08-.23-.42-.2.42-.45.08.34.29-.06.42h0Z"/>
              <path id="path50" class="cls-1" d="M694.99,31.38c-.39.12-.34.14-.35.22.02.06.09.08.18.14.07.06.08.14.18.14.11-.03.18-.03.18-.36,0,.35.07.32.16.35.1,0,.09-.05.2-.12.1-.06.14-.05.16-.14-.01-.07.05-.13-.33-.23.36.1.38.06.44,0,.05-.08-.07-.14-.09-.21-.02-.08-.01-.14-.07-.19-.09-.01-.13-.07-.37.2.26-.29.19-.29.13-.37-.09-.06-.17,0-.26-.01-.13,0-.14,0-.22.04-.03.05-.12.09.13.34-.27-.27-.26-.19-.35-.19-.08.03-.05.11-.08.19-.03.08-.1.11-.07.18.06.07.06.13.44.02h0Z"/>
              <path id="path52" class="cls-1" d="M699.62,31.07c-.02-.39-1.1-.42-1.1.35.02.74,1.1.69,1.12.26-.29.19-.63-.03-.63-.26s.33-.47.61-.35Z"/>
              <path id="path54" class="cls-1" d="M673.8,23.32c.26-.5.38-.92.47-1.46l-1.22-.63c-.23-.12-.33-.11-.49.08l-.35.47-.54-.28,1.12-2.14.54.28-.12.39c-.07.25,0,.31.22.42l1.6.82c-.04.58-.09,1.53-.61,2.52-1.01,1.92-2.64,2.11-4.74,1.02-1.92-.99-3-2.66-1.91-4.73.31-.6.68-1.2,1.64-1.87l1.41.91-.34.65-1.11-.33c-.45.34-.72.61-1.07,1.26-.37.71-.32,1.14-.19,1.55.15.48,1.26,1.29,1.95,1.65,1.51.78,2.98.81,3.72-.61h0Z"/>
              <path id="path56" class="cls-1" d="M678.82,14.61c1.27,1.3.71,2.75-.21,3.64-1.19,1.13-2.41,1.07-3.52-.07l-2.73-2.81c-.18-.18-.27-.22-.49-.07l-.46.31-.42-.43,1.85-1.77.42.43-.33.44c-.16.21-.12.3.06.48l2.62,2.69c1.01,1.04,1.95.66,2.65,0,.3-.28.54-.68.57-1.07.01-.32-.19-.74-.79-1.36l-2.56-2.63c-.18-.18-.27-.22-.49-.07l-.46.31-.42-.43,1.82-1.74.42.43-.33.44c-.16.21-.12.3.06.48l2.73,2.81Z"/>
              <path id="path58" class="cls-1" d="M684.86,13.87l-.68.32-4.81-4.66c-.27-.27-.5-.22-.74-.13l-.34.12-.26-.54,2.5-1.19.26.53-.46.29c-.19.11-.24.18-.18.3.03.05.08.12.15.19l3.72,3.73-.81-5.12c-.02-.08-.04-.17-.06-.21-.06-.13-.17-.13-.38-.06l-.52.18-.26-.53,2.31-1.11.26.54-.33.2c-.22.14-.3.23-.25.61l.9,6.53h0Z"/>
              <path id="path60" class="cls-1" d="M688.08,12.58l-.09-.61.53-.17c.25-.08.27-.18.24-.43l-.8-5.16c-.04-.25-.1-.37-.36-.36l-.55.02-.09-.57,5.24-.79.21,1.74-.65.1-.17-.7c-.06-.25-.19-.27-.43-.23l-2.36.36.37,2.37,2.38-.36.11.74-2.38.36.42,2.68,2.37-.36c.25-.04.36-.1.34-.35l-.06-.77.68-.1.34,1.78-5.28.8h0Z"/>
              <path id="path62" class="cls-1" d="M696.72,8l.91.12c.38.05.71.09,1.04-.12.32-.19.48-.46.56-1.04.13-.91-.46-1.3-1.38-1.43l-.77-.1-.36,2.56h0ZM696.31,10.94c-.03.25,0,.36.25.43l.65.17-.08.61-2.68-.37.08-.6.55-.02c.26,0,.31-.09.35-.34l.72-5.14c.04-.25,0-.35-.24-.43l-.53-.16.08-.6,2.68.37c1.41.19,2.28.74,2.08,2.14-.2,1.44-1.47,1.71-2.12,1.71.21.08.42.39.58.72l.88,1.89c.21.44.48.61.73.65.11.02.3-.01.37-.02l-.13.55c-.09.05-.41.16-.84.1-.55-.08-.85-.54-1.08-1.01l-1.07-2.34c-.1-.22-.25-.45-.57-.49l-.37-.05-.31,2.24h0Z"/>
              <path id="path64" class="cls-1" d="M703.65,12.79c-.12.22-.13.32.07.48l.43.34-.29.53-2.26-1.22.29-.53.52.18c.25.09.33.03.45-.2l2.51-4.56c.12-.22.15-.35-.06-.5l-.44-.31.29-.53,1.52.82.47,6.79,2.26-4.09c.12-.22.16-.35-.06-.5l-.44-.31.29-.53,2.23,1.21-.29.53-.5-.2c-.24-.1-.34,0-.46.22l-3.04,5.51-.8-.43-.46-6.79-2.25,4.09h0Z"/>
              <path id="path66" class="cls-1" d="M713.69,18.95c-1.32,1.25-2.78.7-3.67-.22-1.14-1.18-1.07-2.39.09-3.49l2.84-2.7c.19-.18.22-.27.08-.48l-.31-.45.44-.42,1.78,1.84-.44.42-.44-.33c-.21-.16-.3-.12-.49.05l-2.72,2.58c-1.05,1-.67,1.94,0,2.63.28.3.68.54,1.07.57.33.01.75-.19,1.37-.78l2.66-2.53c.19-.18.22-.27.08-.48l-.31-.45.44-.42,1.75,1.81-.44.42-.44-.33c-.21-.16-.3-.12-.49.05l-2.84,2.7h0Z"/>
              <path id="path68" class="cls-1" d="M712.93,22.02l.54-.27.33.44c.15.21.25.2.48.09l4.67-2.34c.23-.12.29-.19.21-.44l-.16-.52.54-.27,1.19,2.33-.54.27-.36-.5c-.15-.21-.25-.2-.48-.09l-4.97,2.5.93,1.81c.11.22.2.31.44.21l.72-.29.31.61-1.6.87-2.25-4.41h0Z"/>
              <path id="path70" class="cls-1" d="M670.38,44.15l.41.84c.17.35.33.65.69.82.35.16.67.15,1.22-.11.86-.41.86-1.13.45-1.99l-.34-.71-2.42,1.15h0ZM667.59,45.47c-.24.11-.31.21-.23.46l.22.65-.57.27-1.2-2.49.56-.27.33.46c.15.22.26.22.5.1l4.86-2.31c.24-.11.31-.19.23-.45l-.16-.54.56-.27,1.2,2.49c.63,1.31.65,2.36-.67,2.99-1.36.64-2.31-.28-2.68-.83.05.22-.1.58-.3.9l-1.14,1.82c-.26.43-.26.75-.14.99.05.1.18.25.23.3l-.55.2c-.09-.05-.37-.26-.56-.65-.25-.51-.02-1.03.27-1.49l1.42-2.24c.13-.21.24-.47.1-.76l-.17-.34-2.11,1Z"/>
              <path id="path72" class="cls-1" d="M676.21,49.42c-.56.04-1.6.75-2.27,1.42-1.34,1.34-1.55,2.77-.42,3.88.49.48.98.74,1.54.7.56-.04,1.6-.75,2.27-1.42,1.34-1.34,1.55-2.77.42-3.88-.49-.48-.98-.74-1.54-.7ZM672.69,55.01c-1.6-1.57-1.05-3.32.56-4.93,1.42-1.42,3.48-2.06,5.32-.25,1.6,1.57,1.05,3.32-.56,4.93-1.42,1.42-3.48,2.06-5.32.24h0Z"/>
              <path id="path74" class="cls-1" d="M678.75,59.94l.23-.58.56.12c.26.06.31-.01.43-.25l2.38-4.94c.07-.19.03-.29-.18-.41l-.49-.26.23-.58,1.97.78-.34,6.49,4.04-5.04,2.09.82-.23.58-.58-.16c-.24-.06-.34-.02-.43.19l-1.63,5.21c-.08.25-.09.34.14.47l.55.32-.23.58-2.52-.99.23-.58.56.15c.23.06.34-.01.41-.2l1.65-5.16-4.27,5.23-.7-.28.3-6.79-2.24,4.91c-.07.21-.05.33.16.45l.5.26-.23.58-2.35-.92h0Z"/>
              <path id="path76" class="cls-1" d="M693.88,57.05l-.11.47-1.01,2.97,2.29-.02-1.05-2.96-.12-.47h0ZM694.36,54.91l1.22,1.17-.4.28-1.22-.92-1.19.93-.42-.28,1.21-1.19h.8ZM693.48,56.15h.99s2.32,6.36,2.32,6.36c.13.37.25.43.51.48l.41.07v.62s-2.72.02-2.72.02v-.6s.58-.1.58-.1c.19-.03.27-.12.27-.25,0-.06-.01-.13-.04-.21l-.48-1.33-2.81.02-.44,1.31c-.03.08-.04.16-.04.22,0,.16.1.24.29.27l.57.09v.6s-2.54.02-2.54.02v-.62s.4-.08.4-.08c.27-.05.37-.12.5-.49l2.23-6.41Z"/>
              <path id="path78" class="cls-1" d="M702.97,61.28c.1.24.17.32.43.26l.56-.12.23.58-2.47.96-.23-.58.49-.29c.23-.13.24-.24.14-.48l-1.97-4.98c-.1-.24-.18-.35-.44-.28l-.54.14-.23-.58,1.66-.64,5.72,4.12-1.77-4.47c-.1-.24-.17-.35-.43-.28l-.54.14-.23-.58,2.44-.95.23.58-.49.26c-.24.13-.23.26-.13.5l2.38,6.02-.87.34-5.71-4.12,1.77,4.46Z"/>
              <path id="path80" class="cls-1" d="M713.77,56.46l-2.08,1.63-.39-.49.38-.42c.18-.2.15-.3-.01-.5l-3.35-4.18c-.16-.21-.26-.25-.49-.12l-.5.27-.39-.49,2.08-1.63.39.49-.38.42c-.18.2-.15.3,0,.5l3.35,4.18c.16.21.26.25.49.12l.5-.27.39.49h0Z"/>
              <path id="path82" class="cls-1" d="M716.54,53.88l-.51-.38.26-.5c.12-.24.07-.33-.14-.48l-4.35-3.2c-.21-.16-.34-.2-.52,0l-.39.41-.48-.35,3.25-4.33,1.43,1.13-.41.54-.63-.39c-.23-.14-.34-.06-.49.14l-1.47,1.96,2,1.47,1.48-1.97.62.46-1.48,1.97,2.26,1.67,1.47-1.96c.15-.2.19-.33,0-.5l-.6-.52.42-.56,1.54,1.06-3.28,4.37h0Z"/>
              <path id="path84" class="cls-1" d="M722.4,43.83l-.98,2.44-.58-.23.12-.55c.06-.26-.01-.33-.26-.43l-5-1.98c-.25-.1-.35-.09-.49.13l-.3.48-.58-.23.98-2.44.58.23-.12.55c-.06.26.01.33.26.43l5,1.98c.25.1.35.09.49-.13l.3-.48.58.23h0Z"/>
            </g>
          </g>
        </g>
      </g>
    </g>
  </g>
</svg>