<?xml version="1.0" encoding="UTF-8"?>
<svg id="Layer_2" data-name="Layer 2" xmlns="http://www.w3.org/2000/svg" viewBox="0 0 18.82 18.82">
  <defs>
    <style>
      .cls-1 {
        fill: #fff;
        stroke-width: 0px;
      }
    </style>
  </defs>
  <g id="Layer_1-2" data-name="Layer 1">
    <path class="cls-1" d="M11.75,4.72h-4.68c-1.33,0-2.42,1.08-2.42,2.42v4.68c0,1.33,1.08,2.42,2.42,2.42h4.68c1.33,0,2.42-1.08,2.42-2.42v-4.68c0-1.33-1.08-2.42-2.42-2.42ZM9.46,12.37c-1.59,0-2.89-1.3-2.89-2.89s1.3-2.89,2.89-2.89,2.89,1.3,2.89,2.89-1.3,2.89-2.89,2.89ZM12.52,7.35c-.38,0-.69-.31-.69-.69s.31-.69.69-.69.69.31.69.69-.31.69-.69.69ZM11.75,4.72h-4.68c-1.33,0-2.42,1.08-2.42,2.42v4.68c0,1.33,1.08,2.42,2.42,2.42h4.68c1.33,0,2.42-1.08,2.42-2.42v-4.68c0-1.33-1.08-2.42-2.42-2.42ZM9.46,12.37c-1.59,0-2.89-1.3-2.89-2.89s1.3-2.89,2.89-2.89,2.89,1.3,2.89,2.89-1.3,2.89-2.89,2.89ZM12.52,7.35c-.38,0-.69-.31-.69-.69s.31-.69.69-.69.69.31.69.69-.31.69-.69.69ZM11.75,4.72h-4.68c-1.33,0-2.42,1.08-2.42,2.42v4.68c0,1.33,1.08,2.42,2.42,2.42h4.68c1.33,0,2.42-1.08,2.42-2.42v-4.68c0-1.33-1.08-2.42-2.42-2.42ZM9.46,12.37c-1.59,0-2.89-1.3-2.89-2.89s1.3-2.89,2.89-2.89,2.89,1.3,2.89,2.89-1.3,2.89-2.89,2.89ZM12.52,7.35c-.38,0-.69-.31-.69-.69s.31-.69.69-.69.69.31.69.69-.31.69-.69.69ZM11.75,4.72h-4.68c-1.33,0-2.42,1.08-2.42,2.42v4.68c0,1.33,1.08,2.42,2.42,2.42h4.68c1.33,0,2.42-1.08,2.42-2.42v-4.68c0-1.33-1.08-2.42-2.42-2.42ZM9.46,12.37c-1.59,0-2.89-1.3-2.89-2.89s1.3-2.89,2.89-2.89,2.89,1.3,2.89,2.89-1.3,2.89-2.89,2.89ZM12.52,7.35c-.38,0-.69-.31-.69-.69s.31-.69.69-.69.69.31.69.69-.31.69-.69.69ZM9.41,0C4.21,0,0,4.21,0,9.41s4.21,9.41,9.41,9.41,9.41-4.21,9.41-9.41S14.61,0,9.41,0ZM15.28,11.82c0,1.94-1.58,3.52-3.52,3.52h-4.68c-1.94,0-3.52-1.58-3.52-3.52v-4.68c0-1.94,1.58-3.52,3.52-3.52h4.68c1.94,0,3.52,1.58,3.52,3.52v4.68ZM11.75,4.72h-4.68c-1.33,0-2.42,1.08-2.42,2.42v4.68c0,1.33,1.08,2.42,2.42,2.42h4.68c1.33,0,2.42-1.08,2.42-2.42v-4.68c0-1.33-1.08-2.42-2.42-2.42ZM9.46,12.37c-1.59,0-2.89-1.3-2.89-2.89s1.3-2.89,2.89-2.89,2.89,1.3,2.89,2.89-1.3,2.89-2.89,2.89ZM12.52,7.35c-.38,0-.69-.31-.69-.69s.31-.69.69-.69.69.31.69.69-.31.69-.69.69ZM11.75,4.72h-4.68c-1.33,0-2.42,1.08-2.42,2.42v4.68c0,1.33,1.08,2.42,2.42,2.42h4.68c1.33,0,2.42-1.08,2.42-2.42v-4.68c0-1.33-1.08-2.42-2.42-2.42ZM9.46,12.37c-1.59,0-2.89-1.3-2.89-2.89s1.3-2.89,2.89-2.89,2.89,1.3,2.89,2.89-1.3,2.89-2.89,2.89ZM12.52,7.35c-.38,0-.69-.31-.69-.69s.31-.69.69-.69.69.31.69.69-.31.69-.69.69ZM11.75,4.72h-4.68c-1.33,0-2.42,1.08-2.42,2.42v4.68c0,1.33,1.08,2.42,2.42,2.42h4.68c1.33,0,2.42-1.08,2.42-2.42v-4.68c0-1.33-1.08-2.42-2.42-2.42ZM9.46,12.37c-1.59,0-2.89-1.3-2.89-2.89s1.3-2.89,2.89-2.89,2.89,1.3,2.89,2.89-1.3,2.89-2.89,2.89ZM12.52,7.35c-.38,0-.69-.31-.69-.69s.31-.69.69-.69.69.31.69.69-.31.69-.69.69Z"/>
  </g>
</svg>