<?xml version="1.0" encoding="UTF-8"?>
<svg id="Layer_2" xmlns="http://www.w3.org/2000/svg" viewBox="0 0 122.97 91.51">
  <defs>
    <style>
      .cls-1 {
        fill: #fff;
      }

      .cls-2 {
        fill: #0047ba;
      }
    </style>
  </defs>
  <g id="Layer_1-2" data-name="Layer_1">
    <g>
      <path class="cls-2" d="M122.97,0H45.76C20.49,0,0,20.49,0,45.76h0c0,25.27,20.49,45.76,45.76,45.76h77.22V0Z"/>
      <g id="Layer_1-2">
        <path class="cls-1" d="M31.07,37.87c3.27-7.61,10.7-13.06,19.59-13.06,11.85,0,21.34,9.49,21.34,21.34,0,11.85-9.49,21.28-21.34,21.28-11.85,0-21.28-9.43-21.28-21.28,0-2.96.54-5.74,1.69-8.28h0ZM50.66,37.35l-2.93-2.86c-3.66-2.99-9.12-2.77-12.51.62-3.39,3.39-3.61,8.85-.63,12.51l3.04,3.14c-.13.33-.2.68-.2,1.05,0,.78.3,1.51.86,2.07.08.07.14.14.23.2,0,0,.02.01.03.02.07.05.14.11.21.16,0,0,.01,0,.02.01.08.05.16.1.24.14h.01c.08.04.17.08.26.12h.02c.08.03.17.06.26.08.01,0,.03,0,.04.01.08.02.16.04.23.05.03,0,.05,0,.08,0,.07.01.13.02.2.03h.12s.07,0,.1,0h.05s.03,0,.03,0h.03v.12c0,.78.31,1.51.86,2.06.08.08.15.14.23.21,0,0,.01,0,.02.01.08.06.14.11.23.16h0c.25.16.52.29.81.36h.01c.08.03.17.04.26.06.02,0,.04,0,.06,0,.08.01.14.02.22.03h.11s.08,0,.11,0h.06s.01,0,.03,0h.03v.12c0,.18.02.37.05.55,0,.04.02.08.03.12.06.25.14.48.26.7.13.25.3.48.51.69,0,0,.01.01.03.02.06.06.13.12.2.18.01,0,.03.01.03.03.07.05.14.1.21.15,0,0,.01,0,.01,0,.16.11.34.2.52.27h0c.09.03.18.07.27.1h.03c.08.02.17.04.25.05.02,0,.04,0,.06.01.08,0,.14.02.22.03h.11s.08,0,.11,0h.06s.05,0,.05,0v.03s0,.01,0,.02v.16s0,.09,0,.13c0,.05.01.1.01.16,0,.04,0,.08.02.13,0,.05.02.1.03.16,0,.04.02.08.03.13.01.05.03.1.05.15.01.04.03.08.04.12.02.05.04.1.07.15.02.03.03.08.05.11.03.05.05.1.09.16.02.03.04.07.06.1.03.05.08.11.12.16.02.03.04.05.06.08.06.08.13.16.21.23.57.57,1.31.86,2.06.86.42,0,.83-.09,1.22-.27.38.18.81.28,1.25.28.78,0,1.51-.3,2.06-.86.55-.55.86-1.29.86-2.07v-.12c.79.03,1.58-.25,2.18-.86.44-.44.71-.98.81-1.55.04-.21.05-.42.05-.63.21.01.43,0,.64-.04.56-.1,1.1-.37,1.54-.81.44-.44.71-.98.81-1.55.03-.21.05-.42.05-.63.22,0,.42,0,.64-.05.58-.1,1.12-.38,1.55-.81.55-.55.86-1.29.86-2.06,0-.37-.07-.73-.2-1.06l3.07-3.16c2.96-3.66,2.74-9.1-.64-12.49-3.39-3.39-8.85-3.61-12.5-.63l-2.99,2.86v.03ZM61.35,53.14c-.46.11-.97,0-1.31-.34l-6.09-6.09c-.3-.3-.79-.3-1.1,0-.3.3-.3.79,0,1.1l6.09,6.09c.35.35.47.85.36,1.29-.05.23-.17.46-.36.64-.18.18-.4.29-.64.36-.43.1-.9,0-1.25-.31l-6.14-6.14c-.3-.3-.79-.3-1.1,0s-.3.79,0,1.1l6.09,6.1c.35.35.47.84.36,1.29-.06.23-.17.46-.36.64-.18.18-.4.3-.64.36-.38.1-.79.03-1.12-.21-.01-.26-.05-.51-.12-.75,0-.01,0-.03-.01-.04-.03-.09-.06-.17-.1-.26-.01-.03-.03-.07-.05-.1-.03-.07-.06-.13-.1-.2-.02-.03-.03-.07-.06-.1-.04-.06-.08-.12-.13-.18-.02-.03-.04-.06-.06-.09-.07-.08-.14-.17-.22-.25-.55-.55-1.29-.86-2.06-.86h-.12s0-.05,0-.05v-.16s0-.09,0-.14-.01-.1-.02-.16c0-.04-.01-.09-.02-.13,0-.05-.02-.1-.03-.15,0-.04-.02-.09-.03-.13-.01-.05-.03-.1-.05-.15-.01-.04-.03-.08-.04-.12-.02-.05-.04-.1-.06-.14-.02-.04-.04-.08-.05-.12-.03-.05-.05-.1-.08-.14-.02-.03-.04-.08-.07-.11-.03-.05-.07-.1-.1-.14-.03-.03-.05-.06-.08-.1-.05-.06-.11-.12-.17-.18-.01-.01-.02-.03-.03-.04-.08-.08-.15-.14-.23-.21-.03-.03-.08-.05-.12-.08-.04-.03-.08-.06-.12-.09-.05-.03-.11-.07-.16-.1-.03-.01-.05-.03-.09-.05-.06-.03-.13-.06-.2-.09-.02,0-.04-.02-.06-.03-.07-.03-.14-.05-.21-.08-.02,0-.03-.01-.05-.02-.07-.02-.14-.03-.22-.05-.02,0-.04,0-.06-.01-.07-.01-.14-.02-.21-.03-.03,0-.05,0-.09,0-.06,0-.12,0-.17,0h-.14s-.06,0-.06,0v-.03s0-.01,0-.03v-.16s0-.09,0-.13c0-.05-.01-.1-.01-.16,0-.04-.01-.08-.02-.13-.01-.05-.02-.1-.03-.16,0-.04-.02-.08-.03-.12-.01-.05-.03-.1-.05-.16-.01-.04-.03-.08-.04-.12-.02-.05-.05-.11-.07-.16-.01-.03-.03-.08-.05-.11-.03-.05-.06-.11-.09-.16-.02-.03-.03-.06-.06-.1-.03-.06-.08-.12-.12-.17-.02-.02-.03-.05-.05-.08-.06-.08-.13-.16-.21-.23-.08-.08-.14-.14-.23-.21-.02-.02-.05-.03-.08-.05-.05-.04-.11-.08-.17-.12-.03-.02-.06-.03-.09-.05-.05-.03-.11-.07-.17-.1-.03-.01-.06-.03-.1-.04-.06-.03-.12-.05-.18-.08-.03-.01-.06-.02-.1-.03-.06-.02-.12-.04-.18-.06-.03,0-.07-.01-.1-.03l-.18-.04s-.07,0-.1-.01c-.06,0-.12-.01-.18-.02h-.11c-.05,0-.11,0-.17,0h-.03s-.03,0-.03,0v-.12c0-.78-.3-1.51-.86-2.07-.08-.08-.16-.15-.25-.22-.03-.02-.05-.04-.08-.06-.06-.05-.12-.09-.18-.13-.03-.02-.07-.04-.1-.06-.06-.03-.13-.08-.2-.1-.03-.01-.06-.03-.1-.04-.1-.04-.18-.08-.29-.11h-.01c-.27-.08-.56-.13-.86-.13-.78,0-1.51.31-2.06.86l-1.53,1.54-2.33-2.38c-2.92-3.03-2.87-7.93.11-10.9,2.97-2.98,7.87-3.03,10.9-.11l2.35,2.33-2.86,2.86c-.08.08-.15.16-.22.25-.62.77-.78,1.79-.5,2.69.14.43.37.84.72,1.18.55.55,1.29.86,2.06.86s1.51-.31,2.06-.86l2.86-2.86,8.29,8.29c.26.26.4.6.4.97,0,.11-.02.22-.05.33-.06.24-.18.47-.36.64-.17.17-.39.29-.62.34h0ZM53.7,40.39l-3.96,3.96c-.53.53-1.4.53-1.94,0-.49-.49-.52-1.25-.12-1.78l.54-.54,5.94-5.9c3.03-2.92,7.93-2.87,10.91.1,2.97,2.97,3.02,7.87.1,10.91l-2.37,2.37-9.11-9.11h0ZM39.04,52.19c-.03-.12-.05-.24-.05-.36,0-.37.14-.71.4-.97l1.79-1.79c.52-.51,1.42-.51,1.94,0,.26.26.4.6.4.97s-.14.71-.4.97l-1.79,1.79c-.35.36-.88.46-1.34.33-.22-.06-.42-.16-.59-.33-.17-.17-.29-.38-.35-.6h0ZM42.07,55.21c-.03-.12-.05-.23-.05-.36,0-.36.14-.71.4-.97l1.79-1.79c.07-.07.14-.12.22-.18.06-.04.13-.08.2-.1.02,0,.04-.01.06-.02.05-.02.1-.03.14-.05.03,0,.05-.01.08-.01.05-.01.1-.02.14-.02h.07s.08,0,.12,0h0s.1,0,.14.01c.03,0,.08.01.1.02l.14.04s.06.02.1.03c.05.02.1.05.14.08.03.01.05.03.08.04.07.05.14.1.2.16h0c.3.31.43.71.39,1.11-.01.13-.04.26-.1.38-.07.16-.16.32-.3.45l-1.79,1.79c-.35.36-.88.46-1.34.33-.22-.05-.42-.16-.59-.33-.17-.17-.28-.38-.34-.61h0ZM45.45,58.86c-.17-.17-.29-.38-.35-.6-.03-.12-.05-.24-.05-.36,0-.37.14-.71.4-.97l1.79-1.79c.06-.05.12-.11.19-.16.02-.01.04-.03.06-.04.05-.03.1-.05.15-.08.03-.01.05-.02.08-.03.07-.03.14-.05.21-.06.03,0,.07-.01.11-.01.03,0,.08-.01.11-.01h.13s.05,0,.08,0c.04,0,.08,0,.12.01.07.01.14.03.2.05.18.07.35.17.49.31.27.27.4.62.4.97s-.14.7-.4.97l-1.79,1.79c-.06.06-.14.12-.21.17-.23.14-.49.22-.75.22-.13,0-.25-.02-.38-.05-.05-.01-.1-.02-.14-.04-.16-.06-.32-.16-.45-.29h0ZM48.31,61.68c-.08-.12-.14-.25-.17-.39-.12-.46-.01-.97.34-1.34l1.79-1.79c.51-.52,1.42-.52,1.94,0,.26.26.4.6.4.97s-.14.71-.4.97l-1.79,1.79c-.36.36-.87.47-1.33.34-.22-.06-.43-.17-.6-.34-.07-.07-.12-.14-.17-.21h0Z"/>
      </g>
    </g>
  </g>
</svg>