<?xml version="1.0" encoding="UTF-8"?>
<svg id="Layer_2" data-name="Layer 2" xmlns="http://www.w3.org/2000/svg" viewBox="0 0 39.57 39.57">
  <defs>
    <style>
      .cls-1 {
        fill: none;
        stroke: #000;
        stroke-linecap: round;
        stroke-linejoin: round;
      }

      .cls-2 {
        fill: #fff;
        stroke-width: 0px;
      }
    </style>
  </defs>
  <g id="Layer_1-2" data-name="Layer 1">
    <g>
      <circle class="cls-2" cx="19.78" cy="19.78" r="19.78"/>
      <path class="cls-1" d="M27.07,27.76h-14c-1.1,0-2-.9-2-2v-12c0-1.1.9-2,2-2h10c1.1,0,2,.9,2,2v1M27.07,27.76c-1.1,0-2-.9-2-2v-11M27.07,27.76c1.1,0,2-.9,2-2v-9c0-1.1-.9-2-2-2h-2M21.07,11.76h-4M15.07,23.76h6M15.07,15.76h6v4h-6v-4Z"/>
    </g>
  </g>
</svg>