<?xml version="1.0" encoding="UTF-8"?>
<svg id="Layer_2" data-name="Layer 2" xmlns="http://www.w3.org/2000/svg" viewBox="0 0 348.6 68.72">
  <g id="Layer_1-2" data-name="Layer 1">
    <g>
      <path d="M59.68,26h-17.53c-.12-1.52-.45-2.91-.98-4.15s-1.25-2.31-2.18-3.22c-.92-.9-2.04-1.6-3.34-2.09-1.3-.49-2.79-.73-4.44-.73-2.9,0-5.35.74-7.35,2.22-2,1.48-3.51,3.6-4.54,6.37s-1.54,6.09-1.54,9.96c0,4.09.52,7.52,1.57,10.27,1.05,2.75,2.56,4.82,4.55,6.21s4.38,2.07,7.18,2.07c1.59,0,3.02-.21,4.29-.64,1.26-.42,2.36-1.04,3.29-1.84.93-.81,1.69-1.78,2.29-2.92.59-1.14.99-2.43,1.2-3.87l17.53.13c-.21,2.83-.96,5.71-2.27,8.64-1.3,2.93-3.15,5.63-5.55,8.1s-5.35,4.46-8.87,5.96c-3.52,1.5-7.61,2.25-12.28,2.25-5.84,0-11.08-1.32-15.71-3.95-4.63-2.63-8.29-6.51-10.97-11.63S0,41.76,0,34.36s1.37-13.72,4.1-18.83c2.74-5.11,6.42-8.97,11.06-11.59S24.99,0,30.71,0c4.02,0,7.72.58,11.1,1.73,3.38,1.15,6.34,2.84,8.89,5.05,2.55,2.21,4.6,4.93,6.15,8.15,1.55,3.22,2.5,6.91,2.83,11.07Z"/>
      <path d="M90.76,68.72c-5.18,0-9.62-1.08-13.3-3.25-3.69-2.17-6.52-5.19-8.49-9.08-1.97-3.89-2.95-8.4-2.95-13.54s.98-9.65,2.95-13.54c1.97-3.89,4.8-6.91,8.49-9.08,3.69-2.17,8.12-3.25,13.3-3.25s9.61,1.08,13.3,3.25c3.69,2.17,6.52,5.19,8.49,9.08,1.97,3.89,2.95,8.4,2.95,13.54s-.98,9.65-2.95,13.54c-1.97,3.89-4.8,6.91-8.49,9.08-3.69,2.17-8.12,3.25-13.3,3.25ZM90.88,55.39c1.45,0,2.7-.51,3.76-1.54,1.06-1.02,1.88-2.48,2.46-4.38.58-1.89.87-4.15.87-6.76s-.29-4.89-.87-6.78c-.58-1.88-1.4-3.34-2.46-4.36s-2.31-1.54-3.76-1.54c-1.53,0-2.85.51-3.95,1.54s-1.94,2.48-2.52,4.36c-.58,1.88-.87,4.14-.87,6.78s.29,4.87.87,6.76,1.42,3.35,2.52,4.38c1.1,1.02,2.41,1.54,3.95,1.54Z"/>
      <path d="M139.62,39.59v28.22h-17.16V17.64h16.29v9.54h.5c1.04-3.18,2.87-5.67,5.49-7.48s5.68-2.71,9.18-2.71,6.31.81,8.81,2.43c2.5,1.62,4.43,3.85,5.81,6.68,1.38,2.83,2.06,6.06,2.04,9.7v32.01h-17.16v-28.22c.02-2.48-.58-4.43-1.79-5.85-1.21-1.42-2.9-2.12-5.05-2.12-1.41,0-2.64.32-3.68.96-1.05.64-1.85,1.56-2.41,2.74-.56,1.19-.85,2.61-.87,4.26Z"/>
      <path d="M207.5,17.64v13.06h-31.45v-13.06h31.45ZM182.13,5.62h17.16v46.05c0,.7.11,1.28.34,1.75.23.47.58.82,1.06,1.04s1.09.34,1.83.34c.52,0,1.12-.06,1.82-.2s1.21-.24,1.54-.33l2.49,12.67c-.77.24-1.86.53-3.28.88-1.42.35-3.1.58-5.05.69-3.94.22-7.24-.21-9.92-1.29-2.67-1.08-4.68-2.78-6.03-5.11-1.35-2.33-2-5.25-1.96-8.75V5.62Z"/>
      <path d="M227.76,68.59c-3.05,0-5.73-.53-8.07-1.58-2.33-1.06-4.16-2.66-5.49-4.82-1.33-2.16-1.99-4.9-1.99-8.23,0-2.74.45-5.09,1.34-7.04.89-1.95,2.13-3.54,3.73-4.79s3.46-2.19,5.58-2.84,4.42-1.08,6.88-1.27c2.67-.22,4.82-.48,6.45-.8,1.63-.32,2.8-.76,3.53-1.34.73-.58,1.09-1.34,1.09-2.3v-.13c0-1.31-.48-2.31-1.43-3.01-.95-.7-2.18-1.04-3.67-1.04-1.64,0-2.97.38-3.99,1.13-1.03.75-1.64,1.9-1.85,3.45h-15.79c.21-3.05,1.13-5.86,2.78-8.44,1.65-2.58,4.06-4.65,7.23-6.21,3.17-1.56,7.13-2.33,11.87-2.33,3.42,0,6.49.42,9.2,1.26,2.71.84,5.02,2,6.93,3.5,1.91,1.49,3.36,3.23,4.37,5.23,1,1.99,1.51,4.15,1.51,6.48v34.36h-16.04v-7.05h-.37c-.95,1.87-2.11,3.39-3.47,4.54s-2.9,1.99-4.63,2.51c-1.73.52-3.63.78-5.7.78ZM233.36,57.22c1.3,0,2.53-.28,3.68-.85,1.15-.57,2.09-1.38,2.81-2.45.72-1.07,1.09-2.36,1.09-3.89v-4.18c-.46.2-.94.38-1.44.56-.51.17-1.05.34-1.62.49-.57.15-1.17.29-1.8.42-.63.13-1.29.25-1.97.36-1.33.22-2.41.57-3.25,1.06-.84.49-1.46,1.09-1.87,1.8-.4.71-.61,1.5-.61,2.37,0,1.39.47,2.46,1.4,3.2.93.74,2.12,1.11,3.57,1.11Z"/>
      <path d="M289.18,68.72c-5.18,0-9.62-1.08-13.3-3.25-3.69-2.17-6.52-5.19-8.49-9.08-1.97-3.89-2.95-8.4-2.95-13.54s.98-9.65,2.95-13.54c1.97-3.89,4.8-6.91,8.49-9.08,3.69-2.17,8.12-3.25,13.3-3.25,4.68,0,8.74.89,12.17,2.66,3.43,1.77,6.09,4.28,7.97,7.51,1.88,3.23,2.84,7.03,2.86,11.38h-15.91c-.23-2.63-.95-4.64-2.16-6.03-1.21-1.38-2.77-2.07-4.68-2.07-1.49,0-2.8.45-3.92,1.36s-1.99,2.26-2.61,4.08c-.62,1.82-.93,4.1-.93,6.84s.31,5.03.93,6.84c.62,1.82,1.49,3.18,2.61,4.08,1.12.9,2.42,1.36,3.92,1.36,1.26,0,2.38-.31,3.36-.93.97-.62,1.77-1.54,2.38-2.74.61-1.21.98-2.68,1.1-4.43h15.91c-.06,4.42-1.03,8.27-2.89,11.55s-4.5,5.81-7.91,7.59c-3.41,1.79-7.47,2.68-12.2,2.68Z"/>
      <path d="M347.73,17.64v13.06h-31.45v-13.06h31.45ZM322.37,5.62h17.16v46.05c0,.7.11,1.28.34,1.75.23.47.58.82,1.06,1.04s1.09.34,1.83.34c.52,0,1.12-.06,1.82-.2s1.21-.24,1.54-.33l2.49,12.67c-.77.24-1.86.53-3.28.88-1.42.35-3.1.58-5.05.69-3.94.22-7.24-.21-9.92-1.29-2.67-1.08-4.68-2.78-6.03-5.11-1.35-2.33-2-5.25-1.96-8.75V5.62Z"/>
    </g>
  </g>
</svg>