<?xml version="1.0" encoding="UTF-8"?>
<svg id="Layer_2" data-name="Layer 2" xmlns="http://www.w3.org/2000/svg" viewBox="0 0 236.24 229.81">
  <defs>
    <style>
      .cls-1 {
        fill: #e6e6e6;
      }
    </style>
  </defs>
  <g id="Layer_1-2" data-name="Layer 1">
    <g>
      <path class="cls-1" d="M.02,56.96c4.58,42.59,11.01,84.96,19.28,127,.55,2.77,5.32,2.91,5.74,0,2.22-15.22,4.79-30.45,8.72-45.32,2.12-8.04,4.35-18.93,10.27-25.23,4.03-4.29,6.79,1.86,8.6,5.85,6.02,13.25,8.25,28.58,10.6,42.8.62,3.77,6.36,2.17,5.74-1.58-2.21-13.34-4.54-27.04-9.34-39.74-1.95-5.15-4.79-12.75-10.64-14.65-12.76-4.14-18.64,22.35-20.66,29.81-4.12,15.24-6.76,30.88-9.03,46.49h5.74c-8.17-41.51-14.54-83.35-19.07-125.41-.41-3.77-6.36-3.81-5.95,0H.02Z"/>
      <path class="cls-1" d="M112.89,132.1c-1.28-6.23-5.65-13.58-12.69-8.67-6.22,4.35-9.45,13.8-10.71,20.91s-1.05,17.73,7.45,19.83c9.07,2.24,15.2-3.64,17.54-11.97,2.77-9.86,1.93-20.86.45-30.87-.48-3.25-4.81-2.36-5.74,0-6.42,16.18,10.5,42.96,29.38,34.44,5.73-2.58,8.06-6.48,9.28-12.44,1-4.85,1.73-9.96,1.06-14.9-.55-4.06-4.91-11.35-8.97-5.42-1.76,2.56-1.46,6.34-1.07,9.24.88,6.55,3.59,12.71,6.61,18.52,1.77,3.4,6.91.39,5.14-3-2.44-4.69-4.65-9.6-5.64-14.82-.28-1.48-.51-3.02-.43-4.53.02-.36.47-1.94.35-2.13.05.08-2.26.28-2.37.63-.2.59.58,2.82.63,3.5.33,4.51-.43,9.24-1.55,13.6-2.55,9.93-14.3,8.07-20.21,2.57-6.38-5.94-9.79-15.33-6.48-23.67h-5.74c1.2,8.14,1.76,16.95.16,25.07-.66,3.37-1.73,7.78-4.82,9.79-2.7,1.76-7.03,1.45-8.61-1.49-3.32-6.2.13-16.05,3.07-21.74.74-1.43,3.33-6.87,5.47-6.79,1.78.07,2.39,4.53,2.68,5.92.77,3.75,6.51,2.16,5.74-1.58h0Z"/>
      <path class="cls-1" d="M138.53,69.16c3.83,0,3.84-5.95,0-5.95s-3.84,5.95,0,5.95h0Z"/>
      <path class="cls-1" d="M174.9,2.87c-.82,46.02,11.92,90.94,12.06,136.9.01,3.83,5.96,3.84,5.95,0-.14-45.96-12.88-90.89-12.06-136.9.07-3.83-5.89-3.83-5.95,0h0Z"/>
      <path class="cls-1" d="M171.34,193.54c3.83,0,3.84-5.95,0-5.95s-3.84,5.95,0,5.95h0Z"/>
      <path class="cls-1" d="M201.85,181.5c3.83,0,3.84-5.95,0-5.95s-3.84,5.95,0,5.95h0Z"/>
      <path class="cls-1" d="M140.19,212.58c13.38,13.85,32.66,19.47,51.52,16.44,16.88-2.71,33.6-12.72,40.84-28.69,4.37-9.64,4.63-20.21,1.92-30.35-.99-3.7-6.73-2.13-5.74,1.58,5.65,21.14-5.98,40.14-25.75,48.18-19.96,8.12-43.46,4.29-58.59-11.37-2.67-2.76-6.87,1.45-4.21,4.21h0Z"/>
    </g>
  </g>
</svg>