<?xml version="1.0" encoding="UTF-8"?>
<svg id="Layer_2" data-name="Layer 2" xmlns="http://www.w3.org/2000/svg" viewBox="0 0 679.76 157.65">
  <g id="Layer_1-2" data-name="Layer 1">
    <g>
      <path d="M0,113.03V7.81h43.42c7.63,0,14.04,1.08,19.24,3.24,5.2,2.16,9.12,5.21,11.78,9.14,2.66,3.94,3.98,8.58,3.98,13.92,0,3.87-.81,7.4-2.42,10.58s-3.87,5.85-6.77,7.99c-2.9,2.14-6.29,3.62-10.17,4.44v1.03c4.3.17,8.21,1.31,11.73,3.42,3.52,2.11,6.32,5,8.41,8.68,2.09,3.68,3.13,8.01,3.13,12.97,0,5.75-1.43,10.88-4.28,15.36-2.85,4.49-6.9,8.02-12.15,10.58-5.25,2.57-11.51,3.85-18.77,3.85H0ZM27.18,50.35h11.15c2.38,0,4.48-.39,6.31-1.18,1.83-.79,3.25-1.93,4.28-3.42,1.03-1.49,1.54-3.31,1.54-5.47,0-3.25-1.11-5.75-3.32-7.48-2.22-1.73-5.02-2.59-8.41-2.59h-11.54v20.14ZM27.18,90.22h12.71c4.56,0,7.99-.9,10.27-2.7s3.42-4.46,3.42-7.99c0-2.47-.54-4.55-1.61-6.27-1.08-1.71-2.6-3.01-4.57-3.91-1.97-.89-4.34-1.34-7.11-1.34h-13.1v22.2Z"/>
      <path d="M92.3,113.03V34.12h26.99v78.92h-26.99ZM105.85,25.89c-3.68,0-6.83-1.27-9.44-3.8-2.61-2.53-3.91-5.58-3.91-9.15s1.3-6.61,3.91-9.15c2.61-2.53,5.74-3.8,9.39-3.8s6.82,1.27,9.41,3.8c2.59,2.54,3.89,5.58,3.89,9.15s-1.3,6.61-3.89,9.15c-2.59,2.54-5.71,3.8-9.36,3.8Z"/>
      <path d="M132.59,113.03V7.81h26.99v40.07h.39c.98-2.67,2.41-5.13,4.3-7.37,1.89-2.24,4.24-4.04,7.04-5.4,2.8-1.35,6.06-2.03,9.78-2.03,4.95,0,9.67,1.39,14.15,4.16,4.48,2.77,8.13,7.14,10.95,13.1,2.82,5.96,4.23,13.7,4.23,23.22s-1.34,16.66-4.03,22.66c-2.69,6-6.27,10.46-10.76,13.41-4.48,2.95-9.4,4.42-14.74,4.42-3.52,0-6.66-.61-9.41-1.82-2.75-1.22-5.1-2.88-7.04-4.98-1.94-2.11-3.43-4.5-4.47-7.17h-.59v12.95h-26.79ZM158.99,73.57c0,3.84.48,7.15,1.44,9.94.96,2.79,2.33,4.95,4.11,6.47,1.78,1.52,3.9,2.29,6.38,2.29s4.59-.74,6.33-2.23c1.74-1.49,3.08-3.63,4.01-6.42.93-2.79,1.39-6.14,1.39-10.04s-.46-7.25-1.39-10.04c-.93-2.79-2.27-4.93-4.01-6.42-1.74-1.49-3.85-2.24-6.33-2.24s-4.6.75-6.38,2.24c-1.78,1.49-3.15,3.63-4.11,6.42-.96,2.79-1.44,6.14-1.44,10.04Z"/>
      <path d="M248.75,7.81v105.22h-26.99V7.81h26.99Z"/>
      <path d="M262.44,113.03V34.12h26.99v78.92h-26.99ZM275.98,25.89c-3.68,0-6.83-1.27-9.44-3.8-2.61-2.53-3.91-5.58-3.91-9.15s1.3-6.61,3.91-9.15c2.61-2.53,5.74-3.8,9.39-3.8s6.82,1.27,9.41,3.8c2.59,2.54,3.89,5.58,3.89,9.15s-1.3,6.61-3.89,9.15c-2.59,2.54-5.71,3.8-9.36,3.8Z"/>
      <path d="M339.29,114.47c-8.15,0-15.12-1.7-20.92-5.11-5.8-3.41-10.25-8.17-13.35-14.28-3.1-6.11-4.64-13.21-4.64-21.3s1.55-15.18,4.64-21.3c3.1-6.11,7.55-10.88,13.35-14.28,5.8-3.41,12.78-5.11,20.92-5.11s15.12,1.71,20.92,5.11c5.8,3.41,10.25,8.17,13.35,14.28,3.1,6.11,4.64,13.21,4.64,21.3s-1.55,15.18-4.64,21.3c-3.1,6.11-7.55,10.88-13.35,14.28-5.8,3.41-12.78,5.11-20.92,5.11ZM339.49,93.51c2.28,0,4.25-.8,5.92-2.42,1.66-1.61,2.95-3.9,3.86-6.88.91-2.98,1.37-6.53,1.37-10.64s-.46-7.7-1.37-10.66c-.91-2.96-2.2-5.25-3.86-6.86-1.66-1.61-3.63-2.42-5.92-2.42-2.41,0-4.48.81-6.21,2.42-1.73,1.61-3.05,3.9-3.96,6.86-.91,2.96-1.37,6.52-1.37,10.66s.46,7.66,1.37,10.64c.91,2.98,2.23,5.27,3.96,6.88,1.73,1.61,3.8,2.42,6.21,2.42Z"/>
      <path d="M433.94,34.12v20.55h-49.48v-20.55h49.48ZM394.05,15.21h26.99v72.44c0,1.1.18,2.01.54,2.75.36.74.91,1.28,1.66,1.64.75.36,1.71.54,2.88.54.81,0,1.77-.1,2.86-.31,1.09-.21,1.9-.38,2.42-.51l3.91,19.93c-1.21.38-2.93.84-5.16,1.39-2.23.55-4.88.91-7.94,1.08-6.19.34-11.39-.33-15.6-2.03-4.21-1.7-7.37-4.38-9.49-8.04-2.12-3.67-3.15-8.25-3.08-13.77V15.21Z"/>
      <path d="M480.09,114.47c-8.02,0-14.92-1.62-20.71-4.86-5.79-3.24-10.24-7.89-13.35-13.97-3.11-6.08-4.67-13.37-4.67-21.86s1.56-15.28,4.69-21.37,7.55-10.84,13.25-14.23c5.7-3.39,12.43-5.09,20.19-5.09,5.67,0,10.8.92,15.4,2.77s8.52,4.53,11.78,8.04c3.26,3.51,5.77,7.77,7.53,12.77,1.76,5,2.64,10.64,2.64,16.9v6.58h-67.08v-15.62h42.24c-.03-2.26-.58-4.26-1.64-5.99-1.06-1.73-2.48-3.08-4.25-4.06-1.78-.98-3.79-1.46-6.04-1.46s-4.19.49-6.01,1.46c-1.83.98-3.28,2.32-4.38,4.03-1.09,1.71-1.67,3.72-1.74,6.01v16.85c0,2.54.5,4.8,1.52,6.78,1.01,1.99,2.46,3.54,4.35,4.67,1.89,1.13,4.17,1.7,6.84,1.7,1.86,0,3.56-.27,5.11-.82,1.55-.55,2.88-1.34,3.98-2.39,1.11-1.04,1.92-2.3,2.44-3.78h24.64c-.85,5.48-2.85,10.23-6.01,14.26-3.16,4.02-7.34,7.14-12.54,9.35-5.2,2.21-11.27,3.31-18.21,3.31Z"/>
      <path d="M563.99,114.47c-8.15,0-15.12-1.7-20.92-5.11-5.8-3.41-10.25-8.17-13.35-14.28-3.1-6.11-4.64-13.21-4.64-21.3s1.55-15.18,4.64-21.3c3.1-6.11,7.55-10.88,13.35-14.28,5.8-3.41,12.78-5.11,20.92-5.11,7.37,0,13.75,1.4,19.14,4.19,5.39,2.79,9.57,6.73,12.54,11.82,2.97,5.09,4.46,11.06,4.5,17.91h-25.03c-.36-4.14-1.49-7.3-3.4-9.48-1.91-2.17-4.36-3.26-7.36-3.26-2.35,0-4.4.71-6.16,2.13-1.76,1.42-3.13,3.56-4.11,6.42-.98,2.86-1.47,6.45-1.47,10.76s.49,7.9,1.47,10.76c.98,2.86,2.35,5,4.11,6.42,1.76,1.42,3.81,2.13,6.16,2.13,1.99,0,3.75-.49,5.28-1.46,1.53-.98,2.78-2.41,3.74-4.32.96-1.9,1.54-4.22,1.74-6.96h25.03c-.1,6.95-1.61,13.01-4.55,18.16-2.93,5.16-7.08,9.14-12.44,11.95-5.36,2.81-11.76,4.21-19.19,4.21Z"/>
      <path d="M632.23,114.26c-4.79,0-9.02-.83-12.69-2.49-3.67-1.66-6.54-4.19-8.63-7.58s-3.13-7.71-3.13-12.95c0-4.32.7-8.01,2.1-11.07s3.36-5.58,5.87-7.53c2.51-1.95,5.43-3.44,8.78-4.47s6.95-1.7,10.83-2c4.21-.34,7.59-.76,10.14-1.26,2.56-.5,4.41-1.2,5.55-2.11,1.14-.91,1.71-2.11,1.71-3.62v-.21c0-2.05-.75-3.63-2.25-4.73-1.5-1.1-3.42-1.64-5.77-1.64-2.58,0-4.67.59-6.28,1.77s-2.58,2.99-2.91,5.42h-24.84c.33-4.79,1.78-9.22,4.38-13.28,2.59-4.06,6.38-7.31,11.37-9.76,4.99-2.45,11.21-3.67,18.68-3.67,5.38,0,10.2.66,14.47,1.98,4.27,1.32,7.9,3.15,10.9,5.5,3,2.35,5.29,5.09,6.87,8.22,1.58,3.13,2.37,6.53,2.37,10.2v54.05h-25.23v-11.1h-.59c-1.5,2.95-3.32,5.33-5.45,7.14s-4.56,3.13-7.28,3.96c-2.72.82-5.71,1.23-8.97,1.23ZM655.7,5.75h17.01c-.03,6.68-2.46,12.01-7.29,16-4.82,3.99-11.33,5.99-19.51,5.99s-14.78-2-19.61-5.99-7.22-9.33-7.19-16h16.82c-.03,2.16.71,4.14,2.22,5.93s4.1,2.7,7.75,2.7,5.98-.87,7.48-2.62c1.5-1.75,2.26-3.75,2.3-6.01ZM641.03,96.38c2.05,0,3.99-.44,5.79-1.34,1.81-.89,3.28-2.17,4.42-3.85,1.14-1.68,1.71-3.72,1.71-6.11v-6.58c-.72.31-1.48.6-2.27.87-.8.27-1.65.53-2.54.77-.9.24-1.84.46-2.84.67-.99.21-2.03.39-3.1.57-2.09.34-3.79.9-5.11,1.67-1.32.77-2.3,1.71-2.93,2.83-.64,1.11-.95,2.36-.95,3.73,0,2.19.73,3.87,2.2,5.04s3.34,1.75,5.62,1.75Z"/>
      <path d="M251.33,157.18h-7.86v-26.76h8.21c2.47,0,4.58.53,6.34,1.6,1.76,1.07,3.1,2.6,4.04,4.59.94,1.99,1.41,4.37,1.41,7.14s-.47,5.19-1.42,7.19c-.95,2.01-2.32,3.55-4.13,4.63-1.81,1.08-4,1.61-6.59,1.61ZM246.56,154.31h4.58c2.11,0,3.85-.43,5.23-1.28,1.38-.85,2.42-2.07,3.1-3.65.68-1.58,1.02-3.45,1.02-5.63s-.34-4.02-1.01-5.58c-.67-1.56-1.67-2.77-3.01-3.61-1.33-.84-3-1.26-4.99-1.26h-4.92v21.01Z"/>
      <path d="M290.13,143.8c0,2.82-.49,5.26-1.46,7.32s-2.3,3.64-3.99,4.76c-1.69,1.12-3.62,1.67-5.79,1.67s-4.1-.56-5.79-1.67c-1.69-1.12-3.02-2.7-3.99-4.76s-1.46-4.5-1.46-7.32.49-5.26,1.46-7.32,2.3-3.64,3.99-4.76c1.69-1.12,3.62-1.67,5.79-1.67s4.1.56,5.79,1.67c1.69,1.12,3.02,2.7,3.99,4.76s1.46,4.5,1.46,7.32ZM287.14,143.8c0-2.32-.37-4.27-1.1-5.87-.73-1.59-1.72-2.8-2.97-3.62-1.25-.82-2.64-1.23-4.18-1.23s-2.94.41-4.18,1.23c-1.25.82-2.24,2.03-2.97,3.62-.73,1.59-1.1,3.55-1.1,5.87s.37,4.27,1.1,5.87c.73,1.59,1.72,2.8,2.97,3.62,1.25.82,2.64,1.23,4.18,1.23s2.94-.41,4.18-1.23c1.25-.82,2.24-2.03,2.97-3.62.73-1.59,1.1-3.55,1.1-5.87Z"/>
      <path d="M315.79,138.79h-3.08c-.18-.93-.5-1.75-.95-2.46-.45-.71-1-1.3-1.64-1.78s-1.35-.85-2.13-1.09-1.59-.37-2.44-.37c-1.54,0-2.94.41-4.18,1.23-1.25.82-2.24,2.03-2.97,3.62-.73,1.59-1.1,3.55-1.1,5.87s.37,4.27,1.1,5.87c.73,1.59,1.72,2.8,2.97,3.62,1.25.82,2.64,1.23,4.18,1.23.85,0,1.66-.12,2.44-.37s1.49-.61,2.13-1.09,1.19-1.08,1.64-1.79c.45-.71.77-1.53.95-2.45h3.08c-.23,1.37-.65,2.59-1.27,3.67-.61,1.08-1.38,2-2.29,2.75-.91.75-1.93,1.33-3.07,1.72-1.13.39-2.34.59-3.62.59-2.17,0-4.1-.56-5.79-1.67-1.69-1.12-3.02-2.7-3.99-4.76s-1.46-4.5-1.46-7.32.49-5.26,1.46-7.32,2.3-3.64,3.99-4.76c1.69-1.12,3.62-1.67,5.79-1.67,1.29,0,2.49.2,3.62.59,1.13.39,2.15.96,3.07,1.72.91.75,1.67,1.67,2.29,2.74.61,1.08,1.04,2.3,1.27,3.68Z"/>
      <path d="M337.47,130.42h3.08v17.72c0,1.83-.41,3.46-1.22,4.89s-1.97,2.56-3.45,3.38c-1.48.82-3.22,1.24-5.22,1.24s-3.74-.41-5.22-1.24c-1.48-.82-2.63-1.95-3.45-3.38s-1.22-3.06-1.22-4.89v-17.72h3.08v17.46c0,1.31.27,2.47.82,3.48.55,1.01,1.33,1.81,2.34,2.39,1.01.58,2.23.87,3.65.87s2.64-.29,3.66-.87,1.8-1.38,2.34-2.39.81-2.18.81-3.48v-17.46Z"/>
      <path d="M346.72,130.42h3.68l8.65,22.21h.3l8.65-22.21h3.68v26.76h-2.88v-20.33h-.25l-7.96,20.33h-2.79l-7.96-20.33h-.25v20.33h-2.88v-26.76Z"/>
      <path d="M377.86,157.18v-26.76h15.37v2.87h-12.29v9.04h11.49v2.88h-11.49v9.09h12.48v2.88h-15.57Z"/>
      <path d="M418.99,130.42v26.76h-2.98l-13.88-21.01h-.25v21.01h-3.08v-26.76h2.98l13.93,21.06h.25v-21.06h3.03Z"/>
      <path d="M423.76,133.3v-2.87h19.1v2.87h-8.01v23.89h-3.08v-23.89h-8.01Z"/>
      <path d="M447.64,157.18v-26.76h15.37v2.87h-12.29v9.04h11.49v2.88h-11.49v9.09h12.48v2.88h-15.57Z"/>
      <path d="M486.28,157.18h-7.86v-26.76h8.21c2.47,0,4.58.53,6.34,1.6,1.76,1.07,3.1,2.6,4.04,4.59.94,1.99,1.41,4.37,1.41,7.14s-.47,5.19-1.42,7.19c-.95,2.01-2.32,3.55-4.13,4.63-1.81,1.08-4,1.61-6.59,1.61ZM481.51,154.31h4.58c2.11,0,3.85-.43,5.23-1.28,1.38-.85,2.42-2.07,3.1-3.65.68-1.58,1.02-3.45,1.02-5.63s-.34-4.02-1.01-5.58c-.67-1.56-1.67-2.77-3.01-3.61-1.33-.84-3-1.26-4.99-1.26h-4.92v21.01Z"/>
      <path d="M503.59,157.18v-26.76h15.37v2.87h-12.29v9.04h11.49v2.88h-11.49v9.09h12.48v2.88h-15.57Z"/>
      <path d="M537.46,130.42v26.76h-3.08v-26.76h3.08Z"/>
      <path d="M563.82,130.42v26.76h-2.98l-13.88-21.01h-.25v21.01h-3.08v-26.76h2.98l13.93,21.06h.25v-21.06h3.03Z"/>
      <path d="M568.59,133.3v-2.87h19.1v2.87h-8.01v23.89h-3.08v-23.89h-8.01Z"/>
      <path d="M592.46,157.18v-26.76h15.37v2.87h-12.29v9.04h11.49v2.88h-11.49v9.09h12.48v2.88h-15.57Z"/>
      <path d="M613.4,157.18v-26.76h8.6c1.99,0,3.62.35,4.9,1.06s2.22,1.68,2.83,2.92c.61,1.24.92,2.64.92,4.22s-.31,2.98-.92,4.19c-.61,1.22-1.55,2.18-2.82,2.87-1.27.69-2.89,1.04-4.86,1.04h-6.96v-2.93h6.86c1.36,0,2.46-.21,3.29-.63s1.44-1.01,1.82-1.78c.38-.77.57-1.69.57-2.76s-.19-2.01-.57-2.81c-.38-.8-.99-1.42-1.83-1.86-.84-.44-1.94-.66-3.32-.66h-5.42v23.89h-3.08ZM625.39,145.16l6.27,12.02h-3.58l-6.17-12.02h3.48Z"/>
      <path d="M635.78,157.18v-26.76h15.37v2.87h-12.29v9.04h11.49v2.88h-11.49v9.09h12.48v2.88h-15.57Z"/>
      <path d="M670.65,137.11c-.15-1.32-.75-2.35-1.82-3.08-1.06-.73-2.36-1.1-3.9-1.1-1.13,0-2.11.19-2.95.58-.84.38-1.5.91-1.96,1.58-.47.67-.7,1.43-.7,2.29,0,.71.16,1.33.49,1.84.33.51.75.93,1.26,1.27.51.33,1.05.61,1.62.82.56.21,1.08.38,1.55.52l2.59.73c.66.18,1.4.44,2.22.76s1.6.76,2.35,1.31c.75.55,1.37,1.26,1.86,2.12.49.86.73,1.92.73,3.18,0,1.45-.36,2.75-1.08,3.92-.72,1.17-1.76,2.09-3.13,2.78-1.37.69-3.04,1.03-4.99,1.03-1.82,0-3.4-.31-4.73-.93-1.33-.62-2.37-1.48-3.13-2.59-.76-1.11-1.19-2.39-1.29-3.85h3.18c.08,1.01.41,1.84.98,2.5.57.66,1.29,1.15,2.16,1.46.88.32,1.82.48,2.83.48,1.18,0,2.23-.2,3.17-.61.94-.4,1.68-.97,2.23-1.7s.82-1.58.82-2.55c0-.89-.24-1.61-.71-2.17-.47-.56-1.09-1.01-1.86-1.36-.77-.35-1.6-.65-2.5-.92l-3.13-.94c-1.99-.6-3.56-1.46-4.72-2.57-1.16-1.12-1.74-2.57-1.74-4.38,0-1.5.39-2.81,1.16-3.93.77-1.12,1.82-1.99,3.13-2.61s2.78-.93,4.41-.93,3.1.31,4.38.92c1.28.61,2.29,1.45,3.04,2.51.75,1.06,1.15,2.27,1.19,3.62h-2.98Z"/>
    </g>
  </g>
</svg>