<?xml version="1.0" encoding="UTF-8"?>
<svg id="Layer_2" data-name="Layer 2" xmlns="http://www.w3.org/2000/svg" viewBox="0 0 234 153">
  <defs>
    <style>
      .cls-1 {
        fill: #000;
      }

      .cls-1, .cls-2 {
        stroke-width: 0px;
      }

      .cls-3, .cls-4 {
        stroke-linecap: round;
        stroke-linejoin: round;
      }

      .cls-3, .cls-4, .cls-5 {
        stroke: #fff;
      }

      .cls-3, .cls-2 {
        fill: #fff;
      }

      .cls-4, .cls-5 {
        fill: none;
      }

      .cls-5 {
        stroke-miterlimit: 10;
      }
    </style>
  </defs>
  <g id="Layer_1-2" data-name="Layer 1">
    <g id="Login">
      <g>
        <rect class="cls-2" x="12" y="10" width="209" height="51" rx="25.5" ry="25.5"/>
        <rect class="cls-5" x=".5" y=".5" width="233" height="70" rx="35" ry="35"/>
        <line class="cls-4" x1="120.5" y1="70.5" x2="120.5" y2="151.5"/>
        <line class="cls-4" x1="221.5" y1="151.5" x2="120.5" y2="151.5"/>
        <circle class="cls-3" cx="221.5" cy="151.5" r="1"/>
      </g>
      <g>
        <path class="cls-1" d="M83.67,42.32v-16.8h2.03v15h7.81v1.8h-9.85Z"/>
        <path class="cls-1" d="M101.53,42.58c-1.14,0-2.13-.27-2.99-.81-.86-.54-1.52-1.3-2-2.27s-.72-2.11-.72-3.41.24-2.46.72-3.44c.48-.98,1.15-1.74,2-2.28.86-.54,1.85-.81,2.99-.81s2.13.27,2.99.81c.86.54,1.52,1.3,2,2.28.48.98.72,2.12.72,3.44s-.24,2.44-.72,3.41-1.15,1.73-2,2.27c-.86.54-1.85.81-2.99.81ZM101.53,40.84c.86,0,1.58-.22,2.13-.67s.97-1.03,1.24-1.75c.27-.72.4-1.5.4-2.35s-.13-1.63-.4-2.36c-.27-.73-.68-1.32-1.24-1.76s-1.27-.67-2.13-.67-1.58.22-2.13.67-.97,1.04-1.24,1.76c-.27.73-.4,1.51-.4,2.36s.13,1.62.4,2.35c.27.72.68,1.3,1.24,1.75s1.27.67,2.13.67Z"/>
        <path class="cls-1" d="M115.28,47.31c-.94,0-1.74-.12-2.41-.36-.67-.24-1.23-.55-1.68-.94-.45-.39-.8-.8-1.06-1.23l1.54-1.08c.17.23.4.49.67.79.27.3.64.56,1.1.78.47.22,1.08.33,1.84.33,1.02,0,1.86-.25,2.52-.74.66-.49.99-1.26.99-2.31v-2.56h-.16c-.14.23-.34.51-.6.85-.26.34-.63.63-1.12.89-.48.26-1.14.39-1.96.39-1.02,0-1.93-.24-2.74-.72s-1.44-1.18-1.91-2.1-.7-2.04-.7-3.35.23-2.42.68-3.38,1.09-1.7,1.9-2.23c.81-.53,1.75-.79,2.81-.79.82,0,1.47.13,1.96.41.48.27.86.58,1.12.92s.46.62.6.84h.2v-2h1.87v12.96c0,1.08-.25,1.96-.73,2.65-.49.68-1.15,1.18-1.97,1.5-.82.32-1.74.48-2.74.48ZM115.21,40.38c.78,0,1.43-.18,1.97-.53s.94-.87,1.22-1.53.42-1.47.42-2.4-.14-1.71-.41-2.4-.68-1.24-1.21-1.63-1.2-.59-1.99-.59-1.5.21-2.05.62c-.54.42-.95.97-1.22,1.67-.27.7-.41,1.48-.41,2.33s.14,1.65.41,2.32.69,1.2,1.23,1.58c.54.38,1.22.57,2.03.57Z"/>
        <path class="cls-1" d="M125.26,27.62c-.38,0-.7-.13-.97-.39-.27-.26-.41-.57-.41-.93s.13-.67.41-.93c.27-.26.6-.39.97-.39s.7.13.97.39c.27.26.41.57.41.93s-.14.67-.41.93c-.27.26-.59.39-.97.39ZM124.27,42.32v-12.6h1.94v12.6h-1.94Z"/>
        <path class="cls-1" d="M131.69,34.74v7.58h-1.94v-12.6h1.87v1.97h.16c.3-.64.74-1.16,1.35-1.55.6-.39,1.38-.59,2.33-.59.85,0,1.6.17,2.24.52.64.35,1.14.87,1.49,1.58.36.7.53,1.59.53,2.66v8.01h-1.94v-7.88c0-.99-.26-1.76-.77-2.32-.51-.56-1.22-.83-2.12-.83-.62,0-1.17.13-1.65.4-.48.27-.87.66-1.14,1.17-.28.51-.42,1.14-.42,1.87Z"/>
      </g>
    </g>
  </g>
</svg>