<?xml version="1.0" encoding="UTF-8"?>
<svg xmlns="http://www.w3.org/2000/svg" xmlns:xlink="http://www.w3.org/1999/xlink" viewBox="0 0 1834 992">
  <defs>
    <style>
      .cls-1, .cls-2, .cls-3 {
        mix-blend-mode: multiply;
      }

      .cls-1, .cls-4 {
        fill: #eff0f0;
      }

      .cls-5 {
        fill: #f2f2f2;
      }

      .cls-6 {
        isolation: isolate;
      }

      .cls-3, .cls-7 {
        fill: #ced1d2;
      }

      .cls-8 {
        fill: #0047ba;
      }

      .cls-9 {
        clip-path: url(#clippath);
      }

      .cls-10 {
        fill: #e6e6e6;
      }
    </style>
    <clipPath id="clippath">
      <rect class="cls-5" width="1834" height="992"/>
    </clipPath>
  </defs>
  <g class="cls-6">
    <g id="Layer_2" data-name="Layer 2">
      <g id="Layer_1-2" data-name="Layer 1">
        <g>
          <rect class="cls-5" width="1834" height="992"/>
          <g class="cls-9">
            <rect class="cls-10" x="-43.5" y="-19.5" width="1897" height="1031"/>
            <g id="Background">
              <path id="Background-2" data-name="Background" class="cls-8" d="M-58.77,174.97c75.37,2.8,122.82,4.56,158.27,36.53,53.87,48.57,43.54,133.98,43,138-11.27,83.25-76.26,80.85-101,162-31.06,101.88,54.41,161.35,9,261-6.51,14.29-21.91,43-52,67-42.69,34.05-89.87,38.59-119.16,41.03-194.91,16.21-324.95-108.25-324.95-108.25-206.86,7.59-291.85-362.91-94.09-450.74,72.81-32.34,91.58-11.15,396.32-143.31,28.72-12.45,55.04-4.35,84.61-3.25Z"/>
            </g>
            <g>
              <g class="cls-2">
                <path class="cls-4" d="M582.48,539.7l-23.88-13.79,23.88-13.79v27.58ZM562.98,525.91l17.3,9.99v-19.98l-17.3,9.99Z"/>
                <path class="cls-4" d="M555.05,539.7l-23.88-13.79,23.88-13.79v27.58ZM535.56,525.91l17.3,9.99v-19.98l-17.3,9.99Z"/>
                <path class="cls-4" d="M527.63,539.7l-23.88-13.79,23.88-13.79v27.58ZM508.14,525.91l17.3,9.99v-19.98l-17.3,9.99Z"/>
                <path class="cls-4" d="M500.21,539.7l-23.88-13.79,23.88-13.79v27.58ZM480.72,525.91l17.3,9.99v-19.98l-17.3,9.99Z"/>
                <path class="cls-4" d="M472.79,539.7l-23.88-13.79,23.88-13.79v27.58ZM453.29,525.91l17.3,9.99v-19.98l-17.3,9.99Z"/>
              </g>
              <g class="cls-2">
                <path class="cls-4" d="M1276.61,287.45v-59.04l51.13,29.52-51.13,29.52ZM1278.81,232.2v51.44l44.55-25.72-44.55-25.72Z"/>
                <polygon class="cls-4" points="1341.42 230.3 1389.26 257.92 1341.42 285.55 1341.42 230.3"/>
                <polygon class="cls-4" points="1405.13 230.3 1452.97 257.92 1405.13 285.55 1405.13 230.3"/>
                <path class="cls-4" d="M1467.75,287.45v-59.04l51.13,29.52-51.13,29.52ZM1469.94,232.2v51.44l44.55-25.72-44.55-25.72Z"/>
                <path class="cls-4" d="M1531.46,287.45v-59.04l51.13,29.52-51.13,29.52ZM1533.66,232.2v51.44l44.55-25.72-44.55-25.72Z"/>
              </g>
              <g class="cls-2">
                <polygon class="cls-4" points="1396.86 650.45 1421.03 664.41 1396.86 678.37 1396.86 650.45"/>
                <polygon class="cls-4" points="1429.05 650.45 1453.23 664.41 1429.05 678.37 1429.05 650.45"/>
                <polygon class="cls-4" points="1461.25 650.45 1485.43 664.41 1461.25 678.37 1461.25 650.45"/>
                <polygon class="cls-4" points="1493.45 650.45 1517.62 664.41 1493.45 678.37 1493.45 650.45"/>
                <polygon class="cls-4" points="1525.64 650.45 1549.82 664.41 1525.64 678.37 1525.64 650.45"/>
              </g>
              <polygon class="cls-1" points="1665.38 344.04 1685.97 355.92 1665.38 367.81 1665.38 344.04"/>
              <polygon class="cls-1" points="131.86 434.76 111.27 422.87 131.86 410.98 131.86 434.76"/>
              <polygon class="cls-1" points="159.44 561.57 138.85 549.69 159.44 537.8 159.44 561.57"/>
              <polygon class="cls-1" points="227.19 602.01 206.59 590.12 227.19 578.23 227.19 602.01"/>
              <polygon class="cls-1" points="1675.68 536.13 1696.27 548.02 1675.68 559.91 1675.68 536.13"/>
              <polygon class="cls-1" points="1607.32 578.23 1627.91 590.12 1607.32 602.01 1607.32 578.23"/>
              <polygon class="cls-3" points="1455.94 450.23 1476.53 462.11 1455.94 474 1455.94 450.23"/>
              <polygon class="cls-3" points="378.57 474 357.98 462.11 378.57 450.23 378.57 474"/>
              <polygon class="cls-3" points="169.13 645.58 148.54 633.69 169.13 621.8 169.13 645.58"/>
              <polygon class="cls-3" points="1702.65 624.97 1723.24 636.85 1702.65 648.74 1702.65 624.97"/>
              <g class="cls-2">
                <polygon class="cls-4" points="1372.77 414.82 1154.76 414.82 1154.76 412.63 1371.86 412.63 1429.66 354.83 1665.38 354.83 1665.38 357.02 1430.57 357.02 1372.77 414.82"/>
              </g>
              <g class="cls-2">
                <polygon class="cls-7" points="1570.58 454.46 1492.05 375.93 1168.71 375.93 1168.71 373.73 1492.95 373.73 1572.13 452.91 1570.58 454.46"/>
              </g>
              <g class="cls-2">
                <polygon class="cls-4" points="1403.96 632.55 1138.3 632.55 1138.3 630.36 1403.05 630.36 1485.71 547.69 1675.07 547.69 1675.07 549.89 1486.62 549.89 1403.96 632.55"/>
              </g>
              <g class="cls-2">
                <polygon class="cls-7" points="1582.17 692.66 1491.64 692.66 1336.22 537.23 1168.71 537.23 1168.71 535.04 1337.13 535.04 1492.55 690.46 1581.26 690.46 1636.17 635.56 1702.65 635.56 1702.65 637.75 1637.08 637.75 1582.17 692.66"/>
              </g>
              <g class="cls-2">
                <rect class="cls-4" x="1159.49" y="589.02" width="447.83" height="2.19"/>
              </g>
              <g class="cls-2">
                <rect class="cls-7" x="1168.71" y="461.02" width="287.23" height="2.19"/>
              </g>
              <g class="cls-2">
                <polygon class="cls-7" points="679.74 692.59 461.74 692.59 403.94 634.79 169.13 634.79 169.13 632.59 404.84 632.59 462.65 690.39 679.74 690.39 679.74 692.59"/>
              </g>
              <g class="cls-2">
                <polygon class="cls-7" points="210.48 507.91 208.93 506.36 341.55 373.73 665.8 373.73 665.8 375.93 342.46 375.93 210.48 507.91"/>
              </g>
              <g class="cls-2">
                <polygon class="cls-4" points="696.21 632.55 430.55 632.55 347.88 549.89 159.44 549.89 159.44 547.69 348.79 547.69 431.46 630.36 696.21 630.36 696.21 632.55"/>
              </g>
              <g class="cls-2">
                <polygon class="cls-4" points="342.86 479.02 252.34 479.02 197.43 424.12 131.86 424.12 131.86 421.92 198.34 421.92 253.24 476.83 341.96 476.83 497.38 321.4 665.8 321.4 665.8 323.6 498.29 323.6 342.86 479.02"/>
              </g>
              <g class="cls-2">
                <rect class="cls-4" x="227.18" y="589.02" width="447.83" height="2.19"/>
              </g>
              <g class="cls-2">
                <rect class="cls-7" x="378.57" y="461.02" width="287.23" height="2.19"/>
              </g>
              <g class="cls-2">
                <path class="cls-7" d="M1390.85,529.04h-14.55l-7.27-12.6,7.27-12.6h14.55l7.27,12.6-7.27,12.6ZM1377.57,526.85h12.01l6.01-10.4-6.01-10.4h-12.01l-6.01,10.4,6.01,10.4Z"/>
              </g>
              <polygon class="cls-1" points="1421.54 504.94 1408.26 504.94 1401.62 516.44 1408.26 527.94 1421.54 527.94 1428.18 516.44 1421.54 504.94"/>
              <polygon class="cls-1" points="1452.86 504.94 1439.58 504.94 1432.94 516.44 1439.58 527.94 1452.86 527.94 1459.5 516.44 1452.86 504.94"/>
              <g class="cls-2">
                <path class="cls-4" d="M482.64,263.72h-46.63l-23.31-40.38,23.31-40.38h46.63l23.31,40.38-23.31,40.38ZM437.28,261.53h44.1l22.05-38.19-22.05-38.19h-44.1l-22.05,38.19,22.05,38.19Z"/>
              </g>
              <polygon class="cls-1" points="405.33 826.92 392.33 826.92 385.83 838.18 392.33 849.44 405.33 849.44 411.83 838.18 405.33 826.92"/>
              <g class="cls-2">
                <path class="cls-7" d="M351.61,796.87h-29.45l-14.72-25.5,14.72-25.5h29.45l14.72,25.5-14.72,25.5ZM323.42,794.67h26.91l13.46-23.31-13.46-23.31h-26.91l-13.46,23.31,13.46,23.31Z"/>
              </g>
              <g class="cls-2">
                <path class="cls-4" d="M581.26,247.09h-27.43l-13.71-23.75,13.71-23.75h27.43l13.71,23.75-13.71,23.75ZM555.1,244.9h24.89l12.45-21.56-12.45-21.56h-24.89l-12.45,21.56,12.45,21.56Z"/>
              </g>
              <g class="cls-2">
                <path class="cls-7" d="M547.76,155.32h-14.95l-7.47-12.94,7.47-12.94h14.95l7.47,12.94-7.47,12.94ZM534.09,153.13h12.41l6.21-10.75-6.21-10.75h-12.41l-6.21,10.75,6.21,10.75Z"/>
              </g>
              <g class="cls-2">
                <path class="cls-4" d="M1335.64,798.99h-46.63l-23.31-40.38,23.31-40.38h46.63l23.31,40.38-23.31,40.38ZM1290.27,796.8h44.1l22.05-38.19-22.05-38.19h-44.1l-22.05,38.19,22.05,38.19Z"/>
              </g>
              <g class="cls-2">
                <path class="cls-4" d="M1357.85,911.35h-27.43l-13.71-23.75,13.71-23.75h27.43l13.71,23.75-13.71,23.75ZM1331.7,909.15h24.89l12.45-21.56-12.45-21.56h-24.89l-12.45,21.56,12.45,21.56Z"/>
              </g>
            </g>
          </g>
        </g>
      </g>
    </g>
  </g>
</svg>