<?xml version="1.0" encoding="UTF-8"?>
<svg id="Layer_2" data-name="Layer 2" xmlns="http://www.w3.org/2000/svg" viewBox="0 0 217.19 68.25">
  <defs>
    <style>
      .cls-1 {
        fill: #fcab02;
      }

      .cls-2 {
        fill: #fff;
      }

      .cls-3 {
        fill: #d13f23;
      }

      .cls-4 {
        fill: #0047ba;
      }
    </style>
  </defs>
  <g id="Layer_1-2" data-name="Layer 1">
    <g>
      <path class="cls-4" d="M6.97,2.49L.07,35.3c-.41,1.95,1.08,3.78,3.07,3.78h71.2c1.99,0,3.48,1.83,3.07,3.78l-4.54,21.6c-.41,1.95,1.08,3.78,3.07,3.78h125.09c1.48,0,2.76-1.04,3.07-2.49l13.03-61.97c.41-1.95-1.08-3.78-3.07-3.78H10.03c-1.48,0-2.76,1.04-3.07,2.49Z"/>
      <g>
        <g>
          <circle class="cls-3" cx="57.65" cy="19.79" r="4.7"/>
          <circle class="cls-2" cx="74.55" cy="19.79" r="4.7"/>
        </g>
        <g>
          <circle cx="22.61" cy="19.79" r="4.7"/>
          <circle class="cls-1" cx="39.5" cy="19.79" r="4.7"/>
        </g>
      </g>
    </g>
    <g>
      <path class="cls-2" d="M93.59,51.37l7.8-31.27h13.5c2.32,0,4.25.42,5.78,1.27,1.53.85,2.58,2.06,3.15,3.65.57,1.59.58,3.49.03,5.71s-1.53,4.13-2.9,5.67c-1.38,1.54-3.06,2.7-5.04,3.48-1.98.78-4.16,1.18-6.55,1.18h-8.06l1.64-6.6h6.35c1,0,1.88-.12,2.65-.37.77-.25,1.41-.65,1.93-1.2s.89-1.27,1.11-2.15.21-1.63-.03-2.19-.68-.98-1.32-1.25c-.64-.27-1.46-.4-2.46-.4h-2.99l-6.11,24.49h-8.49ZM115.5,37.02l4.24,14.35h-9.22l-4.06-14.35h9.04Z"/>
      <path class="cls-2" d="M146.67,29.87c.17-1.02,0-1.81-.54-2.38-.54-.57-1.49-.85-2.86-.85-.88,0-1.62.1-2.22.31-.61.21-1.09.49-1.44.85s-.59.76-.72,1.22c-.11.38-.13.72-.05,1.02.08.3.27.57.55.81s.68.46,1.17.65c.49.19,1.09.37,1.79.52l2.43.55c1.64.37,3,.85,4.08,1.45,1.08.6,1.91,1.31,2.5,2.11.58.81.93,1.72,1.05,2.73.12,1.01.04,2.11-.25,3.3-.52,2.06-1.47,3.8-2.84,5.22-1.37,1.43-3.1,2.51-5.17,3.25-2.07.74-4.43,1.11-7.08,1.11s-4.99-.4-6.81-1.21c-1.82-.8-3.08-2.04-3.78-3.72-.7-1.67-.73-3.82-.08-6.44h8.06c-.19.96-.15,1.76.12,2.41s.74,1.15,1.44,1.48c.69.34,1.58.5,2.66.5.91,0,1.69-.11,2.36-.34.67-.22,1.21-.53,1.62-.93.41-.4.69-.85.83-1.36.11-.48.06-.9-.15-1.26-.21-.36-.62-.69-1.23-.98-.61-.29-1.46-.56-2.56-.82l-2.95-.67c-2.62-.6-4.55-1.61-5.79-3.02-1.24-1.41-1.55-3.34-.93-5.78.48-1.99,1.45-3.72,2.9-5.21s3.23-2.65,5.34-3.49c2.12-.83,4.41-1.25,6.89-1.25s4.6.42,6.23,1.27c1.63.85,2.76,2.03,3.38,3.57s.68,3.32.18,5.37h-8.12Z"/>
      <path class="cls-2" d="M177.46,29.87c.17-1.02,0-1.81-.54-2.38-.54-.57-1.49-.85-2.86-.85-.88,0-1.62.1-2.22.31-.61.21-1.09.49-1.44.85s-.59.76-.72,1.22c-.11.38-.13.72-.05,1.02.08.3.27.57.55.81s.68.46,1.17.65c.49.19,1.09.37,1.79.52l2.43.55c1.64.37,3,.85,4.08,1.45,1.08.6,1.91,1.31,2.5,2.11.58.81.93,1.72,1.05,2.73.12,1.01.04,2.11-.25,3.3-.52,2.06-1.47,3.8-2.84,5.22-1.37,1.43-3.1,2.51-5.17,3.25-2.07.74-4.43,1.11-7.08,1.11s-4.99-.4-6.81-1.21c-1.82-.8-3.08-2.04-3.78-3.72-.7-1.67-.73-3.82-.08-6.44h8.06c-.19.96-.15,1.76.12,2.41s.74,1.15,1.44,1.48c.69.34,1.58.5,2.66.5.91,0,1.69-.11,2.36-.34.67-.22,1.21-.53,1.62-.93.41-.4.69-.85.83-1.36.11-.48.06-.9-.15-1.26-.21-.36-.62-.69-1.23-.98-.61-.29-1.46-.56-2.56-.82l-2.95-.67c-2.62-.6-4.55-1.61-5.79-3.02-1.24-1.41-1.55-3.34-.93-5.78.48-1.99,1.45-3.72,2.9-5.21s3.23-2.65,5.34-3.49c2.12-.83,4.41-1.25,6.89-1.25s4.6.42,6.23,1.27c1.63.85,2.76,2.03,3.38,3.57s.68,3.32.18,5.37h-8.12Z"/>
    </g>
  </g>
</svg>