<?xml version="1.0" encoding="UTF-8"?>
<svg id="Layer_2" data-name="Layer 2" xmlns="http://www.w3.org/2000/svg" viewBox="0 0 217.3 68.25">
  <defs>
    <style>
      .cls-1 {
        fill: #0047ba;
      }

      .cls-1, .cls-2, .cls-3, .cls-4, .cls-5 {
        stroke-width: 0px;
      }

      .cls-2 {
        fill: #000;
      }

      .cls-3 {
        fill: #fcab02;
      }

      .cls-4 {
        fill: #fff;
      }

      .cls-5 {
        fill: #d13f23;
      }
    </style>
  </defs>
  <g id="Layer_1-2" data-name="Layer 1">
    <g>
      <path class="cls-1" d="M7.08,2.49L.18,35.3c-.41,1.95,1.08,3.78,3.07,3.78h71.2c1.99,0,3.48,1.83,3.07,3.78l-4.54,21.6c-.41,1.95,1.08,3.78,3.07,3.78h125.09c1.48,0,2.76-1.04,3.07-2.49l13.03-61.97c.41-1.95-1.08-3.78-3.07-3.78H10.15c-1.48,0-2.76,1.04-3.07,2.49Z"/>
      <g>
        <g>
          <g>
            <path class="cls-2" d="M31.99,16.35c-.14-.5-.34-.94-.6-1.32-.26-.39-.57-.71-.95-.98-.37-.27-.79-.48-1.27-.62-.47-.14-1-.21-1.57-.21-1.07,0-2.01.27-2.82.8-.81.53-1.44,1.3-1.89,2.32s-.67,2.25-.67,3.71.22,2.7.67,3.72c.44,1.02,1.07,1.8,1.88,2.34s1.77.8,2.87.8c1,0,1.86-.18,2.57-.54.71-.36,1.26-.86,1.64-1.52.38-.65.57-1.43.57-2.32l.9.13h-5.4v-3.33h8.76v2.64c0,1.84-.39,3.42-1.17,4.74s-1.85,2.33-3.21,3.05c-1.36.71-2.93,1.07-4.68,1.07-1.96,0-3.69-.43-5.18-1.3s-2.64-2.11-3.47-3.71c-.83-1.61-1.24-3.51-1.24-5.72,0-1.7.25-3.21.74-4.55.49-1.33,1.19-2.46,2.08-3.39.89-.93,1.93-1.63,3.12-2.12s2.47-.73,3.86-.73c1.19,0,2.29.17,3.31.52,1.02.34,1.93.83,2.73,1.46s1.44,1.37,1.95,2.23c.5.86.83,1.81.97,2.85h-4.5Z"/>
            <path class="cls-2" d="M44.4,30.53h-4.75l7.23-20.95h5.71l7.22,20.95h-4.75l-5.25-16.16h-.16l-5.26,16.16ZM44.11,22.29h11.21v3.46h-11.21v-3.46Z"/>
            <path class="cls-2" d="M63.77,30.53V9.58h4.43v17.29h8.98v3.65h-13.41Z"/>
            <path class="cls-2" d="M99.99,20.05c0,2.29-.43,4.23-1.29,5.83s-2.04,2.83-3.52,3.67c-1.48.84-3.15,1.26-5,1.26s-3.53-.42-5.01-1.27c-1.48-.85-2.65-2.07-3.51-3.67s-1.29-3.54-1.29-5.82.43-4.23,1.29-5.83,2.03-2.83,3.51-3.67,3.15-1.26,5.01-1.26,3.51.42,5,1.26c1.48.84,2.66,2.06,3.52,3.67s1.29,3.54,1.29,5.83ZM95.5,20.05c0-1.48-.22-2.73-.66-3.74-.44-1.02-1.06-1.79-1.86-2.31-.8-.52-1.73-.79-2.8-.79s-2,.26-2.8.79c-.8.53-1.42,1.3-1.86,2.31-.44,1.02-.66,2.26-.66,3.74s.22,2.73.66,3.74c.44,1.02,1.06,1.79,1.86,2.31.8.52,1.73.79,2.8.79s2-.26,2.8-.79c.8-.53,1.42-1.3,1.86-2.31.44-1.02.66-2.26.66-3.74Z"/>
            <path class="cls-2" d="M116.06,15.6c-.08-.83-.43-1.47-1.05-1.92-.62-.46-1.46-.69-2.53-.69-.72,0-1.33.1-1.83.3-.5.2-.88.48-1.14.83-.26.36-.39.76-.39,1.21-.01.38.07.7.24.98.17.28.41.52.72.72s.66.38,1.06.52.83.27,1.29.37l1.88.45c.91.21,1.75.48,2.52.82s1.43.76,1.98,1.26c.56.5.99,1.08,1.3,1.76.31.67.47,1.45.48,2.32,0,1.28-.33,2.39-.98,3.33-.64.94-1.57,1.66-2.78,2.18-1.21.51-2.67.77-4.37.77s-3.16-.26-4.41-.78c-1.25-.52-2.23-1.29-2.92-2.31-.7-1.02-1.07-2.28-1.1-3.79h4.29c.05.7.25,1.29.61,1.75.36.47.84.82,1.44,1.05.6.23,1.29.35,2.05.35s1.4-.11,1.96-.33c.56-.22.99-.52,1.29-.91.31-.39.46-.84.46-1.34,0-.47-.14-.87-.41-1.19-.28-.32-.68-.59-1.21-.82s-1.17-.43-1.94-.61l-2.28-.57c-1.77-.43-3.16-1.1-4.18-2.01s-1.53-2.14-1.52-3.69c0-1.27.33-2.38,1.02-3.32.68-.95,1.63-1.69,2.83-2.22,1.2-.53,2.56-.8,4.09-.8s2.91.27,4.08.8c1.16.53,2.07,1.27,2.72,2.22.65.95.98,2.05,1,3.29h-4.24Z"/>
            <path class="cls-2" d="M125,30.53V9.58h13.87v3.65h-9.44v4.99h8.52v3.65h-8.52v8.65h-4.43Z"/>
            <path class="cls-2" d="M143.28,30.53V9.58h14.11v3.65h-9.69v4.99h8.96v3.65h-8.96v5h9.73v3.65h-14.16Z"/>
            <path class="cls-2" d="M162.37,30.53V9.58h8.26c1.58,0,2.93.28,4.05.84,1.12.56,1.98,1.36,2.57,2.38s.88,2.23.88,3.62-.3,2.59-.9,3.58c-.6,1-1.47,1.76-2.6,2.3-1.14.53-2.51.8-4.12.8h-5.53v-3.56h4.82c.85,0,1.55-.12,2.11-.35.56-.23.98-.58,1.25-1.04.28-.46.41-1.04.41-1.73s-.14-1.28-.41-1.76-.7-.84-1.26-1.09-1.27-.37-2.12-.37h-2.99v17.33h-4.43ZM173.68,20.99l5.21,9.53h-4.89l-5.09-9.53h4.78Z"/>
            <path class="cls-2" d="M186.32,30.53h-4.75l7.23-20.95h5.71l7.22,20.95h-4.75l-5.25-16.16h-.16l-5.26,16.16ZM186.02,22.29h11.21v3.46h-11.21v-3.46Z"/>
          </g>
          <g>
            <path class="cls-4" d="M31.99,16.35c-.14-.5-.34-.94-.6-1.32-.26-.39-.57-.71-.95-.98-.37-.27-.79-.48-1.27-.62-.47-.14-1-.21-1.57-.21-1.07,0-2.01.27-2.82.8-.81.53-1.44,1.3-1.89,2.32s-.67,2.25-.67,3.71.22,2.7.67,3.72c.44,1.02,1.07,1.8,1.88,2.34s1.77.8,2.87.8c1,0,1.86-.18,2.57-.54.71-.36,1.26-.86,1.64-1.52.38-.65.57-1.43.57-2.32l.9.13h-5.4v-3.33h8.76v2.64c0,1.84-.39,3.42-1.17,4.74s-1.85,2.33-3.21,3.05c-1.36.71-2.93,1.07-4.68,1.07-1.96,0-3.69-.43-5.18-1.3s-2.64-2.11-3.47-3.71c-.83-1.61-1.24-3.51-1.24-5.72,0-1.7.25-3.21.74-4.55.49-1.33,1.19-2.46,2.08-3.39.89-.93,1.93-1.63,3.12-2.12s2.47-.73,3.86-.73c1.19,0,2.29.17,3.31.52,1.02.34,1.93.83,2.73,1.46s1.44,1.37,1.95,2.23c.5.86.83,1.81.97,2.85h-4.5Z"/>
            <path class="cls-4" d="M44.4,30.53h-4.75l7.23-20.95h5.71l7.22,20.95h-4.75l-5.25-16.16h-.16l-5.26,16.16ZM44.11,22.29h11.21v3.46h-11.21v-3.46Z"/>
            <path class="cls-4" d="M63.77,30.53V9.58h4.43v17.29h8.98v3.65h-13.41Z"/>
            <path class="cls-4" d="M99.99,20.05c0,2.29-.43,4.23-1.29,5.83s-2.04,2.83-3.52,3.67c-1.48.84-3.15,1.26-5,1.26s-3.53-.42-5.01-1.27c-1.48-.85-2.65-2.07-3.51-3.67s-1.29-3.54-1.29-5.82.43-4.23,1.29-5.83,2.03-2.83,3.51-3.67,3.15-1.26,5.01-1.26,3.51.42,5,1.26c1.48.84,2.66,2.06,3.52,3.67s1.29,3.54,1.29,5.83ZM95.5,20.05c0-1.48-.22-2.73-.66-3.74-.44-1.02-1.06-1.79-1.86-2.31-.8-.52-1.73-.79-2.8-.79s-2,.26-2.8.79c-.8.53-1.42,1.3-1.86,2.31-.44,1.02-.66,2.26-.66,3.74s.22,2.73.66,3.74c.44,1.02,1.06,1.79,1.86,2.31.8.52,1.73.79,2.8.79s2-.26,2.8-.79c.8-.53,1.42-1.3,1.86-2.31.44-1.02.66-2.26.66-3.74Z"/>
            <path class="cls-4" d="M116.06,15.6c-.08-.83-.43-1.47-1.05-1.92-.62-.46-1.46-.69-2.53-.69-.72,0-1.33.1-1.83.3-.5.2-.88.48-1.14.83-.26.36-.39.76-.39,1.21-.01.38.07.7.24.98.17.28.41.52.72.72s.66.38,1.06.52.83.27,1.29.37l1.88.45c.91.21,1.75.48,2.52.82s1.43.76,1.98,1.26c.56.5.99,1.08,1.3,1.76.31.67.47,1.45.48,2.32,0,1.28-.33,2.39-.98,3.33-.64.94-1.57,1.66-2.78,2.18-1.21.51-2.67.77-4.37.77s-3.16-.26-4.41-.78c-1.25-.52-2.23-1.29-2.92-2.31-.7-1.02-1.07-2.28-1.1-3.79h4.29c.05.7.25,1.29.61,1.75.36.47.84.82,1.44,1.05.6.23,1.29.35,2.05.35s1.4-.11,1.96-.33c.56-.22.99-.52,1.29-.91.31-.39.46-.84.46-1.34,0-.47-.14-.87-.41-1.19-.28-.32-.68-.59-1.21-.82s-1.17-.43-1.94-.61l-2.28-.57c-1.77-.43-3.16-1.1-4.18-2.01s-1.53-2.14-1.52-3.69c0-1.27.33-2.38,1.02-3.32.68-.95,1.63-1.69,2.83-2.22,1.2-.53,2.56-.8,4.09-.8s2.91.27,4.08.8c1.16.53,2.07,1.27,2.72,2.22.65.95.98,2.05,1,3.29h-4.24Z"/>
            <path class="cls-4" d="M125,30.53V9.58h13.87v3.65h-9.44v4.99h8.52v3.65h-8.52v8.65h-4.43Z"/>
            <path class="cls-4" d="M143.28,30.53V9.58h14.11v3.65h-9.69v4.99h8.96v3.65h-8.96v5h9.73v3.65h-14.16Z"/>
            <path class="cls-4" d="M162.37,30.53V9.58h8.26c1.58,0,2.93.28,4.05.84,1.12.56,1.98,1.36,2.57,2.38s.88,2.23.88,3.62-.3,2.59-.9,3.58c-.6,1-1.47,1.76-2.6,2.3-1.14.53-2.51.8-4.12.8h-5.53v-3.56h4.82c.85,0,1.55-.12,2.11-.35.56-.23.98-.58,1.25-1.04.28-.46.41-1.04.41-1.73s-.14-1.28-.41-1.76-.7-.84-1.26-1.09-1.27-.37-2.12-.37h-2.99v17.33h-4.43ZM173.68,20.99l5.21,9.53h-4.89l-5.09-9.53h4.78Z"/>
            <path class="cls-4" d="M186.32,30.53h-4.75l7.23-20.95h5.71l7.22,20.95h-4.75l-5.25-16.16h-.16l-5.26,16.16ZM186.02,22.29h11.21v3.46h-11.21v-3.46Z"/>
          </g>
        </g>
        <g>
          <g>
            <path class="cls-2" d="M123.84,45.37c-.11-.92-.55-1.64-1.33-2.15-.78-.51-1.73-.76-2.85-.76-.82,0-1.54.13-2.16.4s-1.09.63-1.44,1.1-.51,1-.51,1.59c0,.5.12.92.36,1.28s.55.65.92.88.77.42,1.18.57.79.27,1.14.36l1.89.51c.49.13,1.03.3,1.62.53.6.22,1.17.53,1.72.91.55.38,1,.88,1.36,1.48.36.6.54,1.34.54,2.21,0,1.01-.26,1.92-.79,2.73s-1.29,1.46-2.29,1.94c-1,.48-2.22.72-3.65.72-1.33,0-2.49-.21-3.46-.65-.97-.43-1.74-1.03-2.29-1.8s-.87-1.66-.94-2.68h2.33c.06.7.3,1.28.71,1.74.42.46.94.8,1.58,1.02.64.22,1.33.33,2.07.33.86,0,1.63-.14,2.32-.42.69-.28,1.23-.68,1.63-1.18.4-.51.6-1.1.6-1.78,0-.62-.17-1.12-.52-1.51-.34-.39-.8-.7-1.36-.95s-1.17-.45-1.83-.64l-2.29-.65c-1.46-.42-2.61-1.01-3.46-1.79-.85-.78-1.27-1.79-1.27-3.05,0-1.04.28-1.95.85-2.73.57-.78,1.33-1.38,2.29-1.82.96-.43,2.04-.65,3.22-.65s2.27.21,3.2.64c.93.43,1.67,1.01,2.22,1.75.55.74.84,1.58.87,2.52h-2.18ZM117.46,65.84l1.02-4.71h2.2l-1.55,4.71h-1.67Z"/>
            <path class="cls-2" d="M130.25,42.71v-2h13.96v2h-5.86v16.62h-2.25v-16.62h-5.85Z"/>
            <path class="cls-2" d="M151.24,40.71v18.62h-2.25v-18.62h2.25Z"/>
            <path class="cls-2" d="M157.03,59.33v-18.62h6.29c1.46,0,2.65.25,3.58.74s1.62,1.17,2.07,2.03c.45.86.67,1.84.67,2.94s-.22,2.07-.67,2.92c-.45.85-1.14,1.51-2.06,2-.93.48-2.11.72-3.55.72h-5.09v-2.04h5.02c.99,0,1.79-.15,2.4-.44s1.05-.7,1.33-1.24c.28-.54.41-1.18.41-1.92s-.14-1.4-.42-1.95c-.28-.56-.72-.99-1.34-1.3-.61-.31-1.42-.46-2.43-.46h-3.96v16.62h-2.25ZM165.79,50.97l4.58,8.36h-2.62l-4.51-8.36h2.55Z"/>
            <path class="cls-2" d="M176.93,40.71v18.62h-2.25v-18.62h2.25Z"/>
          </g>
          <g>
            <path class="cls-4" d="M123.84,45.37c-.11-.92-.55-1.64-1.33-2.15-.78-.51-1.73-.76-2.85-.76-.82,0-1.54.13-2.16.4s-1.09.63-1.44,1.1-.51,1-.51,1.59c0,.5.12.92.36,1.28s.55.65.92.88.77.42,1.18.57.79.27,1.14.36l1.89.51c.49.13,1.03.3,1.62.53.6.22,1.17.53,1.72.91.55.38,1,.88,1.36,1.48.36.6.54,1.34.54,2.21,0,1.01-.26,1.92-.79,2.73s-1.29,1.46-2.29,1.94c-1,.48-2.22.72-3.65.72-1.33,0-2.49-.21-3.46-.65-.97-.43-1.74-1.03-2.29-1.8s-.87-1.66-.94-2.68h2.33c.06.7.3,1.28.71,1.74.42.46.94.8,1.58,1.02.64.22,1.33.33,2.07.33.86,0,1.63-.14,2.32-.42.69-.28,1.23-.68,1.63-1.18.4-.51.6-1.1.6-1.78,0-.62-.17-1.12-.52-1.51-.34-.39-.8-.7-1.36-.95s-1.17-.45-1.83-.64l-2.29-.65c-1.46-.42-2.61-1.01-3.46-1.79-.85-.78-1.27-1.79-1.27-3.05,0-1.04.28-1.95.85-2.73.57-.78,1.33-1.38,2.29-1.82.96-.43,2.04-.65,3.22-.65s2.27.21,3.2.64c.93.43,1.67,1.01,2.22,1.75.55.74.84,1.58.87,2.52h-2.18ZM117.46,65.84l1.02-4.71h2.2l-1.55,4.71h-1.67Z"/>
            <path class="cls-4" d="M130.25,42.71v-2h13.96v2h-5.86v16.62h-2.25v-16.62h-5.85Z"/>
            <path class="cls-4" d="M151.24,40.71v18.62h-2.25v-18.62h2.25Z"/>
            <path class="cls-4" d="M157.03,59.33v-18.62h6.29c1.46,0,2.65.25,3.58.74s1.62,1.17,2.07,2.03c.45.86.67,1.84.67,2.94s-.22,2.07-.67,2.92c-.45.85-1.14,1.51-2.06,2-.93.48-2.11.72-3.55.72h-5.09v-2.04h5.02c.99,0,1.79-.15,2.4-.44s1.05-.7,1.33-1.24c.28-.54.41-1.18.41-1.92s-.14-1.4-.42-1.95c-.28-.56-.72-.99-1.34-1.3-.61-.31-1.42-.46-2.43-.46h-3.96v16.62h-2.25ZM165.79,50.97l4.58,8.36h-2.62l-4.51-8.36h2.55Z"/>
            <path class="cls-4" d="M176.93,40.71v18.62h-2.25v-18.62h2.25Z"/>
          </g>
        </g>
      </g>
      <g>
        <g>
          <circle class="cls-5" cx="44.3" cy="53.79" r="5.23"/>
          <circle class="cls-1" cx="63.13" cy="53.79" r="5.23"/>
        </g>
        <g>
          <circle class="cls-2" cx="5.23" cy="53.79" r="5.23"/>
          <circle class="cls-3" cx="24.07" cy="53.79" r="5.23"/>
        </g>
      </g>
    </g>
  </g>
</svg>