<?xml version="1.0" encoding="UTF-8"?>
<svg id="Layer_2" data-name="Layer 2" xmlns="http://www.w3.org/2000/svg" xmlns:xlink="http://www.w3.org/1999/xlink" viewBox="0 0 1834 992">
  <defs>
    <style>
      .cls-1 {
        opacity: .2;
      }

      .cls-2 {
        fill: none;
      }

      .cls-2, .cls-3 {
        stroke-width: 0px;
      }

      .cls-4 {
        clip-path: url(#clippath);
      }

      .cls-3 {
        fill: #fff;
      }
    </style>
    <clipPath id="clippath">
      <rect class="cls-2" width="1834" height="992"/>
    </clipPath>
  </defs>
  <g id="Layer_1-2" data-name="Layer 1">
    <g class="cls-4">
      <image width="1920" height="1074" transform="translate(-38.25 -19.01)" xlink:href="../pexels-khwanchai-4175028XXL.png"/>
      <g>
        <g class="cls-1">
          <path class="cls-3" d="M1004.49,421.04c-2.89,27.02-.13,64.06,30.4,74.14,17.56,5.8,36.6-.91,52.96-7.4,16.33-6.48,32.16-14.17,47.37-22.96,61.75-35.66,112.54-87.16,160.27-139.4,31-33.93,61.53-68.3,92.25-102.49-3.32-1.93-6.63-3.86-9.95-5.79-15.49,54.04-44.26,102.67-75.31,149.08-31.27,46.75-65.15,91.9-92.42,141.2-6.87,12.42-13.42,25.09-19.13,38.09-5.72,13.03-10.58,26.87-10.84,41.26-.5,27.69,19.91,47.38,46.47,50.98,29.42,3.98,55.87-12.26,79.25-28.01,25.69-17.3,50.72-35.56,75.11-54.64,49.39-38.64,95.97-80.89,139.22-126.3,5.36-5.62,10.65-11.3,15.91-17.01l-7.21.93c9.9,4.21,7.6,19.7,8.57,28.46,1.4,12.75,6.97,24.24,15.48,33.78,18.95,21.25,47.78,28.81,75.39,27.43,19.56-.98,38.7-5.61,57.63-10.3,7.43-1.84,4.28-13.33-3.17-11.48-29.79,7.39-62.82,15.88-92.86,5.02-11.29-4.08-21.69-11-29.49-20.14-7.79-9.12-10.89-19.65-11.6-31.42s-1.6-26.39-13.94-31.63c-2.39-1.01-5.28-1.17-7.21.93-40.84,44.41-84.74,85.98-131.37,124.27-23.38,19.2-47.45,37.55-72.15,55.03-12.06,8.54-24.2,17.05-36.71,24.93s-25.6,14.9-40.15,17.81c-22.83,4.57-50.8-5.18-54.82-30.74-2.17-13.79,2.5-28.21,7.75-40.79s11.42-24.41,17.82-36.21c25.97-47.85,58.4-91.74,88.88-136.73,30.11-44.44,58.65-90.59,76.34-141.56,2.19-6.3,4.18-12.66,6.02-19.07,1.59-5.55-5.91-10.29-9.95-5.79-26.49,29.49-52.93,59.03-79.5,88.45-22.71,25.15-45.73,50.08-70.17,73.58s-49.82,45.18-77.76,63.87c-13.91,9.31-28.38,17.8-43.38,25.23s-30.58,14.59-46.81,18.25c-9.22,2.08-19.37,2.58-27.92-2.07-6.11-3.33-10.5-8.8-13.31-15.1-6.26-14.05-5.67-30.72-4.07-45.67.81-7.61-11.1-7.55-11.91,0h0Z"/>
        </g>
        <g class="cls-1">
          <path class="cls-3" d="M789.34,243.39c-71.07-19.83-147.9-17.6-217.91,5.61-35.44,11.75-68.92,28.8-99.23,50.61-30.28,21.79-57.45,47.58-82.27,75.38-25.92,29.03-49.5,60.12-72.07,91.79-23.81,33.42-46.26,67.81-67.27,103.06-20.98,35.21-41.84,71.22-58.05,108.92-14.58,33.9-24.75,70.78-19.88,107.94,4.21,32.12,18.82,63.29,45.45,82.71,28.73,20.95,65.75,22.48,99.45,15.57,35.98-7.38,69.49-23.72,101.86-40.57,33.1-17.22,65.21-36.31,96.31-56.92,62.33-41.29,120.59-88.57,175.39-139.36,55.19-51.15,106.94-105.91,156.51-162.5,51.98-59.34,102.06-120.45,148.88-183.96,47.35-64.23,91.22-131.12,129.35-201.25,9.31-17.13,18.27-34.46,26.87-51.96,3.37-6.85-6.9-12.89-10.28-6.01-34.4,70.02-74.76,136.96-119.05,201.15-44.26,64.15-92.39,125.54-142.57,185.14-47.42,56.32-96.57,111.26-148.65,163.32s-106.66,100.92-165.38,144.9c-58.29,43.65-120.5,82.66-186.49,113.63-31.23,14.65-65.74,27.07-100.7,26.31s-63.28-16.71-80.14-45.85c-38.52-66.58-.87-143.09,31.87-203.31,38.2-70.27,81.84-137.94,131.05-201.02,44.86-57.52,96.66-111.66,162.28-145.31,64.27-32.96,138.5-45.64,210.12-36.88,17.36,2.12,34.54,5.69,51.38,10.39,7.39,2.06,10.55-9.42,3.17-11.48h0Z"/>
        </g>
      </g>
    </g>
  </g>
</svg>