<?xml version="1.0" encoding="UTF-8"?>
<svg id="Layer_2" data-name="Layer 2" xmlns="http://www.w3.org/2000/svg" viewBox="0 0 367.18 123.22">
  <defs>
    <style>
      .cls-1 {
        fill: #969696;
      }
    </style>
  </defs>
  <g id="Layer_1-2" data-name="Layer 1">
    <g>
      <g>
        <path class="cls-1" d="M51.08,24.44c-.5-1.72-1.19-3.25-2.09-4.59-.9-1.33-1.99-2.47-3.28-3.4-1.29-.93-2.75-1.65-4.39-2.14-1.64-.5-3.45-.74-5.44-.74-3.71,0-6.96.92-9.76,2.76s-4.98,4.52-6.54,8.02-2.34,7.79-2.34,12.84.77,9.35,2.3,12.89c1.53,3.54,3.71,6.24,6.52,8.09,2.81,1.85,6.13,2.78,9.95,2.78,3.47,0,6.44-.62,8.91-1.86,2.47-1.24,4.36-2.99,5.67-5.26,1.31-2.27,1.97-4.95,1.97-8.04l3.12.46h-18.7v-11.55h30.35v9.14c0,6.38-1.35,11.85-4.04,16.42-2.69,4.57-6.4,8.09-11.12,10.56-4.72,2.47-10.13,3.7-16.22,3.7-6.8,0-12.78-1.51-17.92-4.52-5.15-3.01-9.16-7.3-12.02-12.86-2.87-5.56-4.3-12.17-4.3-19.82,0-5.88.86-11.13,2.57-15.74,1.71-4.62,4.11-8.53,7.21-11.74,3.09-3.21,6.69-5.66,10.8-7.33,4.11-1.68,8.56-2.51,13.35-2.51,4.11,0,7.93.6,11.48,1.79,3.54,1.19,6.69,2.88,9.44,5.05,2.75,2.17,5,4.75,6.75,7.74,1.75,2.99,2.87,6.27,3.36,9.86h-15.58Z"/>
        <path class="cls-1" d="M94.08,74.56c-3.47,0-6.57-.61-9.28-1.82-2.72-1.22-4.86-3.02-6.43-5.42-1.57-2.4-2.36-5.39-2.36-8.98,0-3.02.55-5.56,1.67-7.62,1.11-2.05,2.62-3.71,4.53-4.96,1.91-1.25,4.09-2.2,6.53-2.83,2.44-.64,5.01-1.09,7.7-1.35,3.16-.33,5.71-.64,7.65-.94,1.94-.29,3.34-.74,4.21-1.33.87-.59,1.31-1.46,1.31-2.62v-.21c0-2.24-.7-3.98-2.11-5.21-1.41-1.23-3.39-1.84-5.97-1.84-2.72,0-4.88.6-6.48,1.79s-2.67,2.69-3.19,4.48l-13.96-1.13c.71-3.31,2.1-6.17,4.18-8.59,2.08-2.42,4.76-4.29,8.06-5.6s7.11-1.97,11.46-1.97c3.02,0,5.92.35,8.7,1.06s5.24,1.81,7.4,3.29c2.16,1.49,3.87,3.4,5.12,5.72,1.25,2.33,1.88,5.11,1.88,8.34v36.69h-14.31v-7.54h-.42c-.87,1.7-2.04,3.19-3.51,4.48-1.46,1.29-3.22,2.29-5.28,3.01-2.05.72-4.43,1.08-7.12,1.08ZM98.4,64.14c2.22,0,4.18-.44,5.88-1.33,1.7-.89,3.03-2.08,4-3.6.97-1.51,1.45-3.22,1.45-5.14v-5.77c-.47.31-1.12.58-1.93.83s-1.73.47-2.75.67c-1.02.2-2.03.38-3.05.53-1.02.15-1.94.29-2.76.41-1.77.26-3.32.67-4.64,1.24-1.32.57-2.35,1.33-3.08,2.28-.73.96-1.1,2.14-1.1,3.56,0,2.05.75,3.62,2.25,4.69,1.5,1.07,3.41,1.61,5.72,1.61Z"/>
        <path class="cls-1" d="M151.53.99v72.54h-15.09V.99h15.09Z"/>
        <path class="cls-1" d="M176.35,73.53h-16.43L184.96.99h19.76l25.01,72.54h-16.43l-18.17-55.96h-.57l-18.21,55.96ZM175.33,45.02h38.82v11.97h-38.82v-11.97Z"/>
        <path class="cls-1" d="M253.78.99v72.54h-15.34V.99h15.34Z"/>
      </g>
      <g>
        <path class="cls-1" d="M3.54,122.73H0l10.23-27.87h3.48l10.23,27.87h-3.54l-8.33-23.46h-.22l-8.33,23.46ZM4.85,111.84h14.26v2.99H4.85v-2.99Z"/>
        <path class="cls-1" d="M42.68,106.51l-2.89.82c-.18-.48-.45-.95-.8-1.41s-.82-.84-1.42-1.14c-.6-.3-1.37-.45-2.3-.45-1.28,0-2.34.29-3.19.88-.85.59-1.27,1.33-1.27,2.23,0,.8.29,1.43.87,1.89.58.46,1.49.85,2.72,1.16l3.1.76c1.87.45,3.26,1.15,4.18,2.08.92.93,1.38,2.13,1.38,3.59,0,1.2-.34,2.27-1.03,3.21-.69.94-1.64,1.69-2.87,2.23-1.22.54-2.65.82-4.27.82-2.13,0-3.9-.46-5.29-1.39s-2.28-2.28-2.65-4.06l3.05-.76c.29,1.12.84,1.97,1.65,2.53.81.56,1.88.84,3.19.84,1.5,0,2.69-.32,3.57-.96s1.33-1.41,1.33-2.31c0-.73-.25-1.34-.76-1.83-.51-.49-1.29-.86-2.34-1.11l-3.48-.82c-1.91-.45-3.32-1.16-4.21-2.12-.89-.96-1.34-2.16-1.34-3.6,0-1.18.33-2.22,1-3.13.67-.91,1.58-1.62,2.74-2.14,1.16-.52,2.47-.78,3.94-.78,2.07,0,3.7.45,4.88,1.36,1.18.91,2.03,2.1,2.52,3.59Z"/>
        <path class="cls-1" d="M49.54,98.34c-.63,0-1.16-.21-1.61-.64s-.67-.94-.67-1.54.22-1.11.67-1.54.99-.64,1.61-.64,1.16.21,1.61.64.67.94.67,1.54-.22,1.11-.67,1.54-.99.64-1.61.64ZM47.91,122.73v-20.9h3.21v20.9h-3.21Z"/>
        <path class="cls-1" d="M71.8,106.51l-2.89.82c-.18-.48-.45-.95-.8-1.41s-.82-.84-1.42-1.14c-.6-.3-1.37-.45-2.3-.45-1.28,0-2.34.29-3.19.88-.85.59-1.27,1.33-1.27,2.23,0,.8.29,1.43.87,1.89.58.46,1.49.85,2.72,1.16l3.1.76c1.87.45,3.26,1.15,4.18,2.08.92.93,1.38,2.13,1.38,3.59,0,1.2-.34,2.27-1.03,3.21-.69.94-1.64,1.69-2.87,2.23-1.22.54-2.65.82-4.27.82-2.13,0-3.9-.46-5.29-1.39s-2.28-2.28-2.65-4.06l3.05-.76c.29,1.12.84,1.97,1.65,2.53.81.56,1.88.84,3.19.84,1.5,0,2.69-.32,3.57-.96s1.33-1.41,1.33-2.31c0-.73-.25-1.34-.76-1.83-.51-.49-1.29-.86-2.34-1.11l-3.48-.82c-1.91-.45-3.32-1.16-4.21-2.12-.89-.96-1.34-2.16-1.34-3.6,0-1.18.33-2.22,1-3.13.67-.91,1.58-1.62,2.74-2.14,1.16-.52,2.47-.78,3.94-.78,2.07,0,3.7.45,4.88,1.36,1.18.91,2.03,2.1,2.52,3.59Z"/>
        <path class="cls-1" d="M86.12,101.83v2.72h-10.83v-2.72h10.83ZM78.45,96.82h3.21v19.92c0,.91.13,1.59.4,2.03.27.45.61.75,1.03.9.42.15.87.22,1.34.22.35,0,.64-.02.87-.06.23-.04.41-.07.54-.1l.65,2.89c-.22.08-.52.17-.91.25-.39.09-.88.13-1.48.13-.91,0-1.79-.19-2.66-.58-.87-.39-1.58-.98-2.15-1.78-.57-.8-.85-1.81-.85-3.02v-20.8Z"/>
        <path class="cls-1" d="M99.51,123.17c-2.01,0-3.75-.45-5.21-1.34-1.46-.89-2.58-2.15-3.36-3.76-.78-1.61-1.18-3.49-1.18-5.63s.39-4.03,1.18-5.67c.79-1.64,1.88-2.92,3.29-3.84,1.41-.92,3.06-1.38,4.95-1.38,1.09,0,2.16.18,3.22.54s2.03.95,2.9,1.76,1.57,1.88,2.08,3.22c.52,1.33.78,2.98.78,4.93v1.36h-16.11v-2.78h12.85c0-1.18-.23-2.23-.7-3.16-.47-.93-1.13-1.66-1.99-2.19-.86-.54-1.87-.8-3.03-.8-1.28,0-2.38.32-3.31.95s-1.64,1.45-2.14,2.46c-.5,1.01-.75,2.09-.75,3.24v1.85c0,1.58.27,2.91.82,4.01.55,1.09,1.31,1.92,2.29,2.49.98.57,2.12.85,3.42.85.84,0,1.61-.12,2.29-.36.69-.24,1.28-.6,1.78-1.09s.88-1.09,1.16-1.82l3.1.87c-.33,1.05-.88,1.98-1.65,2.77-.77.79-1.72,1.41-2.86,1.85s-2.41.66-3.82.66Z"/>
        <path class="cls-1" d="M116.28,110.15v12.58h-3.21v-20.9h3.1v3.27h.27c.49-1.06,1.23-1.92,2.23-2.57,1-.65,2.29-.97,3.87-.97,1.42,0,2.65.29,3.71.86s1.89,1.45,2.48,2.61c.59,1.17.88,2.64.88,4.42v13.28h-3.21v-13.06c0-1.64-.43-2.92-1.28-3.84-.85-.92-2.02-1.38-3.51-1.38-1.03,0-1.94.22-2.74.67-.8.44-1.44,1.09-1.9,1.95-.46.85-.69,1.89-.69,3.1Z"/>
        <path class="cls-1" d="M144.59,101.83v2.72h-10.83v-2.72h10.83ZM136.91,96.82h3.21v19.92c0,.91.13,1.59.4,2.03.27.45.61.75,1.03.9.42.15.87.22,1.34.22.35,0,.64-.02.87-.06.23-.04.41-.07.54-.1l.65,2.89c-.22.08-.52.17-.91.25-.39.09-.88.13-1.48.13-.91,0-1.79-.19-2.66-.58-.87-.39-1.58-.98-2.15-1.78-.57-.8-.85-1.81-.85-3.02v-20.8Z"/>
        <path class="cls-1" d="M162.61,114.18v-12.36h3.21v20.9h-3.21v-3.54h-.22c-.49,1.06-1.25,1.96-2.29,2.7-1.03.74-2.34,1.11-3.92,1.11-1.31,0-2.47-.29-3.48-.86-1.02-.58-1.81-1.45-2.4-2.61-.58-1.17-.87-2.64-.87-4.42v-13.28h3.21v13.07c0,1.52.43,2.74,1.29,3.65.86.91,1.95,1.36,3.29,1.36.8,0,1.61-.2,2.44-.61s1.53-1.03,2.1-1.88c.57-.84.85-1.92.85-3.23Z"/>
        <path class="cls-1" d="M174.91,94.86v27.87h-3.21v-27.87h3.21Z"/>
        <path class="cls-1" d="M200.66,101.83v2.72h-10.83v-2.72h10.83ZM192.98,96.82h3.21v19.92c0,.91.13,1.59.4,2.03.27.45.61.75,1.03.9.42.15.87.22,1.34.22.35,0,.64-.02.87-.06.23-.04.41-.07.54-.1l.65,2.89c-.22.08-.52.17-.91.25-.39.09-.88.13-1.48.13-.91,0-1.79-.19-2.66-.58-.87-.39-1.58-.98-2.15-1.78-.57-.8-.85-1.81-.85-3.02v-20.8Z"/>
        <path class="cls-1" d="M211.65,123.22c-1.32,0-2.53-.25-3.61-.76-1.08-.5-1.94-1.23-2.57-2.19-.63-.96-.95-2.12-.95-3.48,0-1.2.24-2.17.71-2.92s1.1-1.34,1.89-1.76c.79-.43,1.66-.75,2.62-.96.96-.21,1.92-.38,2.89-.51,1.27-.16,2.3-.29,3.1-.37.79-.09,1.38-.23,1.74-.44.37-.21.55-.57.55-1.09v-.11c0-1.34-.37-2.39-1.09-3.13-.73-.74-1.84-1.12-3.31-1.12s-2.74.34-3.61,1.01-1.48,1.39-1.84,2.15l-3.05-1.09c.54-1.27,1.27-2.26,2.18-2.97.91-.71,1.91-1.21,2.99-1.5,1.08-.29,2.15-.43,3.21-.43.67,0,1.44.08,2.32.24.88.16,1.72.48,2.54.97.82.49,1.5,1.23,2.05,2.22.54.99.82,2.31.82,3.97v13.77h-3.21v-2.83h-.16c-.22.45-.58.94-1.09,1.46-.51.52-1.18.96-2.03,1.32-.84.36-1.87.54-3.09.54ZM212.14,120.33c1.27,0,2.34-.25,3.22-.75.88-.5,1.54-1.14,1.99-1.93.45-.79.67-1.62.67-2.49v-2.94c-.14.16-.43.31-.89.44-.46.13-.99.25-1.58.34-.59.1-1.17.18-1.73.25-.56.07-1.01.12-1.35.17-.83.11-1.61.28-2.33.52-.72.24-1.3.6-1.74,1.08-.44.48-.66,1.12-.66,1.94,0,1.12.42,1.96,1.25,2.52.83.57,1.88.85,3.16.85ZM216.39,94.86h2.99c0,1.47-.51,2.67-1.52,3.61-1.02.93-2.4,1.4-4.14,1.4s-3.08-.47-4.09-1.4-1.52-2.14-1.52-3.61h2.99c0,.71.2,1.33.59,1.86.39.54,1.07.8,2.02.8s1.63-.27,2.05-.8c.41-.54.62-1.16.62-1.86Z"/>
        <path class="cls-1" d="M240.29,114.18v-12.36h3.21v20.9h-3.21v-3.54h-.22c-.49,1.06-1.25,1.96-2.29,2.7-1.03.74-2.34,1.11-3.92,1.11-1.31,0-2.47-.29-3.48-.86-1.02-.58-1.81-1.45-2.4-2.61-.58-1.17-.87-2.64-.87-4.42v-13.28h3.21v13.07c0,1.52.43,2.74,1.29,3.65.86.91,1.95,1.36,3.29,1.36.8,0,1.61-.2,2.44-.61s1.53-1.03,2.1-1.88c.57-.84.85-1.92.85-3.23Z"/>
        <path class="cls-1" d="M277.25,101.83l-7.73,20.9h-3.27l-7.73-20.9h3.48l5.77,16.66h.22l5.77-16.66h3.48Z"/>
        <path class="cls-1" d="M283.13,98.34c-.63,0-1.16-.21-1.61-.64s-.67-.94-.67-1.54.22-1.11.67-1.54.99-.64,1.61-.64,1.16.21,1.61.64.67.94.67,1.54-.22,1.11-.67,1.54-.99.64-1.61.64ZM281.5,122.73v-20.9h3.21v20.9h-3.21Z"/>
        <path class="cls-1" d="M290.59,122.73v-20.9h3.1v3.16h.22c.38-1.03,1.07-1.87,2.07-2.52,1-.64,2.12-.97,3.38-.97.24,0,.53,0,.88.01.35,0,.62.02.8.04v3.27c-.11-.03-.36-.07-.74-.13-.39-.06-.79-.09-1.22-.09-1.02,0-1.92.21-2.71.63s-1.42,1-1.88,1.74c-.46.74-.69,1.58-.69,2.52v13.23h-3.21Z"/>
        <path class="cls-1" d="M315.25,101.83v2.72h-10.83v-2.72h10.83ZM307.57,96.82h3.21v19.92c0,.91.13,1.59.4,2.03.27.45.61.75,1.03.9.42.15.87.22,1.34.22.35,0,.64-.02.87-.06.23-.04.41-.07.54-.1l.65,2.89c-.22.08-.52.17-.91.25-.39.09-.88.13-1.48.13-.91,0-1.79-.19-2.66-.58-.87-.39-1.58-.98-2.15-1.78-.57-.8-.85-1.81-.85-3.02v-20.8Z"/>
        <path class="cls-1" d="M333.27,114.18v-12.36h3.21v20.9h-3.21v-3.54h-.22c-.49,1.06-1.25,1.96-2.29,2.7-1.03.74-2.34,1.11-3.92,1.11-1.31,0-2.47-.29-3.48-.86-1.02-.58-1.81-1.45-2.4-2.61-.58-1.17-.87-2.64-.87-4.42v-13.28h3.21v13.07c0,1.52.43,2.74,1.29,3.65.86.91,1.95,1.36,3.29,1.36.8,0,1.61-.2,2.44-.61s1.53-1.03,2.1-1.88c.57-.84.85-1.92.85-3.23Z"/>
        <path class="cls-1" d="M348.51,123.22c-1.32,0-2.53-.25-3.61-.76-1.08-.5-1.94-1.23-2.57-2.19-.63-.96-.95-2.12-.95-3.48,0-1.2.24-2.17.71-2.92s1.1-1.34,1.89-1.76c.79-.43,1.66-.75,2.62-.96.96-.21,1.92-.38,2.89-.51,1.27-.16,2.3-.29,3.1-.37.79-.09,1.38-.23,1.74-.44.37-.21.55-.57.55-1.09v-.11c0-1.34-.37-2.39-1.09-3.13-.73-.74-1.84-1.12-3.31-1.12s-2.74.34-3.61,1.01-1.48,1.39-1.84,2.15l-3.05-1.09c.54-1.27,1.27-2.26,2.18-2.97.91-.71,1.91-1.21,2.99-1.5,1.08-.29,2.15-.43,3.21-.43.67,0,1.44.08,2.32.24.88.16,1.72.48,2.54.97.82.49,1.5,1.23,2.05,2.22.54.99.82,2.31.82,3.97v13.77h-3.21v-2.83h-.16c-.22.45-.58.94-1.09,1.46-.51.52-1.18.96-2.03,1.32-.84.36-1.87.54-3.09.54ZM349,120.33c1.27,0,2.34-.25,3.22-.75.88-.5,1.54-1.14,1.99-1.93.45-.79.67-1.62.67-2.49v-2.94c-.14.16-.43.31-.89.44-.46.13-.99.25-1.58.34-.59.1-1.17.18-1.73.25-.56.07-1.01.12-1.35.17-.83.11-1.61.28-2.33.52-.72.24-1.3.6-1.74,1.08-.44.48-.66,1.12-.66,1.94,0,1.12.42,1.96,1.25,2.52.83.57,1.88.85,3.16.85Z"/>
        <path class="cls-1" d="M367.18,94.86v27.87h-3.21v-27.87h3.21Z"/>
      </g>
    </g>
  </g>
</svg>