<?xml version="1.0" encoding="UTF-8"?>
<svg id="Layer_2" data-name="Layer 2" xmlns="http://www.w3.org/2000/svg" viewBox="0 0 18.82 18.82">
  <defs>
    <style>
      .cls-1 {
        fill: #fff;
        stroke-width: 0px;
      }
    </style>
  </defs>
  <g id="Layer_1-2" data-name="Layer 1">
    <path class="cls-1" d="M9.41,0C4.21,0,0,4.21,0,9.41s4.21,9.41,9.41,9.41,9.41-4.21,9.41-9.41S14.61,0,9.41,0ZM12.02,5.74c0,.08-.06.14-.14.14h-1.12c-.28,0-.5.22-.5.5v1.18h1.6c.08,0,.15.07.14.15l-.14,1.66c0,.07-.07.13-.14.13h-1.46v5.51c0,.08-.06.14-.14.14h-2.01c-.08,0-.14-.06-.14-.14v-5.51h-1.01c-.08,0-.14-.06-.14-.14v-1.66c0-.08.06-.14.14-.14h1.01v-1.6c0-1.12.9-2.02,2.02-2.02h1.9c.08,0,.14.06.14.14v1.66Z"/>
  </g>
</svg>