<?xml version="1.0" encoding="UTF-8"?>
<svg id="Layer_2" data-name="Layer 2" xmlns="http://www.w3.org/2000/svg" viewBox="0 0 17.26 17.26">
  <defs>
    <style>
      .cls-1 {
        fill: #fff;
        fill-rule: evenodd;
        stroke-width: 0px;
      }
    </style>
  </defs>
  <g id="Layer_1-2" data-name="Layer 1">
    <path class="cls-1" d="M17.26,8.63c0,4.76-3.86,8.63-8.63,8.63S0,13.39,0,8.63,3.86,0,8.63,0s8.63,3.86,8.63,8.63ZM9.71,4.31c0,.6-.48,1.08-1.08,1.08s-1.08-.48-1.08-1.08.48-1.08,1.08-1.08,1.08.48,1.08,1.08ZM7.55,7.55c-.6,0-1.08.48-1.08,1.08s.48,1.08,1.08,1.08v3.24c0,.6.48,1.08,1.08,1.08h1.08c.6,0,1.08-.48,1.08-1.08s-.48-1.08-1.08-1.08v-3.24c0-.6-.48-1.08-1.08-1.08h-1.08Z"/>
  </g>
</svg>