<?xml version="1.0" encoding="UTF-8"?>
<svg id="Layer_2" data-name="Layer 2" xmlns="http://www.w3.org/2000/svg" viewBox="0 0 447.78 237.34">
  <defs>
    <style>
      .cls-1 {
        fill: #ccc;
      }
    </style>
  </defs>
  <g id="Layer_1-2" data-name="Layer 1">
    <g>
      <path class="cls-1" d="M12.82,228.81c28.84-4.99,53.93-21.08,78.98-35.25,13.96-7.9,27.93-15.81,41.37-24.57,11.55-7.53,23.14-15.86,31.73-26.77,13.93-17.69,22.97-47.08,12.01-68.38-5.77-11.2-17.35-18.14-29.96-16.45-11.07,1.48-21.26,7.21-28.9,15.26-15.31,16.15-20.75,40.03-13.42,61.07,7.88,22.62,27.34,39.63,49.13,48.49,27,10.99,57.3,9.12,85.23,3.02,28.88-6.31,56.84-17.07,82.45-31.83,48.77-28.11,91.27-72.36,105.15-128.19,1.83-7.36,3.07-14.83,3.91-22.37.32-2.87-3.36-3.56-5.12-2.12-16.08,13.12-33.12,24.96-50.97,35.54l3.64,4.71c3.23-3.68,5.38-8.02,8.78-11.64,3.71-3.95,7.79-7.57,12.23-10.69,8.75-6.14,18.57-10.19,29.04-12.27l-3.39-1.38c11.26,19.15,15.87,40.87,17.08,62.86.21,3.84,6.21,3.86,6,0-1.26-23.04-6.1-45.83-17.9-65.89-.71-1.21-2.07-1.64-3.39-1.38-10.93,2.16-21.33,6.47-30.48,12.87-4.43,3.1-8.59,6.62-12.36,10.5-1.82,1.87-3.56,3.83-5.21,5.86-1.77,2.17-2.8,4.81-4.65,6.91-2.17,2.47.58,6.53,3.64,4.71,18.3-10.84,35.7-23.04,52.19-36.48l-5.12-2.12c-6.03,53.96-40.08,99.71-83.31,130.72-21.58,15.48-45.46,27.79-70.55,36.51s-52.49,15.16-79.4,13.93c-24.32-1.12-48.27-9.75-65.4-27.49-15.59-16.14-23.05-38.78-15.28-60.43,3.49-9.72,9.76-18.71,18.11-24.86,9.03-6.64,22.76-11.57,33.11-5.22,22.22,13.63,13.97,48.93,2.47,66.88-7.92,12.37-19.81,21.46-31.9,29.48-13.04,8.65-26.65,16.42-40.25,24.14-25.65,14.54-51.33,31.42-80.87,36.53-3.8.66-2.19,6.44,1.6,5.79h0Z"/>
      <path class="cls-1" d="M37.38,231.27c-6.39.29-12.8.12-19.14-.79-2.7-.39-5.38-.9-8.03-1.52-4.76-1.1-2.98-3.2-1.13-6.41,5.31-9.18,8.23-19.38,9.06-29.93.3-3.82-5.65-3.8-5.95,0-.61,7.75-2.51,15.35-5.86,22.38-1.95,4.09-7.95,10.14-5.92,15.03s10.25,5.21,14.45,5.9c7.46,1.23,14.97,1.63,22.52,1.28,3.81-.18,3.84-6.13,0-5.95h0Z"/>
    </g>
  </g>
</svg>