<?xml version="1.0" encoding="UTF-8"?>
<svg id="Layer_2" data-name="Layer 2" xmlns="http://www.w3.org/2000/svg" viewBox="0 0 242.88 63">
  <defs>
    <style>
      .cls-1 {
        fill: #fcab02;
      }

      .cls-2 {
        fill: #fff;
      }

      .cls-3 {
        fill: #d13f23;
      }

      .cls-4 {
        fill: #0047ba;
      }
    </style>
  </defs>
  <g id="Layer_1-2" data-name="Layer 1">
    <g>
      <g>
        <g>
          <circle class="cls-3" cx="67.87" cy="56.54" r="6.46"/>
          <circle class="cls-4" cx="91.12" cy="56.54" r="6.46"/>
        </g>
        <g>
          <circle cx="19.63" cy="56.54" r="6.46"/>
          <circle class="cls-1" cx="42.89" cy="56.54" r="6.46"/>
        </g>
      </g>
      <path class="cls-4" d="M224.97,41.98H7.5c-5.2,0-8.82-4.98-7.04-9.68L10.88,4.75c1.08-2.85,3.89-4.75,7.04-4.75h217.47c5.2,0,8.82,4.98,7.04,9.68l-10.42,27.56c-1.08,2.85-3.89,4.75-7.04,4.75Z"/>
      <g>
        <path class="cls-2" d="M23.8,32.35V11.69h13.92v3.6h-9.55v4.92h8.83v3.6h-8.83v4.93h9.59v3.6h-13.96Z"/>
        <path class="cls-2" d="M46.35,11.69l4.99,15.69h.19l5-15.69h4.84l-7.12,20.66h-5.63l-7.13-20.66h4.85Z"/>
        <path class="cls-2" d="M65.28,32.35V11.69h13.92v3.6h-9.55v4.92h8.83v3.6h-8.83v4.93h9.59v3.6h-13.96Z"/>
        <path class="cls-2" d="M101.37,11.69v20.66h-3.77l-8.99-13h-.15v13h-4.37V11.69h3.83l8.92,12.99h.18v-12.99h4.35Z"/>
        <path class="cls-2" d="M110.76,11.69v20.66h-4.37V11.69h4.37Z"/>
        <path class="cls-2" d="M115.78,11.69h5.39l5.69,13.88h.24l5.69-13.88h5.39v20.66h-4.24v-13.44h-.17l-5.35,13.34h-2.88l-5.34-13.39h-.17v13.49h-4.24V11.69Z"/>
        <path class="cls-2" d="M143.18,32.35V11.69h13.92v3.6h-9.55v4.92h8.83v3.6h-8.83v4.93h9.59v3.6h-13.96Z"/>
        <path class="cls-2" d="M179.28,11.69v20.66h-3.77l-8.99-13h-.15v13h-4.37V11.69h3.83l8.92,12.99h.18v-12.99h4.35Z"/>
        <path class="cls-2" d="M183.51,15.29v-3.6h16.96v3.6h-6.32v17.05h-4.32V15.29h-6.32Z"/>
        <path class="cls-2" d="M204.7,32.35V11.69h13.92v3.6h-9.55v4.92h8.83v3.6h-8.83v4.93h9.59v3.6h-13.96Z"/>
      </g>
    </g>
  </g>
</svg>