<?xml version="1.0" encoding="UTF-8"?>
<svg id="Layer_2" data-name="Layer 2" xmlns="http://www.w3.org/2000/svg" viewBox="0 0 18.82 18.82">
  <defs>
    <style>
      .cls-1 {
        fill: #fff;
        stroke-width: 0px;
      }
    </style>
  </defs>
  <g id="Layer_1-2" data-name="Layer 1">
    <path class="cls-1" d="M9.41,0C4.21,0,0,4.21,0,9.41s4.21,9.41,9.41,9.41,9.41-4.21,9.41-9.41S14.61,0,9.41,0ZM9.47,15.16c-.95,0-1.89-.24-2.73-.7l-3.13.84.84-3.11c-.47-.85-.72-1.81-.72-2.77,0-3.17,2.58-5.75,5.75-5.75s5.75,2.58,5.75,5.75-2.58,5.75-5.75,5.75ZM12.34,11.08c-.17.42-.6.69-1.04.77-.42.08-.76-.05-1.15-.18-.34-.11-.68-.28-.99-.47-.62-.38-1.15-.88-1.58-1.47-.13-.18-.25-.36-.37-.55-.15-.25-.28-.52-.35-.81-.03-.12-.04-.24-.05-.36,0-.43.16-.87.5-1.15.2-.16.49-.23.71-.1.24.13.37.48.48.72.09.19.19.44.15.65-.04.21-.2.39-.34.55-.09.11-.1.2-.03.31.44.74,1.06,1.27,1.86,1.59.11.04.19.03.26-.06.14-.17.27-.51.49-.59.28-.11.59.04.82.18.22.13.59.29.65.57.03.13,0,.27-.05.39Z"/>
  </g>
</svg>