<?xml version="1.0" encoding="UTF-8"?>
<svg id="Layer_2" data-name="Layer 2" xmlns="http://www.w3.org/2000/svg" viewBox="0 0 96 96">
  <defs>
    <style>
      .cls-1 {
        fill: #0047ba;
      }
    </style>
  </defs>
  <g id="Layer_1-2" data-name="Layer 1">
    <g id="Layer_1-2" data-name="Layer 1-2">
      <path class="cls-1" d="M3.81,29.41C11.17,12.26,27.91,0,47.93,0c26.69,0,48.07,21.37,48.07,48.07,0,26.69-21.37,47.93-48.07,47.93C21.24,96,0,74.76,0,48.07c0-6.66,1.22-12.94,3.81-18.64h0v-.02ZM47.95,28.25l-6.6-6.43c-8.24-6.72-20.54-6.23-28.18,1.4-7.63,7.63-8.13,19.92-1.42,28.18l6.85,7.08c-.29.74-.45,1.54-.45,2.36,0,1.76.68,3.41,1.93,4.66.17.15.32.31.51.45.02.02.05.03.06.05.15.12.32.25.48.35,0,0,.03,0,.05.03.17.11.35.22.54.31h.03c.19.09.39.19.59.26h.05c.19.08.39.14.59.19.03,0,.06.02.09.03.17.05.35.09.52.12.06,0,.12.02.19.02.15.03.29.05.45.06h.28c.08,0,.15,0,.23,0h.12s.06,0,.06,0h.08v.26c0,1.76.69,3.41,1.93,4.64.17.17.34.31.51.46.02,0,.03.02.05.03.17.14.32.25.51.37h0c.56.37,1.17.65,1.82.82h.03c.19.06.39.09.59.14.05,0,.09,0,.14.02.17.03.32.05.49.06h.25c.08,0,.17.02.25.02h.14s.03,0,.06,0h.08v.26c0,.42.05.83.11,1.25.02.09.05.19.06.28.14.56.32,1.08.59,1.57.29.56.68,1.08,1.16,1.56.02.02.03.03.06.05.14.14.29.28.45.4.03.02.06.03.08.06.15.12.31.23.46.34,0,0,.03,0,.03.02.37.25.76.45,1.17.6h0c.2.08.42.15.62.22h.06c.19.05.39.09.57.12.05,0,.09,0,.14.03.17.02.32.05.49.06h.25c.08,0,.17,0,.25,0h.14s.12,0,.12,0v.08s0,.03,0,.05v.35c0,.11,0,.2.02.29,0,.12.03.23.03.35,0,.09.02.19.05.29.02.12.05.23.08.35.02.09.05.19.06.29.03.11.08.23.11.34.03.09.06.19.09.28.05.11.09.23.15.34.05.08.08.17.12.25.06.12.12.23.2.35.05.08.09.15.14.23.08.12.17.25.26.35.05.06.09.12.14.19.14.17.29.35.46.51,1.28,1.28,2.96,1.93,4.64,1.93.94,0,1.87-.2,2.75-.6.86.4,1.82.63,2.81.63,1.76,0,3.41-.68,4.64-1.93,1.23-1.23,1.93-2.9,1.93-4.66v-.26c1.77.06,3.56-.57,4.9-1.93.99-.99,1.59-2.21,1.82-3.5.09-.46.12-.94.11-1.42.48.03.97,0,1.45-.09,1.26-.23,2.48-.83,3.47-1.82.99-.99,1.59-2.21,1.82-3.49.08-.46.12-.94.11-1.42.49.02.96-.02,1.43-.11,1.3-.23,2.53-.85,3.49-1.82,1.23-1.25,1.93-2.9,1.93-4.64,0-.83-.15-1.65-.45-2.39l6.92-7.11c6.68-8.24,6.17-20.5-1.45-28.13-7.63-7.63-19.92-8.13-28.16-1.42l-6.74,6.45v.08ZM72.02,63.81c-1.03.25-2.17,0-2.95-.77l-13.71-13.71c-.68-.68-1.79-.68-2.47,0-.68.68-.68,1.79,0,2.47l13.73,13.73c.79.79,1.05,1.91.8,2.91-.12.52-.39,1.03-.8,1.45-.42.4-.91.66-1.43.8-.97.23-2.02,0-2.81-.71l-13.82-13.82c-.68-.68-1.79-.68-2.47,0-.68.68-.68,1.79,0,2.47l13.71,13.74c.79.79,1.05,1.9.8,2.91-.14.52-.39,1.03-.8,1.43-.42.42-.91.68-1.45.8-.85.22-1.77.06-2.51-.48-.03-.59-.11-1.14-.28-1.68,0-.03-.02-.06-.03-.09-.06-.2-.14-.39-.22-.59-.03-.08-.08-.15-.11-.22-.08-.15-.14-.29-.23-.45-.05-.08-.08-.15-.14-.22-.09-.14-.19-.28-.29-.42-.05-.06-.09-.14-.14-.2-.15-.19-.32-.39-.49-.56-1.23-1.23-2.9-1.93-4.64-1.93h-.26s0-.12,0-.12v-.35c0-.11,0-.2,0-.31s-.03-.23-.05-.35c0-.09-.03-.2-.05-.29-.02-.11-.05-.23-.08-.34-.02-.09-.05-.2-.08-.29-.03-.11-.08-.23-.11-.34-.03-.09-.06-.19-.09-.28-.05-.11-.09-.22-.14-.32-.05-.09-.09-.19-.12-.28-.06-.11-.12-.22-.19-.32-.05-.08-.09-.17-.15-.25-.08-.11-.15-.22-.23-.32-.06-.08-.11-.14-.17-.22-.11-.14-.25-.28-.39-.42-.03-.03-.05-.06-.08-.09-.17-.17-.34-.31-.51-.46-.08-.06-.17-.12-.26-.19-.09-.06-.19-.14-.28-.2-.12-.08-.25-.15-.37-.22-.06-.03-.12-.08-.2-.11-.14-.08-.29-.14-.45-.2-.05-.02-.09-.05-.14-.06-.15-.06-.32-.11-.48-.17-.05-.02-.08-.03-.12-.05-.15-.05-.32-.08-.49-.12-.05,0-.09-.02-.14-.03-.15-.03-.31-.05-.46-.06-.06,0-.12-.02-.2-.02-.14,0-.26-.02-.39-.02h-.31s-.14,0-.14,0v-.08s0-.03,0-.06v-.35c0-.09,0-.2-.02-.29,0-.12-.03-.23-.03-.35,0-.09-.03-.19-.05-.29-.03-.12-.05-.23-.08-.35-.02-.09-.05-.19-.06-.28-.03-.12-.08-.23-.11-.35-.03-.09-.06-.19-.09-.26-.05-.12-.11-.25-.15-.35-.03-.08-.08-.17-.11-.25-.06-.12-.14-.25-.2-.37-.05-.08-.08-.14-.14-.22-.08-.14-.19-.26-.28-.39-.05-.05-.08-.11-.12-.17-.14-.17-.29-.35-.46-.51-.17-.17-.32-.32-.51-.46-.05-.05-.11-.08-.17-.12-.12-.09-.25-.19-.39-.28-.06-.05-.14-.08-.2-.12-.12-.08-.25-.15-.39-.22-.08-.03-.14-.06-.22-.09-.14-.06-.26-.12-.4-.17-.06-.03-.14-.05-.22-.08-.14-.05-.28-.09-.42-.14-.08-.02-.15-.03-.22-.06l-.42-.09c-.08,0-.15-.02-.23-.03-.14-.02-.28-.03-.42-.05h-.25c-.12,0-.25,0-.39,0h-.06s-.06,0-.06,0v-.26c0-1.76-.68-3.41-1.93-4.66-.17-.17-.35-.34-.56-.49-.06-.05-.12-.09-.19-.14-.14-.11-.28-.2-.42-.29-.08-.05-.15-.09-.22-.14-.14-.08-.29-.17-.45-.23-.08-.03-.14-.06-.22-.09-.22-.09-.42-.17-.65-.25h-.03c-.62-.19-1.26-.29-1.93-.29-1.76,0-3.41.69-4.64,1.93l-3.45,3.47-5.26-5.35c-6.57-6.83-6.46-17.86.25-24.55,6.69-6.71,17.72-6.82,24.55-.25l5.29,5.26-6.45,6.45c-.19.17-.34.35-.49.56-1.39,1.74-1.76,4.03-1.13,6.06.31.97.83,1.9,1.62,2.67,1.23,1.25,2.9,1.93,4.64,1.93s3.41-.69,4.64-1.93l6.45-6.45,18.66,18.66c.59.59.91,1.36.91,2.17,0,.25-.05.49-.11.74-.14.54-.4,1.05-.8,1.45-.39.39-.88.65-1.4.77h0l-.02.02ZM54.78,35.08l-8.93,8.93c-1.2,1.2-3.16,1.2-4.36,0-1.09-1.09-1.17-2.81-.28-4.01l1.22-1.22,13.39-13.29c6.83-6.57,17.86-6.46,24.57.23,6.69,6.69,6.8,17.72.23,24.57l-5.34,5.34-20.51-20.51.02-.03ZM21.76,61.66c-.08-.26-.12-.54-.12-.82,0-.83.32-1.6.91-2.17l4.04-4.04c1.17-1.16,3.19-1.16,4.36,0,.59.59.91,1.36.91,2.17,0,.82-.32,1.6-.91,2.17l-4.04,4.04c-.79.8-1.97,1.03-3.02.74-.49-.14-.96-.37-1.33-.74-.39-.39-.65-.85-.79-1.36h-.02ZM28.59,68.47c-.08-.26-.12-.52-.12-.82,0-.82.32-1.59.91-2.17l4.04-4.04c.15-.15.32-.28.49-.4.14-.09.29-.17.45-.23.05-.02.09-.03.14-.05.11-.05.22-.08.32-.11.06-.02.11-.03.17-.03.11-.03.22-.05.32-.05h.15c.09,0,.19,0,.28,0h0c.11,0,.22.02.31.03.08,0,.17.03.23.05.11.03.22.06.32.09.08.03.14.05.22.08.11.05.22.11.32.17.06.03.11.06.17.09.15.11.31.22.45.35l.02.02c.68.68.97,1.59.88,2.48-.03.29-.09.59-.22.86-.15.37-.37.72-.68,1.02l-4.04,4.04c-.79.8-1.97,1.03-3.02.74-.49-.12-.96-.37-1.33-.74-.39-.39-.63-.85-.77-1.37h0l-.02-.02ZM36.21,76.68c-.39-.39-.65-.85-.79-1.36-.08-.26-.12-.54-.12-.82,0-.83.32-1.6.91-2.17l4.04-4.04c.14-.12.28-.25.43-.35.05-.03.09-.06.14-.09.11-.06.22-.12.34-.17.06-.03.11-.05.17-.08.15-.06.31-.11.46-.14.08-.02.15-.03.25-.03.08,0,.17-.03.25-.03h.29c.06,0,.12,0,.19.02.09,0,.19.02.28.03.15.03.31.08.45.12.4.15.79.39,1.11.71.6.6.91,1.39.91,2.19s-.31,1.57-.91,2.17l-4.04,4.04c-.14.14-.31.28-.48.39-.51.32-1.11.49-1.7.49-.29,0-.57-.05-.85-.12-.11-.03-.22-.05-.32-.09-.37-.14-.72-.35-1-.66h0ZM42.64,83.03c-.19-.28-.31-.57-.39-.88-.28-1.03-.03-2.19.77-3.01l4.04-4.04c1.16-1.17,3.19-1.17,4.36,0,.59.59.91,1.36.91,2.17s-.32,1.6-.91,2.17l-4.04,4.04c-.82.82-1.96,1.06-2.99.77-.49-.14-.97-.39-1.36-.77-.15-.15-.28-.31-.39-.48h0l-.02.02Z"/>
    </g>
  </g>
</svg>