<?xml version="1.0" encoding="UTF-8"?>
<svg xmlns="http://www.w3.org/2000/svg" xmlns:xlink="http://www.w3.org/1999/xlink" viewBox="0 0 208 207">
  <defs>
    <style>
      .cls-1 {
        fill: url(#_Áåçûìÿííûé_ãðàäèåíò_49);
      }

      .cls-2 {
        fill: url(#_Áåçûìÿííûé_ãðàäèåíò_12-3);
      }

      .cls-3, .cls-4 {
        fill: #fff;
      }

      .cls-5 {
        fill: url(#_Áåçûìÿííûé_ãðàäèåíò_18);
      }

      .cls-5, .cls-6 {
        mix-blend-mode: screen;
      }

      .cls-7 {
        fill: url(#_Áåçûìÿííûé_ãðàäèåíò_6-3);
      }

      .cls-8 {
        fill: url(#_Áåçûìÿííûé_ãðàäèåíò_37);
      }

      .cls-9 {
        fill: #eefdff;
      }

      .cls-10 {
        fill: url(#_Áåçûìÿííûé_ãðàäèåíò_38);
      }

      .cls-11 {
        fill: url(#_Áåçûìÿííûé_ãðàäèåíò_12);
      }

      .cls-12 {
        isolation: isolate;
      }

      .cls-13 {
        fill: url(#_Áåçûìÿííûé_ãðàäèåíò_12-2);
      }

      .cls-6 {
        fill: url(#_Áåçûìÿííûé_ãðàäèåíò_18-2);
      }

      .cls-14 {
        fill: url(#_Áåçûìÿííûé_ãðàäèåíò_6-2);
      }

      .cls-15 {
        fill: url(#_Áåçûìÿííûé_ãðàäèåíò_37-2);
      }

      .cls-16 {
        fill: url(#_Áåçûìÿííûé_ãðàäèåíò_6);
      }

      .cls-17 {
        fill: url(#_Áåçûìÿííûé_ãðàäèåíò_6-4);
      }

      .cls-18 {
        fill: url(#linear-gradient);
      }

      .cls-4 {
        filter: url(#outer-glow-1);
      }
    </style>
    <filter id="outer-glow-1" x="0" y="0" width="208" height="207" filterUnits="userSpaceOnUse">
      <feOffset dx="0" dy="0"/>
      <feGaussianBlur result="blur" stdDeviation="20.45"/>
      <feFlood flood-color="#6ceaff" flood-opacity=".75"/>
      <feComposite in2="blur" operator="in"/>
      <feComposite in="SourceGraphic"/>
    </filter>
    <linearGradient id="_Áåçûìÿííûé_ãðàäèåíò_37" data-name="Áåçûìÿííûé ãðàäèåíò 37" x1="-4193.35" y1="-5353.43" x2="-4171.59" y2="-5375.76" gradientTransform="translate(-4762.82 4880.31) rotate(83.59)" gradientUnits="userSpaceOnUse">
      <stop offset=".04" stop-color="#06bed8"/>
      <stop offset="1" stop-color="#defa8e"/>
    </linearGradient>
    <linearGradient id="_Áåçûìÿííûé_ãðàäèåíò_6" data-name="Áåçûìÿííûé ãðàäèåíò 6" x1="101.05" y1="73.55" x2="105.1" y2="72.96" gradientUnits="userSpaceOnUse">
      <stop offset=".04" stop-color="#06cff1"/>
      <stop offset="1" stop-color="#defa8e"/>
    </linearGradient>
    <linearGradient id="_Áåçûìÿííûé_ãðàäèåíò_6-2" data-name="Áåçûìÿííûé ãðàäèåíò 6" x1="100.01" y1="83.84" x2="107.21" y2="75.72" xlink:href="#_Áåçûìÿííûé_ãðàäèåíò_6"/>
    <linearGradient id="linear-gradient" x1="89.59" y1="111.98" x2="118.1" y2="83.47" gradientUnits="userSpaceOnUse">
      <stop offset=".04" stop-color="#2ae4ff"/>
      <stop offset="1" stop-color="#defa8e"/>
    </linearGradient>
    <linearGradient id="_Áåçûìÿííûé_ãðàäèåíò_12" data-name="Áåçûìÿííûé ãðàäèåíò 12" x1="103.73" y1="101.32" x2="103.98" y2="89.91" gradientUnits="userSpaceOnUse">
      <stop offset="0" stop-color="#030d14"/>
      <stop offset="1" stop-color="#0b2f45"/>
    </linearGradient>
    <radialGradient id="_Áåçûìÿííûé_ãðàäèåíò_18" data-name="Áåçûìÿííûé ãðàäèåíò 18" cx="97.11" cy="95.53" fx="97.11" fy="95.53" r="4.74" gradientUnits="userSpaceOnUse">
      <stop offset=".13" stop-color="#3280fc"/>
      <stop offset="1" stop-color="#000"/>
    </radialGradient>
    <linearGradient id="_Áåçûìÿííûé_ãðàäèåíò_12-2" data-name="Áåçûìÿííûé ãðàäèåíò 12" x1="94.22" y1="95.53" x2="100" y2="95.53" xlink:href="#_Áåçûìÿííûé_ãðàäèåíò_12"/>
    <radialGradient id="_Áåçûìÿííûé_ãðàäèåíò_18-2" data-name="Áåçûìÿííûé ãðàäèåíò 18" cx="110.05" fx="110.05" r="4.74" xlink:href="#_Áåçûìÿííûé_ãðàäèåíò_18"/>
    <linearGradient id="_Áåçûìÿííûé_ãðàäèåíò_12-3" data-name="Áåçûìÿííûé ãðàäèåíò 12" x1="107.16" y1="95.53" x2="112.93" y2="95.53" xlink:href="#_Áåçûìÿííûé_ãðàäèåíò_12"/>
    <linearGradient id="_Áåçûìÿííûé_ãðàäèåíò_6-3" data-name="Áåçûìÿííûé ãðàäèåíò 6" x1="100.16" y1="68.65" x2="105.52" y2="67.87" xlink:href="#_Áåçûìÿííûé_ãðàäèåíò_6"/>
    <linearGradient id="_Áåçûìÿííûé_ãðàäèåíò_49" data-name="Áåçûìÿííûé ãðàäèåíò 49" x1="95.83" y1="130.8" x2="117.7" y2="105.26" gradientUnits="userSpaceOnUse">
      <stop offset=".04" stop-color="#06cff1"/>
      <stop offset=".04" stop-color="#06cff0"/>
      <stop offset=".16" stop-color="#36d8da"/>
      <stop offset=".27" stop-color="#5ce0c9"/>
      <stop offset=".38" stop-color="#77e5bd"/>
      <stop offset=".47" stop-color="#88e8b5"/>
      <stop offset=".54" stop-color="#8eeab3"/>
      <stop offset=".8" stop-color="#b9f29e"/>
      <stop offset="1" stop-color="#defa8e"/>
    </linearGradient>
    <linearGradient id="_Áåçûìÿííûé_ãðàäèåíò_6-4" data-name="Áåçûìÿííûé ãðàäèåíò 6" x1="94.67" y1="118.06" x2="107.83" y2="102.7" xlink:href="#_Áåçûìÿííûé_ãðàäèåíò_6"/>
    <linearGradient id="_Áåçûìÿííûé_ãðàäèåíò_38" data-name="Áåçûìÿííûé ãðàäèåíò 38" x1="-9997.53" y1="-626.28" x2="-9979.54" y2="-635.66" gradientTransform="translate(-9854.88 -758.5) rotate(-171.34) scale(1 -1)" gradientUnits="userSpaceOnUse">
      <stop offset=".04" stop-color="#06cff1"/>
      <stop offset=".07" stop-color="#0fd0ec"/>
      <stop offset=".42" stop-color="#66e2c4"/>
      <stop offset=".69" stop-color="#a7efa7"/>
      <stop offset=".9" stop-color="#cef694"/>
      <stop offset="1" stop-color="#defa8e"/>
    </linearGradient>
    <linearGradient id="_Áåçûìÿííûé_ãðàäèåíò_37-2" data-name="Áåçûìÿííûé ãðàäèåíò 37" x1="108.5" y1="125.82" x2="120.11" y2="119.77" gradientTransform="matrix(1,0,0,1,0,0)" xlink:href="#_Áåçûìÿííûé_ãðàäèåíò_37"/>
  </defs>
  <g class="cls-12">
    <g id="Layer_2" data-name="Layer 2">
      <g id="Layer_1-2" data-name="Layer 1">
        <g>
          <g>
            <circle class="cls-4" cx="103.91" cy="103.23" r="41.88"/>
            <g>
              <path class="cls-8" d="M84.87,111.39c6.35,1.74,7.85,1.25,8.98,2.95.13.2.79,1.19.66,2.48-.11,1.02-.67,1.81-1.03,2.16-2.18,2.11-8.16-.47-11.59-3.29-.75-.61-2.75-2.26-2.35-3.43.17-.48.68-.72,1.05-.88,1.63-.73,3.32-.25,4.28.02Z"/>
              <rect class="cls-16" x="103.13" y="68.71" width="1.35" height="8.87"/>
              <rect class="cls-14" x="97.89" y="76.65" width="11.83" height="5.83" rx="1.25" ry="1.25"/>
              <path class="cls-18" d="M100,79.44h7.6c9.58,0,17.36,7.78,17.36,17.36v5.07c0,5.38-4.37,9.76-9.76,9.76h-22.81c-5.38,0-9.76-4.37-9.76-9.76v-5.07c0-9.58,7.78-17.36,17.36-17.36Z"/>
              <path class="cls-11" d="M118.31,100.94h0c-.55.27-1.17.42-1.81.42h-25.39c-.63,0-1.25-.14-1.81-.42h0c-1.36-.67-2.13-2.03-1.94-3.42v-.1c.66-4.72,4.94-8.34,10.17-8.62,2.22-.12,4.54-.17,6.97-.16,1.9.01,3.74.07,5.51.16,5.26.27,9.56,3.88,10.21,8.62,0,.03,0,.07.01.1.19,1.39-.58,2.75-1.94,3.42Z"/>
              <g>
                <circle class="cls-5" cx="97.11" cy="95.53" r="4.79"/>
                <circle class="cls-9" cx="97.11" cy="95.53" r="3.44"/>
                <circle class="cls-13" cx="97.11" cy="95.53" r="2.89"/>
                <path class="cls-9" d="M98.96,94.78c0,.59-.48,1.07-1.07,1.07s-1.07-.48-1.07-1.07.48-1.07,1.07-1.07,1.07.48,1.07,1.07Z"/>
                <circle class="cls-9" cx="96.68" cy="97.74" r=".43"/>
                <path class="cls-9" d="M95.62,97.1c0,.12-.1.21-.21.21s-.21-.1-.21-.21.1-.21.21-.21.21.1.21.21Z"/>
              </g>
              <g>
                <circle class="cls-6" cx="110.05" cy="95.53" r="4.79"/>
                <circle class="cls-9" cx="110.05" cy="95.53" r="3.44"/>
                <circle class="cls-2" cx="110.05" cy="95.53" r="2.89"/>
                <path class="cls-9" d="M111.9,94.78c0,.59-.48,1.07-1.07,1.07s-1.07-.48-1.07-1.07.48-1.07,1.07-1.07,1.07.48,1.07,1.07Z"/>
                <circle class="cls-9" cx="109.62" cy="97.74" r=".43"/>
                <path class="cls-9" d="M108.56,97.1c0,.12-.1.21-.21.21s-.21-.1-.21-.21.1-.21.21-.21.21.1.21.21Z"/>
              </g>
              <path class="cls-7" d="M105.53,68.12c0,.96-.78,1.73-1.73,1.73s-1.73-.78-1.73-1.73.78-1.73,1.73-1.73,1.73.78,1.73,1.73Z"/>
              <path class="cls-3" d="M105.01,67.44c0,.29-.24.53-.53.53s-.53-.24-.53-.53.24-.53.53-.53.53.24.53.53Z"/>
              <path class="cls-3" d="M118.71,84.99c.02.81-.64,1.78-1.39,1.86-.71.08-1.27-.65-1.86-1.39-.58-.74-1.83-2.63-1.33-3.16.66-.71,4.53.79,4.58,2.7Z"/>
              <circle class="cls-3" cx="112.24" cy="81.31" r=".6"/>
              <path class="cls-3" d="M118.63,96.2c-.19.14-1.54-2.61-5.15-4.98-1.27-.84-2.52-1.43-2.45-1.6.08-.18,1.49.15,2.62.68,3.6,1.67,5.21,5.75,4.98,5.91Z"/>
              <path class="cls-3" d="M109.37,78.38s-.07-.25-.28-.64c0,0-.1-.18-.21-.34-.36-.5-1.59-.49-1.69-.49-1.92.02-3.15-.1-3.15-.09,0,0,.9,0,1.56-.02,1.86-.04,2.96-.14,3.44.36.2.21.3.48.3.48.13.36.09.74.04.74Z"/>
              <path class="cls-9" d="M108.98,103.41c-.05.46-.43.81-.89.86l-6.34.61c-.46.04-.9-.23-1.03-.67-.06-.2-.11-.4-.14-.61,0-.06,0-.12.04-.16.04-.05.09-.07.15-.08l8-.77c.06,0,.11.01.16.05.04.04.07.09.07.15,0,.21,0,.42-.02.62Z"/>
              <path class="cls-9" d="M108.98,103.41c-.2,1.97-1.77,3.58-3.81,3.78-2.01.2-3.83-1.05-4.43-2.9.16.4.58.64,1.01.59l6.35-.61c.46-.05.84-.4.89-.86Z"/>
              <path class="cls-1" d="M118.97,117.66c0,.06,0,.11,0,.17-.02.53-.14.93-.21,1.11-1.75,5.33-2.79,8.15-4.26,10.42-.25.39-.52.77-.81,1.14-.38.49-.79.98-1.24,1.47-1.01,1.1-2.55,1.6-3.04,1.77-1.81.64-3.4.52-4.46.53h-.18c-1.06-.01-2.66.11-4.46-.53-.49-.17-2.03-.67-3.04-1.77-2.79-3.03-3.86-5.55-6.31-13.03-.06-.17-.17-.54-.2-1.04,0-.14-.01-.29,0-.43.05-.89.42-1.77,1.06-2.57,1.1-1.37,2.81-2.13,4.57-2.13l8.49-.04,8.33-.03c1.8,0,3.54.75,4.69,2.14.55.67.9,1.4,1.03,2.15.02.11.03.22.04.32.01.12.02.24.02.36Z"/>
              <path class="cls-17" d="M104.86,112.72l-8.49.04c-1.76,0-3.46.76-4.57,2.13-.64.8-1.01,1.68-1.06,2.57.04-.92.42-1.82,1.09-2.64,1.14-1.39,2.89-2.15,4.69-2.14l8.33.03Z"/>
              <path class="cls-10" d="M113.29,125.22c-.12-6.58-1.01-7.88.3-9.45.15-.18.92-1.1,2.19-1.33,1.01-.19,1.93.14,2.36.38,2.63,1.49,1.85,7.96.12,12.05-.38.89-1.39,3.28-2.63,3.22-.51-.02-.88-.45-1.14-.76-1.16-1.36-1.17-3.12-1.19-4.11Z"/>
              <path class="cls-15" d="M114.5,129.36c-.25.39-.52.77-.81,1.14-.09-.09-.17-.19-.25-.27-1.16-1.36-1.17-3.12-1.19-4.11-.12-6.58-1.02-7.88.3-9.45.1-.12.45-.53,1.02-.88-1.3,1.56-.41,2.87-.29,9.44.02.99.03,2.75,1.19,4.11,0,0,.02.02.02.03Z"/>
            </g>
          </g>
          <g>
            <path class="cls-3" d="M94.47,163.73c-.08.48-.13.97-.13,1.46,0,.52.04,1.12.13,1.77-.76.3-1.62.54-2.57.71-.96.18-1.87.27-2.74.27-1.35,0-2.53-.26-3.55-.79s-1.8-1.26-2.35-2.2c-.55-.94-.82-2-.82-3.2s.29-2.33.88-3.29c.59-.96,1.41-1.71,2.46-2.24,1.05-.53,2.38-.8,3.99-.8.66,0,1.26.04,1.81.13.55.09,1.28.26,2.17.51l.73.2c-.15.6-.27,1.45-.36,2.53h-.54v-.57c0-.56-.05-.89-.14-.98-.17-.18-.62-.41-1.36-.68-.74-.27-1.58-.41-2.52-.41-1.68,0-2.96.45-3.85,1.35-.97.98-1.46,2.28-1.46,3.89s.44,2.86,1.31,3.92c1.03,1.25,2.43,1.88,4.2,1.88.92,0,1.92-.2,3-.61.03-.48.05-.99.05-1.54,0-.7-.01-1.11-.03-1.21-.02-.11-.06-.17-.12-.21-.06-.03-.36-.07-.89-.12l-1.01-.09v-.54c1.31.06,2.28.09,2.91.09.55,0,1.02-.03,1.41-.09v.43l-.6.39Z"/>
            <path class="cls-3" d="M96.83,161.83v-.57s0-.59,0-.59l.93-.53c.42-.24.79-.41,1.11-.5.32-.09.66-.14,1.01-.14.79,0,1.42.18,1.9.53.48.35.77.8.87,1.35.07.41.11,1.43.13,3.05.01,1.53.05,2.38.1,2.54.06.16.2.24.43.24h.67v.56c-.65-.04-1.1-.06-1.36-.06-.32,0-.75.02-1.28.06v-.76c0-.25,0-.49,0-.74l-1.77,1.35c-.16.12-.32.2-.47.25-.15.05-.37.07-.64.07-.74,0-1.3-.18-1.69-.54-.39-.36-.58-.85-.58-1.46,0-.58.14-1.08.42-1.51.28-.43.67-.75,1.18-.95s1.7-.47,3.56-.8c-.01-.72-.17-1.27-.48-1.63-.39-.45-.94-.68-1.66-.68-.27,0-.53.03-.77.1-.24.07-.46.17-.67.3-.17.41-.32.8-.45,1.17l-.48-.13ZM101.34,163.19c-1.59.34-2.59.66-3.02.96s-.64.76-.64,1.39c0,.42.12.76.37,1.01.25.25.56.38.95.38.43,0,.84-.12,1.23-.36.39-.24.76-.59,1.12-1.07l-.02-1.9.02-.42Z"/>
            <path class="cls-3" d="M107.78,155.07c-.1,1.67-.15,3.18-.15,4.54v4.4c0,1.75.04,2.74.11,2.97.04.12.23.2.57.23l.73.08v.5c-.62-.04-1.22-.06-1.78-.06-.63,0-1.45.02-2.47.06v-.5l.74-.06c.33-.03.51-.11.56-.25.07-.22.11-1.24.11-3.04v-6.02s-.03-1.12-.03-1.12c0-.28-.03-.45-.09-.51-.09-.09-.28-.14-.57-.14h-.7v-.51c1.19-.11,2.14-.33,2.85-.67l.15.1Z"/>
            <path class="cls-3" d="M118.45,163.67h-4.95l-.58,1.38c-.38.91-.57,1.47-.57,1.68,0,.13.04.23.11.28.07.06.25.1.54.14l.82.09v.54c-.55-.04-1.16-.06-1.85-.06-.82,0-1.54.02-2.17.06v-.54h.26c.4-.02.66-.06.77-.13.12-.07.24-.25.37-.53.41-.82.82-1.71,1.24-2.66l2.35-5.33c.63-1.42,1.06-2.44,1.28-3.08h.58l4.33,10.07c.29.68.49,1.1.58,1.24.1.14.21.24.33.3.12.06.41.1.85.12v.54c-.74-.04-1.45-.06-2.12-.06-.63,0-1.46.02-2.51.06v-.54l.85-.05c.3-.02.48-.05.54-.09.09-.06.13-.14.13-.24,0-.1-.08-.37-.26-.8l-.94-2.38ZM113.81,162.96h4.31l-2.15-5.14-2.16,5.14Z"/>
            <path class="cls-3" d="M123.62,167.23h.54c.53,0,.85-.13.95-.38s.16-1.49.16-3.69v-2.9c0-2.28-.05-3.54-.14-3.77-.09-.23-.37-.35-.82-.35h-.69v-.54c.95.04,1.89.06,2.81.06.77,0,1.47-.02,2.1-.06v.54h-.66c-.41,0-.66.05-.77.15-.1.1-.16.34-.18.74-.03.61-.04,1.7-.04,3.26v2.95c0,2.22.05,3.44.15,3.67s.41.34.94.34h.57v.54c-.7-.04-1.47-.06-2.3-.06-.97,0-1.84.02-2.61.06v-.54Z"/>
          </g>
          <g>
            <path class="cls-3" d="M37.39,186.7h-1.02l3.86-10.62h1.04l3.86,10.62h-1.02l-3.33-9.36h-.07l-3.33,9.36ZM38.12,182.63h5.27v.87h-5.27v-.87Z"/>
            <path class="cls-3" d="M52.12,180.48l-.85.24c-.08-.24-.2-.45-.35-.65-.15-.19-.35-.35-.59-.46-.24-.11-.54-.17-.91-.17-.54,0-.98.13-1.33.38s-.52.59-.52.99c0,.34.12.62.35.83.24.21.6.38,1.1.51l1.2.3c.67.16,1.17.42,1.5.77.33.35.5.8.5,1.33,0,.45-.12.85-.37,1.2-.25.35-.6.62-1.04.82-.44.2-.96.3-1.54.3-.78,0-1.42-.18-1.92-.53s-.83-.86-.97-1.52l.89-.22c.11.47.34.83.67,1.07.33.24.77.36,1.32.36.61,0,1.1-.14,1.47-.41.37-.28.55-.62.55-1.04,0-.32-.11-.59-.32-.81-.21-.22-.54-.38-.97-.48l-1.3-.31c-.69-.17-1.2-.43-1.54-.79-.33-.36-.5-.81-.5-1.34,0-.44.12-.83.36-1.16.24-.33.57-.59.99-.79.42-.19.89-.29,1.43-.29.73,0,1.31.17,1.75.5s.75.78.95,1.36Z"/>
            <path class="cls-3" d="M54.74,177.36c-.19,0-.35-.06-.49-.19s-.2-.29-.2-.47.07-.34.2-.47c.13-.13.3-.2.49-.2s.35.07.49.2c.13.13.2.29.2.47s-.07.34-.2.47-.3.19-.49.19ZM54.27,186.7v-7.97h.93v7.97h-.93Z"/>
            <path class="cls-3" d="M63,180.48l-.85.24c-.08-.24-.2-.45-.35-.65-.15-.19-.35-.35-.59-.46-.24-.11-.54-.17-.91-.17-.54,0-.98.13-1.33.38s-.52.59-.52.99c0,.34.12.62.35.83.24.21.6.38,1.1.51l1.2.3c.67.16,1.17.42,1.5.77.33.35.5.8.5,1.33,0,.45-.12.85-.37,1.2-.25.35-.6.62-1.04.82-.44.2-.96.3-1.54.3-.78,0-1.42-.18-1.92-.53s-.83-.86-.97-1.52l.89-.22c.11.47.34.83.67,1.07.33.24.77.36,1.32.36.61,0,1.1-.14,1.47-.41.37-.28.55-.62.55-1.04,0-.32-.11-.59-.32-.81-.21-.22-.54-.38-.97-.48l-1.3-.31c-.69-.17-1.2-.43-1.54-.79-.33-.36-.5-.81-.5-1.34,0-.44.12-.83.36-1.16.24-.33.57-.59.99-.79.42-.19.89-.29,1.43-.29.73,0,1.31.17,1.75.5s.75.78.95,1.36Z"/>
            <path class="cls-3" d="M68.27,178.73v.8h-3.8v-.8h3.8ZM65.66,176.83h.93v7.79c0,.33.06.59.17.78.11.19.26.32.45.4.18.08.38.12.59.12.12,0,.22,0,.31-.02.09-.02.16-.03.23-.05l.2.83c-.09.03-.2.07-.33.1-.13.03-.29.04-.49.04-.34,0-.66-.07-.98-.22-.31-.15-.57-.37-.77-.66-.2-.29-.3-.66-.3-1.09v-8.01Z"/>
            <path class="cls-3" d="M73.5,186.87c-.74,0-1.39-.17-1.93-.52-.54-.35-.96-.83-1.26-1.45-.3-.62-.44-1.33-.44-2.13s.15-1.52.44-2.14c.29-.62.71-1.11,1.23-1.47.52-.35,1.13-.53,1.82-.53.43,0,.85.08,1.25.24.4.16.76.4,1.08.72.32.32.57.73.76,1.22s.28,1.07.28,1.73v.46h-6.22v-.81h5.28c0-.51-.1-.97-.31-1.38-.21-.41-.49-.73-.86-.97-.37-.24-.79-.36-1.26-.36-.5,0-.95.13-1.33.4-.38.27-.68.63-.9,1.07-.22.44-.33.93-.33,1.45v.49c0,.63.11,1.18.33,1.66.22.47.53.84.94,1.1.4.26.88.39,1.44.39.38,0,.71-.06.99-.18.29-.12.53-.28.72-.47.2-.2.34-.42.44-.66l.88.29c-.12.33-.32.64-.59.93-.27.28-.62.51-1.03.68-.41.17-.88.26-1.41.26Z"/>
            <path class="cls-3" d="M79.69,181.72v4.98h-.92v-7.97h.9v1.25h.08c.19-.41.48-.74.87-.98.4-.25.89-.37,1.47-.37.54,0,1.01.11,1.41.33.41.22.72.55.95.98s.34.96.34,1.59v5.16h-.92v-5.1c0-.65-.18-1.17-.55-1.55-.37-.38-.85-.57-1.47-.57-.42,0-.79.09-1.11.27-.33.18-.58.44-.77.78s-.28.74-.28,1.2Z"/>
            <path class="cls-3" d="M90.37,178.73v.8h-3.8v-.8h3.8ZM87.75,176.83h.93v7.79c0,.33.06.59.17.78.11.19.26.32.45.4.18.08.38.12.59.12.12,0,.22,0,.31-.02.09-.02.16-.03.23-.05l.2.83c-.09.03-.2.07-.33.1-.13.03-.29.04-.49.04-.34,0-.66-.07-.98-.22-.31-.15-.57-.37-.77-.66-.2-.29-.3-.66-.3-1.09v-8.01Z"/>
            <path class="cls-3" d="M97.52,183.66v-4.92h.92v7.97h-.92v-1.32h-.07c-.19.41-.48.75-.89,1.02s-.9.41-1.48.41c-.51,0-.96-.11-1.35-.33-.39-.22-.7-.55-.93-.98-.22-.43-.34-.96-.34-1.59v-5.16h.92v5.1c0,.62.18,1.12.55,1.5.37.38.84.57,1.41.57.36,0,.71-.09,1.04-.26s.61-.43.82-.76c.21-.33.32-.74.32-1.23Z"/>
            <path class="cls-3" d="M101.81,176.08v10.62h-.92v-10.62h.92Z"/>
            <path class="cls-3" d="M111.49,178.73v.8h-3.8v-.8h3.8ZM108.88,176.83h.93v7.79c0,.33.06.59.17.78.11.19.26.32.45.4.18.08.38.12.59.12.12,0,.22,0,.31-.02.09-.02.16-.03.23-.05l.2.83c-.09.03-.2.07-.33.1-.13.03-.29.04-.49.04-.34,0-.66-.07-.98-.22-.31-.15-.57-.37-.77-.66-.2-.29-.3-.66-.3-1.09v-8.01Z"/>
            <path class="cls-3" d="M115.81,186.88c-.48,0-.92-.09-1.32-.28-.4-.19-.71-.46-.95-.82-.24-.36-.35-.79-.35-1.3,0-.39.08-.73.22-1s.36-.49.63-.66c.27-.17.6-.31.97-.41.37-.1.79-.18,1.23-.23.45-.05.82-.1,1.13-.14.31-.04.55-.11.71-.2.16-.09.24-.24.24-.44v-.19c0-.54-.16-.97-.49-1.28-.32-.31-.79-.47-1.39-.47-.57,0-1.04.13-1.4.38-.36.25-.62.55-.76.89l-.88-.32c.18-.44.43-.78.75-1.04.32-.26.67-.45,1.07-.57.39-.12.79-.17,1.2-.17.3,0,.62.04.95.12.33.08.64.22.92.41s.51.47.69.81c.18.35.26.79.26,1.32v5.41h-.92v-1.26h-.06c-.11.24-.28.46-.49.68-.22.22-.49.4-.82.54-.33.14-.71.21-1.16.21ZM115.94,186.04c.49,0,.92-.11,1.28-.33.36-.22.64-.51.83-.87s.29-.76.29-1.2v-1.15c-.07.07-.18.12-.34.18-.16.05-.35.1-.55.14-.21.04-.42.07-.62.1-.21.03-.39.05-.56.07-.45.06-.83.14-1.15.26-.32.12-.56.28-.73.48-.17.21-.25.47-.25.79,0,.48.17.86.52,1.12s.78.4,1.3.4ZM117.47,176.08h.87c0,.49-.16.9-.49,1.2-.33.31-.77.46-1.33.46s-1-.15-1.32-.46c-.33-.31-.49-.71-.49-1.2h.87c0,.27.07.5.22.68.15.19.39.28.72.28s.57-.09.73-.28c.15-.18.23-.41.23-.68Z"/>
            <path class="cls-3" d="M126.78,183.66v-4.92h.92v7.97h-.92v-1.32h-.07c-.19.41-.48.75-.89,1.02s-.9.41-1.48.41c-.51,0-.96-.11-1.35-.33-.39-.22-.7-.55-.93-.98-.22-.43-.34-.96-.34-1.59v-5.16h.92v5.1c0,.62.18,1.12.55,1.5.37.38.84.57,1.41.57.36,0,.71-.09,1.04-.26s.61-.43.82-.76c.21-.33.32-.74.32-1.23Z"/>
            <path class="cls-3" d="M140.41,178.73l-2.91,7.97h-.99l-2.91-7.97h1l2.37,6.75h.07l2.37-6.75h1Z"/>
            <path class="cls-3" d="M142.69,177.36c-.19,0-.35-.06-.49-.19s-.2-.29-.2-.47.07-.34.2-.47c.13-.13.3-.2.49-.2s.35.07.49.2c.13.13.2.29.2.47s-.07.34-.2.47-.3.19-.49.19ZM142.22,186.7v-7.97h.93v7.97h-.93Z"/>
            <path class="cls-3" d="M145.6,186.7v-7.97h.9v1.22h.07c.16-.4.44-.73.83-.97.4-.25.84-.37,1.35-.37.08,0,.16,0,.25,0,.09,0,.17,0,.23.01v.94s-.11-.02-.22-.03c-.1-.01-.22-.02-.34-.02-.42,0-.78.09-1.11.26-.32.17-.58.42-.77.72s-.28.66-.28,1.05v5.15h-.92Z"/>
            <path class="cls-3" d="M154.44,178.73v.8h-3.8v-.8h3.8ZM151.83,176.83h.93v7.79c0,.33.06.59.17.78.11.19.26.32.45.4.18.08.38.12.59.12.12,0,.22,0,.31-.02.09-.02.16-.03.23-.05l.2.83c-.09.03-.2.07-.33.1-.13.03-.29.04-.49.04-.34,0-.66-.07-.98-.22-.31-.15-.57-.37-.77-.66-.2-.29-.3-.66-.3-1.09v-8.01Z"/>
            <path class="cls-3" d="M161.6,183.66v-4.92h.92v7.97h-.92v-1.32h-.07c-.19.41-.48.75-.89,1.02s-.9.41-1.48.41c-.51,0-.96-.11-1.35-.33-.39-.22-.7-.55-.93-.98-.22-.43-.34-.96-.34-1.59v-5.16h.92v5.1c0,.62.18,1.12.55,1.5.37.38.84.57,1.41.57.36,0,.71-.09,1.04-.26s.61-.43.82-.76c.21-.33.32-.74.32-1.23Z"/>
            <path class="cls-3" d="M167.18,186.88c-.48,0-.92-.09-1.32-.28-.4-.19-.71-.46-.95-.82-.24-.36-.35-.79-.35-1.3,0-.39.08-.73.22-1s.36-.49.63-.66c.27-.17.6-.31.97-.41.37-.1.79-.18,1.23-.23.45-.05.82-.1,1.13-.14.31-.04.55-.11.71-.2.16-.09.24-.24.24-.44v-.19c0-.54-.16-.97-.49-1.28-.32-.31-.79-.47-1.39-.47-.57,0-1.04.13-1.4.38-.36.25-.62.55-.76.89l-.88-.32c.18-.44.43-.78.75-1.04.32-.26.67-.45,1.07-.57.39-.12.79-.17,1.2-.17.3,0,.62.04.95.12.33.08.64.22.92.41s.51.47.69.81c.18.35.26.79.26,1.32v5.41h-.92v-1.26h-.06c-.11.24-.28.46-.49.68-.22.22-.49.4-.82.54-.33.14-.71.21-1.16.21ZM167.31,186.04c.49,0,.92-.11,1.28-.33.36-.22.64-.51.83-.87s.29-.76.29-1.2v-1.15c-.07.07-.18.12-.34.18-.16.05-.35.1-.55.14-.21.04-.42.07-.62.1-.21.03-.39.05-.56.07-.45.06-.83.14-1.15.26-.32.12-.56.28-.73.48-.17.21-.25.47-.25.79,0,.48.17.86.52,1.12s.78.4,1.3.4Z"/>
            <path class="cls-3" d="M174.01,176.08v10.62h-.92v-10.62h.92Z"/>
          </g>
        </g>
      </g>
    </g>
  </g>
</svg>