<?xml version="1.0" encoding="UTF-8"?>
<svg id="Layer_2" data-name="Layer 2" xmlns="http://www.w3.org/2000/svg" viewBox="0 0 1412.37 163.39">
  <defs>
    <style>
      .cls-1 {
        fill: #fff;
        stroke-width: 0px;
      }
    </style>
  </defs>
  <g id="Layer_1-2" data-name="Layer 1">
    <g>
      <path class="cls-1" d="M23.96,139.46C8.5,124.03,0,103.52,0,81.69S8.51,39.35,23.96,23.92C38.44,9.45,57.33,1.58,76.61.37c1.68-.24,3.38-.37,5.09-.37.22,0,.41.1.57.23,5.98.03,11.95.65,17.81,1.98.12-.02.23-.08.36-.04,1.46.41,2.84.84,4.13,1.26,10.7,3.08,20.91,8.3,29.82,15.86.22.15.47.41.72.64.12.12.27.2.39.33,5.69,5.69,5.69,14.94,0,20.63-2.84,2.84-6.58,4.27-10.31,4.27s-7.47-1.42-10.32-4.27c-5.69-5.69-5.69-14.94,0-20.63.01,0,.02-.01.03-.02,0,0,0,0,0,0,2.44-2.23,3.46-4.31,3.02-6.17-.74-3.11-5.38-6.09-13.78-8.87-8.93-2.58-18.2-3.6-27.41-3.03-26.63,3.83-47.54,38.02-47.54,79.52s21.58,76.77,48.81,79.67c11.01.5,22.09-1.21,32.51-5.23v-68.72c-.01-2.66-2.18-4.82-4.85-4.82-.5,0-.9-.4-.9-.9s.41-.9.9-.9h5.75s.03.02.04.02h27.3s.03-.02.04-.02h5.75c.5,0,.9.4.9.9s-.41.9-.9.9c-2.65,0-4.8,2.15-4.84,4.79v51.44c0,.26-.11.48-.29.65-15.89,15.88-36.75,23.84-57.62,23.87-.05,0-.08.05-.12.05-1.29,0-2.58-.09-3.85-.23-19.61-.91-38.96-8.75-53.91-23.7Z"/>
      <path class="cls-1" d="M166.05,162.49c0-.5.4-.9.9-.9,2.76,0,5.89-2.34,6.84-5.12h0v-.02L226.68.61c.25-.73,1.46-.73,1.71,0l52.89,155.83c.94,2.78,4.08,5.14,6.85,5.14.5,0,.9.41.9.9s-.41.9-.9.9h-33.03s-.03,0-.04,0h-5.75c-.5,0-.9-.4-.9-.9s.4-.9.9-.9c1.18,0,2.13-.43,2.69-1.2.61-.85.7-2.04.26-3.34v-.02s-8.71-25.64-8.71-25.64h-59.34l-8.71,25.65c-.44,1.31-.35,2.51.26,3.36.55.77,1.51,1.2,2.68,1.2.5,0,.9.4.9.9s-.4.9-.9.9h-11.49c-.5,0-.9-.4-.9-.9ZM213.87,43.98l-29.05,85.59h58.11l-29.06-85.59Z"/>
      <path class="cls-1" d="M333.42,156.74V6.66c0-2.68-2.17-4.85-4.85-4.85-.5,0-.9-.41-.9-.9s.4-.9.9-.9h38.89c.5,0,.9.4.9.9s-.4.9-.9.9c-2.67,0-4.85,2.17-4.85,4.85v154.93h53.15c15.08,0,27.34-12.27,27.34-27.34,0-.5.4-.9.9-.9s.9.4.9.9v28.25c0,.5-.4.9-.9.9h-115.44c-.5,0-.9-.4-.9-.9s.4-.9.9-.9c2.67,0,4.85-2.18,4.85-4.85Z"/>
      <path class="cls-1" d="M470.59,81.69c0-45.05,36.65-81.69,81.69-81.69s81.69,36.65,81.69,81.69-36.65,81.69-81.69,81.69-81.69-36.65-81.69-81.69ZM604.79,81.7c0-44.05-23.56-79.89-52.5-79.89s-52.5,35.83-52.5,79.88,23.56,79.89,52.5,79.89,52.5-35.84,52.5-79.89Z"/>
      <path class="cls-1" d="M668.6,162.49v-28.24c0-.5.4-.9.9-.9s.9.4.9.9c0,15.08,12.27,27.34,27.34,27.34h40.24c.88,0,1.74-.08,2.61-.13,12.88-1.31,22.97-12.2,22.97-25.39,0-8.98-4.58-17.15-12.25-21.84l-62.73-36.29c-12.52-7.76-19.98-21.15-19.98-35.83C668.61,18.89,687.5,0,710.71,0h68.48c.5,0,.9.4.9.9v28.23c0,.5-.4.9-.9.9s-.9-.4-.9-.9c0-15.08-12.27-27.34-27.34-27.34h-40.24c-.88,0-1.74.08-2.61.13-12.88,1.31-22.97,12.23-22.97,25.45,0,8.99,4.58,17.15,12.26,21.84l62.73,36.29c12.52,7.76,19.98,21.15,19.98,35.83,0,22.24-17.4,40.46-39.31,41.9-.92.1-1.85.14-2.8.14h-68.49c-.5,0-.9-.4-.9-.89Z"/>
      <path class="cls-1" d="M856.62,162.49c0,.5-.4.9-.9.9h-38.89c-.5,0-.9-.41-.9-.9s.4-.9.9-.9c2.67,0,4.85-2.18,4.85-4.85V6.66c0-2.68-2.17-4.85-4.85-4.85-.5,0-.9-.41-.9-.9s.4-.9.9-.9h115.44c.5,0,.9.4.9.9v28.24c0,.5-.4.9-.9.9s-.9-.4-.9-.9c0-15.08-12.27-27.34-27.34-27.34h-53.15v78.99h21.86c5.02,0,9.11-4.08,9.11-9.11,0-.5.4-.9.9-.9s.9.41.9.9v20.02c0,.5-.41.9-.9.9s-.9-.4-.9-.9c0-5.02-4.08-9.11-9.11-9.11h-21.86v74.13c0,2.67,2.17,4.85,4.85,4.85.5,0,.9.41.9.9Z"/>
      <path class="cls-1" d="M977.6,156.74V6.66c0-2.68-2.17-4.85-4.85-4.85-.5,0-.9-.41-.9-.9s.4-.9.9-.9h115.44c.5,0,.9.4.9.9v28.24c0,.5-.4.9-.9.9s-.9-.4-.9-.9c0-15.08-12.27-27.34-27.34-27.34h-53.15v78.99h21.87c5.02,0,9.11-4.08,9.11-9.11,0-.5.41-.9.9-.9s.9.41.9.9v20.02c0,.5-.4.9-.9.9s-.9-.4-.9-.9c0-5.02-4.08-9.11-9.11-9.11h-21.87v78.99h53.15c15.08,0,27.34-12.27,27.34-27.34,0-.5.4-.9.9-.9s.9.4.9.9v28.25c0,.5-.4.9-.9.9h-115.44c-.5,0-.9-.4-.9-.9s.4-.9.9-.9c2.67,0,4.85-2.18,4.85-4.85Z"/>
      <path class="cls-1" d="M1244.05,163.38h-30.42s-.03.01-.04.01h-5.75c-.5,0-.9-.4-.9-.9s.41-.9.9-.9c1.1,0,1.94-.37,2.36-1.05.51-.82.43-2.06-.23-3.4l-31.09-63.46h-16.18v63.06c0,2.67,2.17,4.85,4.85,4.85.5,0,.9.41.9.9s-.4.9-.9.9h-38.89c-.5,0-.9-.4-.9-.9s.4-.9.9-.9c2.67,0,4.85-2.18,4.85-4.85V6.66c0-2.67-2.17-4.85-4.85-4.85-.5,0-.9-.4-.9-.9s.4-.9.9-.9h69.5c.33,0,.65.08.98.12.09-.04.17-.12.28-.12,25.82,0,46.84,21.01,46.84,46.84,0,21.93-15.18,40.35-35.58,45.41l31.4,64.09h0c1.39,2.85,4.94,5.25,7.75,5.25.5,0,.9.4.9.9s-.4.9-.9.9h-5.75s-.02-.01-.04-.01h0ZM1162.7,1.82v90.06h35.46c9.57,0,17.65-20.62,17.65-45.04s-8.08-45.03-17.65-45.03h-33.23s-.02,0-.02,0h-2.21Z"/>
      <path class="cls-1" d="M1289.38,162.49c0-.5.4-.9.9-.9,2.76,0,5.89-2.34,6.84-5.12h0v-.02L1350.02.61c.25-.73,1.46-.73,1.71,0l52.89,155.83c.94,2.78,4.08,5.14,6.85,5.14.5,0,.9.41.9.9s-.41.9-.9.9h-33.03s-.03,0-.04,0h-5.75c-.5,0-.9-.4-.9-.9s.4-.9.9-.9c1.18,0,2.13-.43,2.69-1.2.61-.85.7-2.04.26-3.34v-.02s-8.71-25.64-8.71-25.64h-59.34l-8.71,25.65c-.44,1.31-.35,2.51.26,3.36.55.77,1.51,1.2,2.68,1.2.5,0,.9.4.9.9s-.4.9-.9.9h-11.49c-.5,0-.9-.4-.9-.9ZM1337.21,43.98l-29.05,85.59h58.11l-29.06-85.59Z"/>
    </g>
  </g>
</svg>