<?xml version="1.0" encoding="UTF-8"?>
<svg id="Layer_2" data-name="Layer 2" xmlns="http://www.w3.org/2000/svg" xmlns:xlink="http://www.w3.org/1999/xlink" viewBox="0 0 694.24 55.91">
  <defs>
    <style>
      .cls-1 {
        fill: #fff;
      }
    </style>
  </defs>
  <g id="Layer_1-2" data-name="Layer 1">
    <g>
      <g>
        <path class="cls-1" d="M40.75,12.13l.06-.18c.09-.27.18-.49.21-.59l.02-.05c.16-.41-.03-1.9-.98-3.27-1.1-1.59-3.37-3.22-6.01-3.37v2.82s0,.07-.01.11h0s0,.02,0,.02l-.02.07s-.03.05-.04.07c-.02.02-.03.05-.05.07-.04.04-.07.07-.12.11-.02,0-.03.01-.04.02,0,0,0,.01-.01.01,0,0,0,0,0,0,0,0-.01,0-.01,0-.07.02-.13.04-.19.04-.02,0-.04,0-.07,0-.02,0-.04,0-.06,0-.04-.01-.08-.02-.12-.04h-.02c-.31-.17-.67-.26-.94-.26-.07,0-.14,0-.21.02-.2.04-.38.14-.53.28h0s-.07.08-.1.12c-.02.02-.03.04-.04.06-.1.16-.16.35-.16.55,0,.07,0,.14.02.21h0c.01.08.03.14.06.2.02.04.05.09.07.13.01.02.03.06.06.08.02.04.06.07.09.11,0,0,0,0,0,0,0,0,0,0,0,0,.04.04.09.08.14.11,0,0,.01.01.01.01.05.03.1.06.16.08,0,0,.01,0,.02.01h.01s.09.04.14.05c.03,0,.07.01.11.01.03,0,.06.01.09.01h.04s.08,0,.12,0c.1,0,.2-.02.31-.05.02,0,.04-.01.06-.02.06-.01.11-.03.17-.06.03,0,.07-.02.1-.04.04-.02.09-.04.13-.06.01,0,.03-.01.05-.02.05-.02.1-.04.14-.05.03,0,.06,0,.1,0h0s.06,0,.09,0c.03,0,.06.01.1.02.01,0,.02.01.04.02h.01s.04.02.06.04c.02.01.06.04.08.06,0,0,.02.02.03.04.01,0,.02.02.02.02t.01.01s.02.04.04.07l.04.11h0s0,.02,0,.02h0c0,.05.01.09.01.11v3.05h3.08s.05-.01.07-.02c0,0,.02,0,.02,0,.02-.02.04-.04.06-.06,0-.01.01-.02.02-.03.01-.02.02-.05.02-.07,0-.01,0-.02,0-.04,0-.03-.01-.07-.02-.1-.02-.03-.03-.07-.05-.11-.15-.33-.25-.68-.25-.97,0,0,0-.01,0-.01,0-.04,0-.08,0-.11,0-.04,0-.07,0-.09,0-.02,0-.02.01-.04,0-.01,0-.02,0-.03,0-.05.02-.09.03-.12,0-.02.02-.05.02-.07.01-.02.02-.04.02-.06,0,0,0-.01,0-.01l.03-.07s.05-.08.07-.12c.25-.36.66-.61,1.13-.61.75,0,1.35.61,1.35,1.36,0,.33-.11.73-.29,1.08-.01.03-.01.06-.02.09v.04s.01.05.02.08c0,.01.01.02.02.03.01.02.02.04.04.05,0,0,0,0,.01.01.03.01.06.02.09.02h.96c-.02-.11-.04-.21-.02-.33.02-.1.09-.27.22-.64h0Z"/>
        <path class="cls-1" d="M41.91,15.68c-.02-.25-.21-.65-.63-1.34-.12-.19-.23-.35-.31-.49-.12-.18-.2-.31-.27-.43h-1.05s-.03,0-.05,0h0s0,0,0,0h-.04s-.06-.01-.08-.02c0,0-.04,0-.07-.03-.01,0-.02-.02-.04-.02,0,0-.01,0-.02-.01-.05-.03-.11-.08-.15-.14,0,0,0-.02,0-.02t-.01-.01v-.02s-.02-.02-.02-.04c-.01,0-.02-.05-.04-.1,0-.02,0-.04,0-.06v-.09s0-.06,0-.07c0-.04.02-.09.04-.12t0,0s.02-.06.04-.09c.13-.29.21-.6.21-.85,0-.57-.46-1.04-1.04-1.04-.28,0-.54.11-.73.31-.05.05-.09.1-.13.16h0c-.03.06-.06.1-.08.16,0,.01-.01.03-.02.05-.02.04-.03.09-.04.13,0,0,0,.02,0,.03-.01.06-.02.13-.02.19h0c0,.24.07.53.19.81.02.04.04.09.06.14h0c.04.08.06.16.06.24,0,.02,0,.04,0,.06,0,.04,0,.09-.02.12l-.02.04s0,.02,0,.03c0,0,0,.01,0,.01,0,0,0,0,0,.01,0,0,0,0,0,.01-.02.04-.05.07-.09.1,0,.01-.03.04-.06.06h-.01s-.07.03-.11.05c-.02,0-.04.02-.07.02-.01,0-.02.02-.05.02h-.02s0,0,0,0h-3.11v3.07c0,.07.04.13.11.18.07.04.15.04.23,0,.36-.18.76-.29,1.08-.29.75,0,1.35.61,1.35,1.35s-.61,1.35-1.35,1.35c-.33,0-.73-.11-1.08-.29-.07-.03-.16-.03-.23.01-.07.04-.11.11-.11.19v3.07h1.1c.14-.54.38-1.03.73-1.49.14-.18.39-.26.61-.19l.14.04c.53.14,2.09.58,2.39.58h.02c.3-.03.92-.39,1-.78.04-.2.01-.53-.07-.89-.06-.26.01-.55.2-.74.12-.14.19-.23.21-.26,0-.05-.07-.33-.14-.55l-.04-.14.14-.05c.15-.06.38-.17.46-.26.02-.07-.09-.44-.24-.78l-.06-.14.14-.06c.53-.24,1.15-.55,1.3-.67h0Z"/>
        <path class="cls-1" d="M30.59,22.07h0s3.14,0,3.14,0v-3.14s.01-.02.01-.02c.03-.15.12-.28.25-.36.16-.1.36-.11.53-.02.31.16.67.25.95.25.57,0,1.04-.46,1.04-1.04s-.47-1.04-1.04-1.04c-.28,0-.63.09-.95.25-.17.09-.37.08-.53-.02-.13-.08-.21-.21-.25-.36,0,0,0,0,0-.01v-.04s0-.03,0-.05v-3.05h-3.06c-.08,0-.15.04-.19.11-.04.07-.04.16,0,.23.18.36.29.77.29,1.08,0,.75-.61,1.35-1.36,1.35s-1.35-.6-1.35-1.35c0-.33.11-.73.29-1.08.04-.07.04-.16,0-.23-.04-.07-.12-.11-.19-.11h-1.54c.14.49.31.95.5,1.43.4,1,.81,2.03.82,3.45,0,1.24-.33,2.51-.97,3.78h3.64Z"/>
        <path class="cls-1" d="M23.58,8.45c.14.03.26.11.34.24.1.16.11.36.02.54-.16.31-.26.66-.26.94,0,.58.47,1.04,1.04,1.04s1.05-.46,1.05-1.04c0-.27-.1-.63-.26-.94-.09-.17-.08-.37.02-.53.08-.13.21-.22.36-.25.01,0,.01-.01.02-.01,0,0,0,0,.01,0,.02,0,.05-.01.07-.01h3.05v-3.1l-.02-.02-.04-.09h0s-.02-.02-.02-.02c0,0-.01-.01-.05-.02-.04-.02-.08-.02-.14,0l-.09.04h-.01s0,0,0,0c-.02.01-.05.02-.08.04-.03.02-.06.02-.09.04,0,0,0,0-.01,0-.02.01-.07.03-.12.04l-.12.04h0c-.11.04-.23.06-.33.07h-.04c-.07.01-.14.02-.21.02-.04,0-.09,0-.13,0-.01,0-.04,0-.08-.01,0,0-.01,0-.02,0-.01,0-.03,0-.05,0h-.01l-.09-.02s-.03-.01-.05-.01c-.04-.02-.06-.02-.09-.04-.02,0-.04-.01-.05-.02-.01,0-.04-.02-.07-.03-.03-.02-.04-.02-.06-.04l-.06-.04-.09-.07s-.04-.04-.07-.07c-.01,0-.02-.01-.03-.02h0s-.06-.07-.08-.1c-.06-.06-.09-.12-.12-.19l-.02-.02h0s0-.01,0-.01c-.02-.04-.04-.07-.05-.11-.02-.02-.03-.07-.04-.11l-.02-.06s0-.02,0-.04h-.01s0-.09,0-.09c0,0,0-.04-.01-.08v-.02s0-.07,0-.12c0-.05,0-.09,0-.15,0-.02,0-.06.02-.11v-.05s.02-.03.02-.04l.02-.06s.01-.05.02-.07v-.02l.02-.03s.03-.07.05-.11c.04-.06.07-.11.1-.16.01-.02.02-.04.04-.06l.05-.06s.02-.01.02-.02c.04-.05.08-.08.11-.11,0,0,.01-.01.02-.01,0,0,.01-.01.02-.02.02-.01.03-.02.04-.03.02-.02.05-.04.08-.06h.02s.03-.03.04-.04h0s.2-.09.2-.09c.01,0,.02,0,.04,0,.01-.01.05-.02.09-.02h.03s.05-.02.09-.02c.06-.02.21-.02.35,0h.08c.09.02.18.04.26.06h.02s.01,0,.01,0c.07.02.14.04.21.07l.06.02c.09.04.18.07.26.12h.02s.02.02.04.03h.06l.08-.02s.03-.02.04-.03c0,0,.02-.01.02-.01l.05-.07s0-.03,0-.04V0c-.28,0-.55,0-.8.03-.58.06-3.61.46-5.38,3.04-.36.51-.99,1.61-1.17,3.15-.09.76-.05,1.47.12,2.2h1.71s.03.01.04.02h0Z"/>
        <path class="cls-1" d="M9.28,30.63l2.35-3.95.21-.46.02-.02.68.44c.21.13.49.4.49.66,0,.06,0,.09-.02.13l-1.86,4.38-1.25,3.55c.32,0,.7-.36.89-.57.15-.15.17-.3.42-.3.15,0,.27.09.27.25,0,.13-.09.25-.19.34-.42.49-.91.82-1.58.87l-.63,2.28c-.17.63-.23,1.27-.23,1.9,0,1.1.13,2.11,1.42,2.11.11.06.17.15.17.27s-.08.27-.21.3c-2.05,0-3.21-.7-3.21-2.9,0-.57.09-1.16.23-1.71l.7-2.62v-.02s-.17-.09-.25-.13c-.11-.06-.68-.3-.84-.36l-1.2,1.48-.85.97-.78.74c-.72.68-1.94,1.48-3,1.48-.74,0-1.06-.59-1.06-1.25,0-1.46,1.67-4.21,3.32-4.21.59,0,.91.3.91.89,0,.34-.34,1.82-.84,1.82-.13,0-.17-.11-.17-.23,0-.51.44-.95.44-1.5,0-.21-.09-.36-.3-.4h-.11c-1.29,0-2.66,2.51-2.66,3.63,0,.38.15.66.53.66.93,0,1.86-.74,2.52-1.31.09-.09.42-.38.46-.44l.82-.85,1.54-1.78.38-.49,2.45-3.64h0ZM9.51,31.35s.02-.04,0-.04v.04h0ZM9.51,31.35s-.02,0,0,0h0ZM7.27,34.6c.08.02.49.21.55.23.06.04.28.15.34.17l1.33-3.63v-.02l-2.2,3.21s-.02.02-.02.04h0ZM11.55,32.63c0-1.5.99-3.07,2.64-3.07.25,0,.47.11.61.32.02.06.19.32.21.4,0,0-.04,0-.06-.02-.21-.09-.4-.23-.63-.23-.78,0-1.25,1.21-1.25,1.86,0,.25.04.47.11.7l.36,1.25.06.38s.06-.04.08-.04l.87-.42c.85-.44,1.59-1.01,2.18-1.75.04-.04.11-.04.15-.04.15,0,.27.09.27.25v.06c-.42.72-1.77,1.63-2.49,1.95l-1.03.49-.02.04c-.02.36-.08.7-.21,1.04-.59,1.48-2.28,2.45-3.83,2.45-.42-.06-.74-.28-.82-.7,0-.97.82-1.48,1.58-1.9.09-.06.42-.23.47-.25l.95-.42s.02-.04.02-.04v-.19c0-.08,0-.21-.02-.3l-.15-1.14c-.04-.23-.06-.46-.06-.7h0ZM10.12,36.33c-.32.17-.63.59-.63.97,0,.21.15.28.34.28.7,0,1.23-.84,1.54-1.37,0-.04.09-.21.13-.27.04-.08.13-.27.13-.38-.02,0-.46.21-.65.3-.13.06-.74.38-.87.46h0ZM15.46,35.25c0-.85.49-1.77.93-2.47.7-1.1,2.13-2.87,3.61-2.87.7,0,.99.51.99,1.18,0,.85-.46,1.73-.85,2.47.19,0,.38-.06.55-.13.87-.32,1.59-1.02,2.11-1.77l.02-.02c.23,0,.3.04.38.28-.04.08-.19.27-.19.28-.02.02-.13.17-.17.21-.74.87-1.86,1.67-3.04,1.67v.02c-.57.76-1.97,2.51-3.02,2.51-.84,0-1.31-.53-1.31-1.37h0ZM18.94,32.4c0,.36.06.84.4,1.06.06.02.13.08.21.08.44-.65.95-1.67.95-2.47,0-.34-.13-.66-.51-.66-.53,0-.89.87-.97,1.29-.06.23-.08.46-.08.7h0ZM17.12,35.34c0,.15.04.3.21.3.38,0,.76-.34.99-.59.06-.04.27-.25.3-.3.06-.08.38-.46.46-.53.02-.04.15-.21.17-.23,0-.02-.25-.13-.28-.15-.42-.27-.63-.7-.72-1.2v.02s-.15.23-.21.32c-.32.55-.91,1.69-.91,2.35h0ZM21.72,34.68c0-2.03,2.09-4.5,4.2-4.5.49,0,1.1.19,1.2.74,0,.27-.04.84-.4.84-.11,0-.21-.08-.21-.19,0-.17.11-.3.11-.47v-.06c-.04-.09-.11-.13-.21-.13-.93,0-2.92,2.83-2.92,4,0,.66.53.8,1.08.8.47-.06.91-.4,1.27-.66.08-.06.34-.28.4-.32.13-.11.51-.47.55-.51l.99-1.01,1.29-1.52c.09-.11.15-.17.17-.3h.02c.13,0,.42.02.42.21v.19h-.08l-.57.72-1.03,1.18-1.18,1.2s-.32.3-.42.36c-.74.63-1.63,1.25-2.64,1.25-1.18,0-2.05-.55-2.05-1.8h0ZM30.57,29.65c0-.66.72-1.42,1.4-1.42.47,0,.74.36.74.84,0,.66-.63,1.4-1.33,1.4-.46,0-.82-.34-.82-.82h0ZM28.31,35.06c0-.59.21-1.18.42-1.73.02-.06.11-.32.13-.34l.95-2.05c.08-.17.19-.28.36-.28.15,0,.28.06.42.09.32.11.8.3.8.72,0,.06,0,.13-.04.17-.27.44-.53.99-.76,1.46-.04.09-.25.59-.28.7-.13.34-.27.74-.27,1.1,0,.13.02.23.17.23.3,0,.63-.21.87-.34.06-.04.27-.15.28-.17.15-.11.61-.42.65-.46l.76-.57.17-.17.76-.84.8-1.01s.11-.13.17-.15c.11,0,.34.02.34.17v.13l-.44.59-.65.8-.76.82c-.06.06-.47.46-.61.57-.78.78-2.09,1.65-3.21,1.65-.68,0-1.04-.44-1.04-1.1h0ZM39.25,30.99c.11-.21.27-.61.57-.61.13,0,.25.08.38.15.23.15.66.36.66.72,0,.13-.08.25-.13.34l-.68,1.44-.7,1.75-.27.82-.19.68c-.04.19-.08.44-.08.66,0,.04,0,.15.06.15.17,0,.36-.21.46-.3l.27-.27c.08-.09.34-.38.38-.42l1.1-1.33,2.45-3.3s.08-.11.15-.11c.15,0,.3.08.3.27v.04l-.53.78-2.32,3.09-.89,1.02s-.42.42-.55.55c-.25.25-.84.78-1.22.78-.91,0-1.18-.8-1.18-1.58,0-.7.19-1.39.44-2.05-.02,0-.04.02-.04.02-.06.04-.25.21-.28.25l-.84.72c-.06.04-.44.32-.55.4-.36.27-.84.57-1.31.57-.66,0-.99-.53-.99-1.14,0-.49.17-.97.38-1.4.68-1.48,2.3-3.23,4.08-3.23.34,0,.63.11.87.34.04.02.17.19.19.19h0ZM35.17,35.19c0,.11.09.15.19.15.19,0,.38-.13.53-.23.08-.06.34-.23.36-.25l.72-.57,1.18-1.12.44-.93c.08-.15.13-.34.13-.51,0-.13-.06-.19-.19-.19-.23,0-.49.13-.7.25-1.04.57-2.07,1.69-2.51,2.81-.08.17-.15.4-.15.59h0ZM37.73,34.28v-.02.02h0ZM44.57,29l1.4-2.64.13-.21c.42.17,1.29.38,1.29.95,0,.08,0,.17-.06.25l-.72,1.39v.02c.15,0,.3-.02.46-.02.66,0,1.33.19,1.33.95,0,.46-.25.84-.53,1.18h-.06c-.13,0-.34-.08-.34-.25s.08-.34.08-.49c0-.46-.36-.46-.7-.46-.19.02-.68.08-.68.08h-.04l-.46.93-1.23,2.85-.34.97c-.15.47-.3,1.01-.3,1.52,0,.25.04.59.34.63.95,0,1.69-.61,2.34-1.23l.42-.42.7-.8,1.56-1.95s.09-.13.13-.19c.02-.04.02-.08.02-.09l.02-.02c.19,0,.44.04.44.28v.04l-1.25,1.67-1.48,1.69-.72.7c-.04.06-.42.38-.55.47-.47.38-1.12.84-1.77.84-1.31,0-1.88-.87-1.88-2.11,0-.57.09-1.14.28-1.67l.3-.87.53-1.27.87-1.77c-.8-.06-1.67-.32-1.67-1.31,0-.27.02-.95.4-.95.11,0,.27.08.27.21,0,.11-.04.23-.04.34,0,.72.68.8,1.25.8.08,0,.27-.02.27-.02h0ZM49.95,29.65c0-.66.72-1.42,1.4-1.42.47,0,.74.36.74.84,0,.66-.63,1.4-1.33,1.4-.46,0-.82-.34-.82-.82h0ZM47.69,35.06c0-.59.21-1.18.42-1.73.02-.06.11-.32.13-.34l.95-2.05c.08-.17.19-.28.36-.28.15,0,.28.06.42.09.32.11.8.3.8.72,0,.06,0,.13-.04.17-.27.44-.53.99-.76,1.46-.04.09-.25.59-.28.7-.13.34-.27.74-.27,1.1,0,.13.02.23.17.23.3,0,.63-.21.87-.34.06-.04.27-.15.28-.17.15-.11.61-.42.65-.46l.76-.57.17-.17.76-.84.8-1.01s.11-.13.17-.15c.11,0,.34.02.34.17v.13l-.44.59-.65.8-.76.82c-.06.06-.47.46-.61.57-.78.78-2.09,1.65-3.21,1.65-.68,0-1.04-.44-1.04-1.1h0ZM58.63,30.99c.11-.21.27-.61.57-.61.13,0,.25.08.38.15.23.15.66.36.66.72,0,.13-.08.25-.13.34l-.68,1.44-.7,1.75-.27.82-.19.68c-.04.19-.08.44-.08.66,0,.04,0,.15.06.15.17,0,.36-.21.46-.3l.27-.27c.08-.09.34-.38.38-.42l1.1-1.33,2.45-3.3s.08-.11.15-.11c.15,0,.3.08.3.27v.04l-.53.78-2.32,3.09-.89,1.02s-.42.42-.55.55c-.25.25-.84.78-1.22.78-.91,0-1.18-.8-1.18-1.58,0-.7.19-1.39.44-2.05-.02,0-.04.02-.04.02-.06.04-.25.21-.28.25l-.84.72c-.06.04-.44.32-.55.4-.36.27-.84.57-1.31.57-.66,0-.99-.53-.99-1.14,0-.49.17-.97.38-1.4.68-1.48,2.3-3.23,4.08-3.23.34,0,.63.11.87.34.04.02.17.19.19.19h0ZM54.55,35.19c0,.11.09.15.19.15.19,0,.38-.13.53-.23.08-.06.34-.23.36-.25l.72-.57,1.18-1.12.44-.93c.08-.15.13-.34.13-.51,0-.13-.06-.19-.19-.19-.23,0-.49.13-.7.25-1.04.57-2.07,1.69-2.51,2.81-.08.17-.15.4-.15.59h0ZM57.11,34.28v-.02.02h0Z"/>
        <path class="cls-1" d="M7.79,47.05c.78,0,1.28.59,1.28,1.31s-.5,1.3-1.28,1.3h-.96v1.56h-.7v-4.17h1.66ZM7.68,49.07c.47,0,.71-.29.71-.71s-.25-.71-.71-.71h-.85v1.43h.85ZM13.55,51.23l-1.08-1.86h-.45v1.86h-.7v-4.17h1.45c.9,0,1.3.54,1.3,1.21,0,.58-.35.97-.9,1.07l1.2,1.89h-.82ZM12.02,47.65v1.2h.65c.51,0,.73-.24.73-.6s-.22-.61-.73-.61h-.65ZM18.37,51.28c-1.2,0-2.11-.82-2.11-2.14s.91-2.14,2.11-2.14,2.1.82,2.1,2.14-.91,2.14-2.1,2.14h0ZM18.37,50.63c.79,0,1.41-.55,1.41-1.49s-.62-1.49-1.41-1.49-1.41.55-1.41,1.49.62,1.49,1.41,1.49h0ZM27.26,51.28c-.89,0-1.58-.49-1.58-1.48v-2.75h.7v2.65c0,.66.38.95.87.95s.88-.29.88-.95v-2.65h.7v2.75c0,.98-.69,1.48-1.58,1.48h0ZM34.18,47.05h.7v4.17h-.78l-2.05-3.18v3.18h-.69v-4.17h.78l2.05,3.16v-3.16h0ZM39.82,47.68h-1.62v1.16h1.43v.62h-1.43v1.15h1.62v.63h-2.33v-4.17h2.33v.62h0ZM43.53,51.28c-.88,0-1.54-.42-1.68-1.16l.72-.17c.08.48.47.74.99.74.41,0,.78-.17.77-.61,0-.46-.51-.59-1.06-.74-.63-.18-1.28-.39-1.28-1.16s.64-1.19,1.43-1.19c.73,0,1.42.31,1.59,1.06l-.68.17c-.09-.44-.44-.64-.87-.64-.39,0-.76.17-.76.59,0,.39.44.51.95.65.65.18,1.41.4,1.41,1.24s-.72,1.22-1.52,1.22h0ZM49.17,51.28c-1.2,0-2.11-.82-2.11-2.14s.91-2.14,2.11-2.14c.88,0,1.6.44,1.91,1.19l-.65.25c-.22-.5-.69-.79-1.26-.79-.79,0-1.41.55-1.41,1.49s.62,1.49,1.41,1.49c.57,0,1.04-.28,1.26-.78l.65.25c-.31.75-1.03,1.19-1.91,1.19h0ZM55.12,51.28c-1.2,0-2.11-.82-2.11-2.14s.91-2.14,2.11-2.14,2.1.82,2.1,2.14-.91,2.14-2.1,2.14h0ZM55.12,50.63c.79,0,1.41-.55,1.41-1.49s-.62-1.49-1.41-1.49-1.41.55-1.41,1.49.62,1.49,1.41,1.49h0Z"/>
      </g>
      <image width="1024" height="211" transform="translate(442.33 4) scale(.25)" xlink:href="../../LOGOURI parteneri/Logo-JTM-1024x211.png"/>
      <image width="764" height="207" transform="translate(185.33 11) scale(.21)" xlink:href="../../LOGOURI parteneri/WhatsApp Image 2024-12-31 at 11.57.00_a6484c9b.jpg"/>
    </g>
  </g>
</svg>