<?xml version="1.0" encoding="UTF-8"?>
<svg id="Layer_2" xmlns="http://www.w3.org/2000/svg" viewBox="0 0 19 17">
  <defs>
    <style>
      .cls-1 {
        fill: none;
        stroke: #000;
        stroke-linecap: round;
        stroke-linejoin: round;
      }
    </style>
  </defs>
  <g id="Layer_1-2" data-name="Layer_1">
    <path class="cls-1" d="M16.5,16.5H2.5c-1.1,0-2-.9-2-2V2.5C.5,1.4,1.4.5,2.5.5h10c1.1,0,2,.9,2,2v1M16.5,16.5c-1.1,0-2-.9-2-2V3.5M16.5,16.5c1.1,0,2-.9,2-2V5.5c0-1.1-.9-2-2-2h-2M10.5.5h-4M4.5,12.5h6M4.5,4.5h6v4h-6v-4Z"/>
  </g>
</svg>